<svg width="130" height="33" viewBox="0 0 130 33" fill="none" xmlns="http://www.w3.org/2000/svg">
<g filter="url(#filter0_f_286_54)">
<rect x="2.75165" y="2.75165" width="124.775" height="27.0596" rx="9.01985" stroke="#DADADA" stroke-width="1.50331"/>
<path d="M44.1529 20.0511V20.2616H42.5143L39.2371 17.1347H37.0423V20.2616H35.5991V12.8202H37.0423V15.8719H39.192L42.2888 12.8202H43.9575V13.0307L40.5149 16.4733L44.1529 20.0511ZM54.5637 12.8202V13.0307L50.3244 21.0884C49.9936 21.7098 49.6078 22.1508 49.1668 22.4113C48.7359 22.6819 48.1446 22.8172 47.3929 22.8172H45.8896V21.5394H47.3929C47.8138 21.5394 48.1295 21.4743 48.34 21.344C48.5505 21.2237 48.7509 20.9782 48.9413 20.6074L49.0766 20.3668L45.1981 13.0307V12.8202H46.7315L49.8884 18.9537L53.0303 12.8202H54.5637ZM64.4895 12.8202V20.2616H63.0463V14.083H57.8449V20.2616H56.4017V12.8202H64.4895ZM68.4283 12.8202V18.5027L73.8853 12.8202H75.2082V20.2616H73.8252V14.5791L68.3682 20.2616H67.0453V12.8202H68.4283ZM76.2244 14.1131V12.8202H84.9736V14.1131H81.3507V20.2616H79.9075V14.1131H76.2244ZM92.0008 15.0601C92.9428 15.0601 93.6745 15.2856 94.1956 15.7366C94.7268 16.1776 94.9924 16.794 94.9924 17.5857V17.7661C94.9924 18.5378 94.7218 19.1441 94.1806 19.5851C93.6494 20.0261 92.9228 20.2466 92.0008 20.2466H86.4385V12.8202H87.8817V15.0601H92.0008ZM93.5041 17.5857C93.5041 16.7539 92.9679 16.338 91.8955 16.338H87.8817V18.9838H91.8955C92.4167 18.9838 92.8126 18.8786 93.0832 18.6681C93.3638 18.4576 93.5041 18.157 93.5041 17.7661V17.5857Z" fill="#E8E7E5"/>
</g>
<defs>
<filter id="filter0_f_286_54" x="0.496691" y="0.496691" width="129.285" height="31.5695" filterUnits="userSpaceOnUse" color-interpolation-filters="sRGB">
<feFlood flood-opacity="0" result="BackgroundImageFix"/>
<feBlend mode="normal" in="SourceGraphic" in2="BackgroundImageFix" result="shape"/>
<feGaussianBlur stdDeviation="0.751654" result="effect1_foregroundBlur_286_54"/>
</filter>
</defs>
</svg>
