<svg width="334" height="501" viewBox="0 0 334 501" fill="none" xmlns="http://www.w3.org/2000/svg">
<g clip-path="url(#clip0_205_1071)">
<rect width="333.479" height="500.218" fill="#1F2EB2"/>
<path d="M214.856 168.422C190.419 180.197 172.834 240.266 166.605 268.935L166.114 391.569L165.869 452.886L165.624 514.203C195.43 561.175 269.703 598.6 307.63 551.628C345.557 504.657 346.028 475.206 340.978 443.248C336.455 414.624 336.531 308.185 332.008 249.353C323.646 194.913 307.392 172.716 300.31 168.422C272.025 151.996 245.403 153.703 214.856 168.422Z" fill="#F15B2C"/>
<path d="M165.624 561.175V514.203M165.624 514.203C195.43 561.175 269.703 598.6 307.63 551.628C345.557 504.657 346.028 475.206 340.978 443.248C336.455 414.624 336.531 308.185 332.008 249.353C323.646 194.913 307.392 172.716 300.31 168.422C272.025 151.996 245.403 153.703 214.856 168.422C190.419 180.197 172.834 240.266 166.605 268.935L166.114 391.569L165.869 452.886L165.624 514.203Z" stroke="#0DA100" stroke-width="3.33479"/>
<path d="M74.7203 256.89C64.4333 272.448 43.5839 307.675 42.4814 324.124C41.379 340.574 44.7782 360.69 46.6155 368.693C39.2781 388.59 24.4727 429.479 23.9505 433.859C23.2978 439.335 28.7737 494.928 37.6946 499.026C44.8314 502.304 102.849 500.392 130.966 499.026L118.373 436.885C115.429 427.627 103.659 406.037 98.7272 385.177C92.5623 359.103 91.1047 354.026 100.32 347.649C106.924 343.08 118.349 340.873 115.429 326.345C111.974 309.152 91.9095 306.282 93.9403 298.05C95.5649 291.465 97.8085 272.46 98.7272 263.781L74.7203 256.89Z" fill="#E8E7E5" stroke="#0DA100" stroke-width="3.33479"/>
<path d="M252.438 257.335C262.725 272.893 283.575 308.12 284.677 324.569C285.78 341.019 282.381 361.136 280.543 369.138C287.881 389.035 302.686 429.924 303.208 434.304C303.861 439.78 298.385 495.373 289.464 499.471C282.327 502.749 224.31 500.837 196.193 499.471L208.786 437.33C211.729 428.072 223.5 406.482 228.432 385.622C234.596 359.549 236.054 354.471 226.839 348.094C220.235 343.525 208.809 341.318 211.729 326.79C215.185 309.597 235.249 306.727 233.218 298.495C231.594 291.91 229.35 272.905 228.432 264.226L252.438 257.335Z" fill="black" stroke="#0DA100" stroke-width="3.33479"/>
<path d="M270.923 208.011C270.923 208.011 261.836 168.164 235.641 170.937C209.446 173.71 212.457 195.456 210.896 208.011C209.446 219.676 215.517 240.687 218.021 248.626C218.243 249.332 218.437 249.934 218.596 250.418C218.636 250.539 218.673 250.653 218.708 250.759C218.761 250.919 218.809 251.062 218.85 251.186C219.013 251.67 219.086 251.872 219.045 251.74C219.045 251.74 219.17 252.052 219.42 252.594C219.474 252.711 219.534 252.839 219.599 252.978C219.663 253.111 219.732 253.253 219.806 253.404C221.686 257.231 227.034 266.513 235.641 268.933C246.562 272.005 263.141 267.858 270.923 245.981C278.705 224.103 270.923 208.011 270.923 208.011Z" fill="black"/>
<path d="M218.021 248.626C215.517 240.687 209.446 219.676 210.896 208.011C212.457 195.456 209.446 173.71 235.641 170.937C261.836 168.164 270.923 208.011 270.923 208.011C270.923 208.011 278.705 224.103 270.923 245.981C263.141 267.858 246.562 272.005 235.641 268.933C227.034 266.513 221.686 257.231 219.806 253.404M218.021 248.626C218.243 249.332 218.437 249.934 218.596 250.418M218.021 248.626C218.396 249.694 219.081 251.641 219.328 252.338M219.42 252.594C219.17 252.052 219.045 251.74 219.045 251.74C219.086 251.872 219.013 251.67 218.85 251.186M219.42 252.594C219.417 252.587 219.383 252.494 219.328 252.338M219.42 252.594C219.474 252.711 219.534 252.839 219.599 252.978M218.596 250.418L219.328 252.338M218.596 250.418C218.636 250.539 218.673 250.653 218.708 250.759M218.85 251.186L219.599 252.978M218.85 251.186C218.809 251.062 218.761 250.919 218.708 250.759M219.599 252.978C219.663 253.111 219.732 253.253 219.806 253.404M218.708 250.759L219.806 253.404" stroke="#0B8400" stroke-width="3.15705"/>
<path d="M66.1802 208.011C66.1802 208.011 75.2674 168.164 101.462 170.937C127.657 173.71 124.646 195.456 126.207 208.011C127.657 219.676 121.586 240.687 119.083 248.626C118.86 249.332 118.666 249.934 118.507 250.418C118.467 250.539 118.43 250.653 118.395 250.759C118.342 250.919 118.294 251.062 118.253 251.186C118.09 251.67 118.017 251.872 118.058 251.74C118.058 251.74 117.933 252.052 117.683 252.594C117.629 252.711 117.569 252.839 117.504 252.978C117.44 253.111 117.371 253.253 117.297 253.404C115.417 257.231 110.069 266.513 101.462 268.933C90.5407 272.005 73.9619 267.858 66.1802 245.981C58.3985 224.103 66.1802 208.011 66.1802 208.011Z" fill="#E8E7E5"/>
<path d="M119.083 248.626C121.586 240.687 127.657 219.676 126.207 208.011C124.646 195.456 127.657 173.71 101.462 170.937C75.2674 168.164 66.1802 208.011 66.1802 208.011C66.1802 208.011 58.3985 224.103 66.1802 245.981C73.9619 267.858 90.5407 272.005 101.462 268.933C110.069 266.513 115.417 257.231 117.297 253.404M119.083 248.626C118.86 249.332 118.666 249.934 118.507 250.418M119.083 248.626C118.707 249.694 118.022 251.641 117.775 252.338M117.683 252.594C117.933 252.052 118.058 251.74 118.058 251.74C118.017 251.872 118.09 251.67 118.253 251.186M117.683 252.594C117.686 252.587 117.72 252.494 117.775 252.338M117.683 252.594C117.629 252.711 117.569 252.839 117.504 252.978M118.507 250.418L117.775 252.338M118.507 250.418C118.467 250.539 118.43 250.653 118.395 250.759M118.253 251.186L117.504 252.978M118.253 251.186C118.294 251.062 118.342 250.919 118.395 250.759M117.504 252.978C117.44 253.111 117.371 253.253 117.297 253.404M118.395 250.759L117.297 253.404" stroke="#0DA100" stroke-width="3.33479"/>
<path d="M100.124 211.204L102.23 224.321L105.045 237.334L98.7264 239.085V242.13V244.236H105.045H99.5918M94.1386 244.236H99.5918M99.5918 244.236L97.0789 247.761L95.786 249.637C96.4533 250.847 97.6462 253.337 97.0789 253.62C96.3699 253.975 94.2428 257.145 92.2617 256.79" stroke="#0DA100" stroke-width="1.54318"/>
<path d="M92.0334 204.517C89.6725 203.687 85.692 203.921 81.7941 204.517C81.2083 206.306 80.3882 210.113 81.7941 211.029C84.6181 211.442 87.7062 211.478 90.5545 211.321C90.5805 211.319 90.6064 211.318 90.6323 211.316C92.7397 211.145 92.4488 206.73 92.0334 204.517Z" fill="#0DA100"/>
<path d="M92.0334 204.517C96.4875 206.083 97.3691 209.201 97.2531 210.563C95.469 210.881 93.1461 211.174 90.6323 211.316M92.0334 204.517C89.6725 203.687 85.692 203.921 81.7941 204.517M92.0334 204.517C92.4488 206.73 92.7397 211.145 90.6323 211.316M81.7941 204.517C78.3381 205.046 74.9472 205.861 72.8076 206.475C74.3131 209.098 77.788 210.442 81.7941 211.029M81.7941 204.517C81.2083 206.306 80.3882 210.113 81.7941 211.029M81.7941 211.029C84.6181 211.442 87.7062 211.478 90.5545 211.321M90.5545 211.321C90.5805 211.319 90.6064 211.318 90.6323 211.316M90.5545 211.321C90.5808 211.32 90.6067 211.318 90.6323 211.316" stroke="#0DA100" stroke-width="1.1116"/>
<path d="M106.958 204.41C109.272 203.458 113.26 203.482 117.183 203.874C117.862 205.63 118.88 209.389 117.524 210.377C114.726 210.937 111.644 211.135 108.791 211.127C108.765 211.127 108.739 211.127 108.713 211.127C106.6 211.066 106.659 206.641 106.958 204.41Z" fill="#0DA100"/>
<path d="M106.958 204.41C102.592 206.207 101.875 209.366 102.062 210.721C103.86 210.945 106.195 211.116 108.713 211.127M106.958 204.41C109.272 203.458 113.26 203.482 117.183 203.874M106.958 204.41C106.659 206.641 106.6 211.066 108.713 211.127M117.183 203.874C120.662 204.222 124.091 204.858 126.26 205.359C124.894 208.057 121.494 209.582 117.524 210.377M117.183 203.874C117.862 205.63 118.88 209.389 117.524 210.377M117.524 210.377C114.726 210.937 111.644 211.135 108.791 211.127M108.791 211.127C108.765 211.127 108.739 211.127 108.713 211.127M108.791 211.127C108.765 211.127 108.739 211.127 108.713 211.127" stroke="#0DA100" stroke-width="1.1116"/>
<path d="M270.987 207.844C270.987 207.844 261.9 167.996 235.705 170.77C209.51 173.543 212.521 195.288 210.961 207.844C209.511 219.509 215.581 240.519 218.085 248.459C218.308 249.165 218.502 249.767 218.66 250.251C218.7 250.372 218.738 250.486 218.773 250.592C218.826 250.752 218.873 250.895 218.915 251.019C219.078 251.502 219.151 251.704 219.109 251.573C219.109 251.573 219.235 251.885 219.484 252.426C219.538 252.544 219.598 252.672 219.664 252.81C219.727 252.944 219.796 253.086 219.87 253.237C221.751 257.063 227.099 266.346 235.705 268.766C246.627 271.838 263.206 267.691 270.987 245.814C278.769 223.936 270.987 207.844 270.987 207.844Z" fill="black"/>
<path d="M218.085 248.459C215.581 240.519 209.511 219.509 210.961 207.844C212.521 195.288 209.51 173.543 235.705 170.77C261.9 167.996 270.987 207.844 270.987 207.844C270.987 207.844 278.769 223.936 270.987 245.814C263.206 267.691 246.627 271.838 235.705 268.766C227.099 266.346 221.751 257.063 219.87 253.237M218.085 248.459C218.308 249.165 218.502 249.767 218.66 250.251M218.085 248.459C218.46 249.527 219.145 251.474 219.392 252.17M219.484 252.426C219.235 251.885 219.109 251.573 219.109 251.573C219.151 251.704 219.078 251.502 218.915 251.019M219.484 252.426C219.481 252.42 219.448 252.327 219.392 252.17M219.484 252.426C219.538 252.544 219.598 252.672 219.664 252.81M218.66 250.251L219.392 252.17M218.66 250.251C218.7 250.372 218.738 250.486 218.773 250.592M218.915 251.019L219.664 252.81M218.915 251.019C218.873 250.895 218.826 250.752 218.773 250.592M219.664 252.81C219.727 252.944 219.796 253.086 219.87 253.237M218.773 250.592L219.87 253.237" stroke="#0DA100" stroke-width="3.33479"/>
<path d="M237.044 211.032L234.938 224.149L232.122 237.162L238.441 238.913V241.958V244.064H232.122H237.576M243.029 244.064H237.576M237.576 244.064L240.089 247.589L241.381 249.465C240.714 250.675 239.521 253.165 240.089 253.449C240.798 253.803 242.925 256.973 244.906 256.618" stroke="#0DA100" stroke-width="1.54318"/>
<path d="M245.132 204.344C247.493 203.514 251.473 203.748 255.371 204.344C255.957 206.134 256.777 209.94 255.371 210.856C252.547 211.269 249.459 211.306 246.611 211.148C246.585 211.146 246.559 211.145 246.533 211.143C244.425 210.972 244.716 206.557 245.132 204.344Z" fill="#0DA100"/>
<path d="M245.132 204.344C240.678 205.91 239.796 209.028 239.912 210.391C241.696 210.708 244.019 211.001 246.533 211.143M245.132 204.344C247.493 203.514 251.473 203.748 255.371 204.344M245.132 204.344C244.716 206.557 244.425 210.972 246.533 211.143M255.371 204.344C258.827 204.874 262.218 205.689 264.357 206.302C262.852 208.925 259.377 210.27 255.371 210.856M255.371 204.344C255.957 206.134 256.777 209.94 255.371 210.856M255.371 210.856C252.547 211.269 249.459 211.306 246.611 211.148M246.611 211.148C246.585 211.146 246.559 211.145 246.533 211.143M246.611 211.148C246.584 211.147 246.558 211.146 246.533 211.143" stroke="#0DA100" stroke-width="1.1116"/>
<path d="M230.205 204.24C227.891 203.288 223.904 203.312 219.98 203.704C219.302 205.46 218.283 209.219 219.639 210.207C222.438 210.767 225.52 210.965 228.372 210.957C228.398 210.957 228.424 210.957 228.45 210.957C230.564 210.896 230.504 206.471 230.205 204.24Z" fill="#0DA100"/>
<path d="M230.205 204.24C234.571 206.037 235.289 209.196 235.102 210.551C233.303 210.775 230.968 210.946 228.45 210.957M230.205 204.24C227.891 203.288 223.904 203.312 219.98 203.704M230.205 204.24C230.504 206.471 230.564 210.896 228.45 210.957M219.98 203.704C216.501 204.052 213.072 204.688 210.904 205.189C212.27 207.887 215.669 209.412 219.639 210.207M219.98 203.704C219.302 205.46 218.283 209.219 219.639 210.207M219.639 210.207C222.438 210.767 225.52 210.965 228.372 210.957M228.372 210.957C228.398 210.957 228.424 210.957 228.45 210.957M228.372 210.957C228.399 210.957 228.425 210.957 228.45 210.957" stroke="#0DA100" stroke-width="1.1116"/>
<path d="M16.9613 108.924H15.109C15.109 109.326 15.1043 109.721 15.0949 110.11C15.0855 110.498 15.0655 110.866 15.0349 111.214C15.0043 111.56 14.9585 111.878 14.8973 112.17C14.8362 112.462 14.7527 112.715 14.6468 112.929C14.541 113.14 14.4093 113.306 14.2517 113.426C14.0964 113.544 13.9071 113.602 13.6836 113.602C13.6154 113.602 13.5578 113.597 13.5107 113.585C13.4661 113.573 13.4167 113.56 13.3626 113.546V112.904C13.3884 112.916 13.4202 112.926 13.4578 112.936C13.4978 112.943 13.5543 112.946 13.6272 112.946C13.7354 112.946 13.8283 112.907 13.9059 112.83C13.9859 112.75 14.0541 112.639 14.1105 112.498C14.167 112.357 14.2129 112.19 14.2481 111.997C14.2858 111.802 14.3152 111.59 14.3363 111.362C14.3599 111.134 14.3763 110.893 14.3857 110.639C14.3975 110.385 14.4057 110.127 14.4104 109.866C14.4175 109.603 14.421 109.34 14.421 109.079C14.4234 108.816 14.4269 108.562 14.4316 108.317H17.6563V113.504H16.9613V108.924ZM18.7289 108.317H22.5146V108.924H19.4204V110.526H22.2747V111.133H19.4204V112.897H22.564V113.504H18.7289V108.317ZM23.5484 108.317H24.2399V110.843L26.7696 108.317H27.7363L25.5771 110.409L27.7963 113.504H26.9072L25.0796 110.889L24.2399 111.697V113.504H23.5484V108.317ZM28.3679 108.317H29.0594V112.897H31.8184V108.317H32.5134V112.897H33.0462V114.615H32.397V113.504H28.3679V108.317ZM33.6601 108.317H34.3516V112.512H34.3657L37.0048 108.317H37.8057V113.504H37.1106V109.284H37.0965L34.461 113.504H33.6601V108.317ZM42.9709 113.504H42.2759V111.299H40.9846C40.8411 111.299 40.72 111.301 40.6212 111.306C40.5247 111.308 40.4412 111.315 40.3707 111.327C40.3025 111.336 40.2437 111.35 40.1943 111.369C40.1472 111.386 40.1014 111.408 40.0567 111.436C40.0026 111.471 39.9555 111.511 39.9155 111.556C39.8756 111.598 39.8403 111.653 39.8097 111.718C39.7815 111.784 39.7579 111.865 39.7391 111.962C39.7203 112.058 39.7062 112.177 39.6968 112.318L39.6615 112.883C39.6568 112.951 39.6509 113.013 39.6439 113.07C39.6368 113.124 39.6274 113.174 39.6156 113.221C39.6039 113.268 39.5898 113.315 39.5733 113.363C39.5592 113.407 39.5404 113.454 39.5169 113.504H38.7195C38.7477 113.473 38.7748 113.439 38.8006 113.401C38.8265 113.364 38.85 113.319 38.8712 113.267C38.8924 113.213 38.9112 113.15 38.9277 113.077C38.9441 113.004 38.9571 112.917 38.9665 112.816L39.0264 112.11C39.0359 111.992 39.05 111.88 39.0688 111.771C39.0876 111.663 39.1217 111.562 39.1711 111.468C39.2205 111.374 39.2922 111.289 39.3863 111.214C39.4828 111.139 39.6133 111.076 39.7779 111.027C39.7027 110.999 39.6145 110.961 39.5133 110.914C39.4122 110.867 39.3146 110.798 39.2205 110.706C39.1288 110.614 39.05 110.494 38.9841 110.346C38.9206 110.195 38.8888 110.005 38.8888 109.774C38.8888 109.61 38.9077 109.46 38.9453 109.326C38.9829 109.192 39.0323 109.073 39.0935 108.97C39.1546 108.864 39.224 108.775 39.3016 108.702C39.3816 108.627 39.4628 108.565 39.5451 108.518C39.6321 108.469 39.7321 108.43 39.845 108.402C39.9602 108.374 40.0767 108.354 40.1943 108.342C40.3119 108.33 40.4248 108.323 40.533 108.321C40.6435 108.318 40.74 108.317 40.8223 108.317H42.9709V113.504ZM42.2759 108.931H40.6882C40.6271 108.931 40.5647 108.932 40.5012 108.935C40.4377 108.935 40.3742 108.938 40.3107 108.945C40.2472 108.952 40.186 108.964 40.1272 108.981C40.0684 108.995 40.0143 109.016 39.9649 109.044C39.8944 109.084 39.8344 109.133 39.785 109.192C39.7356 109.251 39.6944 109.316 39.6615 109.386C39.6309 109.457 39.6086 109.53 39.5945 109.605C39.5804 109.68 39.5733 109.754 39.5733 109.827C39.5733 109.877 39.5768 109.932 39.5839 109.993C39.5909 110.052 39.6062 110.114 39.6298 110.18C39.6533 110.244 39.6862 110.307 39.7285 110.371C39.7709 110.432 39.8273 110.488 39.8979 110.54C39.9591 110.587 40.0202 110.624 40.0814 110.649C40.1449 110.673 40.2119 110.691 40.2825 110.702C40.353 110.712 40.4283 110.716 40.5083 110.716C40.5906 110.716 40.6812 110.715 40.7799 110.713H42.2759V108.931Z" fill="white"/>
<path d="M14.4226 103.523C14.0745 103.369 13.7853 103.157 13.555 102.887C13.3247 102.615 13.152 102.294 13.0368 101.925C12.9216 101.554 12.8641 101.153 12.8641 100.724C12.8641 100.292 12.9216 99.8919 13.0368 99.5228C13.152 99.1538 13.3247 98.8345 13.555 98.565C13.7853 98.2928 14.0745 98.0795 14.4226 97.925C14.7707 97.7706 15.1764 97.6934 15.6396 97.6934C16.0662 97.6934 16.4509 97.7706 16.7938 97.925C17.1367 98.0795 17.4272 98.2928 17.6653 98.565C17.9061 98.8345 18.0906 99.1538 18.2189 99.5228C18.3471 99.8919 18.4112 100.292 18.4112 100.724C18.4112 101.153 18.3471 101.554 18.2189 101.925C18.0906 102.294 17.9061 102.615 17.6653 102.887C17.4272 103.157 17.1367 103.369 16.7938 103.523C16.4509 103.678 16.0662 103.755 15.6396 103.755C15.1764 103.755 14.7707 103.678 14.4226 103.523ZM14.0693 100.724C14.0693 101.012 14.1059 101.276 14.1792 101.517C14.2499 101.761 14.3519 101.971 14.4854 102.149C14.6215 102.325 14.7864 102.462 14.9801 102.561C15.1738 102.661 15.3936 102.711 15.6396 102.711C15.8856 102.711 16.1055 102.661 16.2992 102.561C16.4928 102.462 16.6564 102.325 16.7899 102.149C16.926 101.971 17.0294 101.762 17.1 101.521C17.1707 101.278 17.206 101.012 17.206 100.724C17.206 100.436 17.1707 100.172 17.1 99.9311C17.0294 99.6877 16.926 99.4784 16.7899 99.303C16.6564 99.125 16.4928 98.9863 16.2992 98.8869C16.1055 98.7874 15.8856 98.7377 15.6396 98.7377C15.3936 98.7377 15.1738 98.7874 14.9801 98.8869C14.7864 98.9863 14.6215 99.125 14.4854 99.303C14.3519 99.4784 14.2486 99.6877 14.1753 99.9311C14.1046 100.172 14.0693 100.436 14.0693 100.724ZM18.8666 97.8387H23.5933V98.8319H21.8306V103.61H20.6254V98.8319H18.8666V97.8387ZM27.6762 101.399C27.4406 101.491 27.1737 101.537 26.8753 101.537H25.5562V103.61H24.351V97.8387H26.9734C27.2796 97.8387 27.5453 97.8806 27.7704 97.9643C27.9981 98.0481 28.1865 98.1698 28.3357 98.3294C28.4849 98.4891 28.5961 98.6827 28.6694 98.9104C28.7427 99.1381 28.7793 99.3972 28.7793 99.6877C28.7793 99.9573 28.7361 100.206 28.6498 100.434C28.5634 100.659 28.4378 100.854 28.2729 101.019C28.1106 101.181 27.9117 101.308 27.6762 101.399ZM25.5562 100.54H26.6986C26.9708 100.54 27.1841 100.473 27.3385 100.339C27.4956 100.206 27.5741 99.9887 27.5741 99.6877C27.5741 99.5359 27.5531 99.4064 27.5113 99.2991C27.472 99.1918 27.4144 99.1041 27.3385 99.036C27.2653 98.9654 27.1737 98.9143 27.0637 98.8829C26.9564 98.8489 26.8347 98.8319 26.6986 98.8319H25.5562V100.54ZM34.6994 103.61H33.3882L33.0192 102.42H30.8875L30.487 103.61H29.2151L31.2801 97.8387H32.658L34.6994 103.61ZM32.6816 101.423L31.9631 99.1381H31.9474L31.2094 101.423H32.6816ZM41.4322 97.8387H42.8062L40.7256 100.473L42.8062 103.61H41.3694L39.7127 101.117H39.4811V103.61H38.3151V101.117H38.0717L36.3993 103.61H34.9625L37.0746 100.473L35.0096 97.8387H36.3522L38.0717 100.151H38.3151V97.8387H39.4811V100.151H39.7127L41.4322 97.8387ZM47.5525 101.109H44.722V102.565H47.9373V103.61H43.5639V97.8387H47.7999V98.8319H44.722V100.112H47.5525V101.109ZM52.3028 103.61V101.03H50.0376V103.61H48.8284V97.8387H50.0376V100.033H52.3028V97.8387H53.508V103.61H52.3028ZM58.1601 103.61V99.7034H58.1444L55.8635 103.61H54.6386V97.8387H55.7967V101.768H55.8125L58.0973 97.8387H59.3182V103.61H58.1601ZM64.5356 101.109H61.7051V102.565H64.9203V103.61H60.547V97.8387H64.7829V98.8319H61.7051V100.112H64.5356V101.109ZM67.586 97.8387H72.3126V98.8319H70.55V103.61H69.3447V98.8319H67.586V97.8387ZM77.059 101.109H74.2284V102.565H77.4437V103.61H73.0703V97.8387H77.3063V98.8319H74.2284V100.112H77.059V101.109ZM81.8092 103.61V101.03H79.544V103.61H78.3348V97.8387H79.544V100.033H81.8092V97.8387H83.0144V103.61H81.8092ZM87.6665 103.61V99.7034H87.6508L85.3699 103.61H84.145V97.8387H85.3032V101.768H85.3189L87.6037 97.8387H88.8246V103.61H87.6665ZM91.4942 102.44V103.61H90.3046V102.44H91.4942ZM90.3046 100.669V99.4993H91.4942V100.669H90.3046ZM92.6326 97.8387H97.3122V103.61H96.107V98.8319H93.8418V103.61H92.6326V97.8387ZM101.866 101.399C101.631 101.491 101.364 101.537 101.065 101.537H99.7462V103.61H98.541V97.8387H101.163C101.47 97.8387 101.735 97.8806 101.96 97.9643C102.188 98.0481 102.377 98.1698 102.526 98.3294C102.675 98.4891 102.786 98.6827 102.859 98.9104C102.933 99.1381 102.969 99.3972 102.969 99.6877C102.969 99.9573 102.926 100.206 102.84 100.434C102.753 100.659 102.628 100.854 102.463 101.019C102.301 101.181 102.102 101.308 101.866 101.399ZM99.7462 100.54H100.889C101.161 100.54 101.374 100.473 101.529 100.339C101.686 100.206 101.764 99.9887 101.764 99.6877C101.764 99.5359 101.743 99.4064 101.701 99.2991C101.662 99.1918 101.604 99.1041 101.529 99.036C101.455 98.9654 101.364 98.9143 101.254 98.8829C101.146 98.8489 101.025 98.8319 100.889 98.8319H99.7462V100.54ZM107.327 103.61V99.7034H107.311L105.03 103.61H103.806V97.8387H104.964V101.768H104.979L107.264 97.8387H108.485V103.61H107.327ZM113.09 103.61V101.03H110.825V103.61H109.616V97.8387H110.825V100.033H113.09V97.8387H114.295V103.61H113.09ZM116.714 101.737C116.643 101.868 116.597 102.052 116.576 102.291L116.537 102.836C116.526 102.962 116.515 103.068 116.502 103.154C116.491 103.238 116.479 103.309 116.466 103.366C116.453 103.421 116.44 103.468 116.427 103.508C116.414 103.544 116.402 103.578 116.392 103.61H115.139C115.179 103.536 115.209 103.474 115.23 103.421C115.253 103.369 115.272 103.314 115.285 103.256C115.3 103.199 115.312 103.132 115.32 103.056C115.33 102.98 115.342 102.881 115.355 102.758L115.41 102.212C115.429 102.045 115.451 101.893 115.477 101.757C115.506 101.618 115.549 101.495 115.607 101.388C115.667 101.28 115.749 101.187 115.854 101.109C115.959 101.03 116.097 100.964 116.27 100.909C116.194 100.882 116.112 100.848 116.023 100.807C115.936 100.765 115.845 100.694 115.748 100.595C115.622 100.469 115.523 100.316 115.449 100.135C115.376 99.9521 115.34 99.7519 115.34 99.5346C115.34 99.3985 115.354 99.269 115.383 99.146C115.412 99.0203 115.452 98.9026 115.504 98.7926C115.557 98.6827 115.618 98.582 115.689 98.4904C115.762 98.3988 115.841 98.3176 115.924 98.247C116.045 98.1449 116.176 98.0664 116.317 98.0114C116.461 97.9564 116.609 97.9159 116.761 97.8897C116.915 97.8635 117.072 97.8491 117.232 97.8465C117.394 97.8413 117.554 97.8387 117.711 97.8387H120.121V103.61H118.955V101.333H117.88C117.696 101.333 117.529 101.338 117.377 101.348C117.228 101.359 117.097 101.394 116.984 101.454C116.872 101.512 116.782 101.606 116.714 101.737ZM116.588 99.3462C116.559 99.4273 116.545 99.5242 116.545 99.6367C116.545 99.7623 116.562 99.8683 116.596 99.9547C116.632 100.038 116.68 100.109 116.737 100.167C116.797 100.222 116.864 100.265 116.937 100.296C117.013 100.325 117.089 100.346 117.165 100.359C117.244 100.372 117.319 100.38 117.393 100.383C117.469 100.385 117.537 100.387 117.597 100.387H118.955V98.8515H117.597C117.581 98.8515 117.55 98.8528 117.503 98.8555C117.456 98.8555 117.402 98.8581 117.342 98.8633C117.284 98.8659 117.225 98.8712 117.165 98.879C117.105 98.8869 117.054 98.8986 117.012 98.9143C116.96 98.9353 116.906 98.9641 116.851 99.0007C116.796 99.0347 116.745 99.0805 116.698 99.1381C116.653 99.1957 116.617 99.2651 116.588 99.3462ZM120.789 97.8387H125.515V98.8319H123.753V103.61H122.547V98.8319H120.789V97.8387ZM129.696 103.61V99.7034H129.681L127.4 103.61H126.175V97.8387H127.333V101.768H127.349L129.633 97.8387H130.854V103.61H129.696ZM136.072 101.109H133.241V102.565H136.456V103.61H132.083V97.8387H136.319V98.8319H133.241V100.112H136.072V101.109ZM140.323 97.8387H144.351V103.61H143.146V98.8319H141.454L141.458 99.7034C141.461 100.229 141.449 100.694 141.423 101.097C141.399 101.498 141.36 101.847 141.305 102.145C141.253 102.441 141.184 102.69 141.101 102.891C141.02 103.093 140.923 103.255 140.81 103.378C140.698 103.498 140.569 103.585 140.425 103.637C140.282 103.689 140.123 103.716 139.95 103.716C139.809 103.716 139.684 103.706 139.574 103.688C139.466 103.672 139.359 103.642 139.252 103.598L139.248 102.495C139.284 102.513 139.322 102.529 139.362 102.542C139.403 102.552 139.444 102.561 139.483 102.569C139.523 102.575 139.558 102.578 139.589 102.581C139.623 102.584 139.649 102.585 139.668 102.585C139.738 102.585 139.804 102.576 139.864 102.558C139.927 102.537 139.982 102.493 140.029 102.428C140.079 102.363 140.122 102.268 140.159 102.145C140.195 102.022 140.225 101.859 140.249 101.655C140.275 101.45 140.293 101.198 140.304 100.897C140.317 100.596 140.323 100.236 140.323 99.8173V97.8387ZM148.901 103.61V99.7034H148.886L146.605 103.61H145.38V97.8387H146.538V101.768H146.554L148.839 97.8387H150.059V103.61H148.901ZM152.941 101.478C152.852 101.483 152.789 101.486 152.753 101.486C152.467 101.486 152.225 101.462 152.026 101.415C151.827 101.368 151.662 101.305 151.532 101.227C151.401 101.148 151.299 101.057 151.225 100.952C151.152 100.847 151.097 100.739 151.061 100.626C151.024 100.513 151.002 100.4 150.994 100.284C150.986 100.169 150.982 100.061 150.982 99.9586V97.8387H152.14V99.6681C152.14 99.8565 152.158 100.011 152.195 100.131C152.232 100.249 152.291 100.342 152.372 100.41C152.453 100.478 152.558 100.525 152.686 100.551C152.817 100.575 152.975 100.587 153.161 100.587C153.237 100.587 153.323 100.584 153.42 100.579C153.519 100.571 153.619 100.561 153.718 100.547C153.82 100.534 153.919 100.519 154.013 100.5C154.11 100.479 154.196 100.457 154.272 100.434V97.8387H155.477V103.61H154.272V101.301C154.07 101.343 153.884 101.377 153.714 101.403C153.544 101.427 153.394 101.445 153.263 101.458C153.135 101.469 153.027 101.475 152.941 101.478ZM160.027 103.61V101.03H157.762V103.61H156.553V97.8387H157.762V100.033H160.027V97.8387H161.232V103.61H160.027ZM163.713 103.523C163.365 103.369 163.076 103.157 162.846 102.887C162.615 102.615 162.443 102.294 162.328 101.925C162.212 101.554 162.155 101.153 162.155 100.724C162.155 100.292 162.212 99.8919 162.328 99.5228C162.443 99.1538 162.615 98.8345 162.846 98.565C163.076 98.2928 163.365 98.0795 163.713 97.925C164.062 97.7706 164.467 97.6934 164.93 97.6934C165.357 97.6934 165.742 97.7706 166.085 97.925C166.427 98.0795 166.718 98.2928 166.956 98.565C167.197 98.8345 167.381 99.1538 167.51 99.5228C167.638 99.8919 167.702 100.292 167.702 100.724C167.702 101.153 167.638 101.554 167.51 101.925C167.381 102.294 167.197 102.615 166.956 102.887C166.718 103.157 166.427 103.369 166.085 103.523C165.742 103.678 165.357 103.755 164.93 103.755C164.467 103.755 164.062 103.678 163.713 103.523ZM163.36 100.724C163.36 101.012 163.397 101.276 163.47 101.517C163.541 101.761 163.643 101.971 163.776 102.149C163.912 102.325 164.077 102.462 164.271 102.561C164.465 102.661 164.684 102.711 164.93 102.711C165.176 102.711 165.396 102.661 165.59 102.561C165.784 102.462 165.947 102.325 166.081 102.149C166.217 101.971 166.32 101.762 166.391 101.521C166.461 101.278 166.497 101.012 166.497 100.724C166.497 100.436 166.461 100.172 166.391 99.9311C166.32 99.6877 166.217 99.4784 166.081 99.303C165.947 99.125 165.784 98.9863 165.59 98.8869C165.396 98.7874 165.176 98.7377 164.93 98.7377C164.684 98.7377 164.465 98.7874 164.271 98.8869C164.077 98.9863 163.912 99.125 163.776 99.303C163.643 99.4784 163.539 99.6877 163.466 99.9311C163.395 100.172 163.36 100.436 163.36 100.724ZM170.446 102.573C170.619 102.665 170.815 102.711 171.035 102.711C171.289 102.711 171.496 102.671 171.655 102.593C171.815 102.514 171.942 102.419 172.036 102.306C172.133 102.194 172.205 102.076 172.252 101.953C172.299 101.83 172.336 101.723 172.362 101.631H173.559C173.494 101.992 173.385 102.306 173.234 102.573C173.082 102.838 172.897 103.057 172.68 103.233C172.463 103.408 172.218 103.539 171.946 103.625C171.676 103.712 171.388 103.755 171.082 103.755C170.653 103.755 170.272 103.684 169.94 103.543C169.61 103.399 169.331 103.195 169.104 102.93C168.878 102.666 168.707 102.348 168.589 101.976C168.471 101.602 168.413 101.185 168.413 100.724C168.413 100.368 168.447 100.046 168.515 99.7584C168.583 99.4705 168.677 99.2153 168.797 98.9929C168.92 98.7678 169.064 98.5741 169.229 98.4118C169.394 98.247 169.573 98.1122 169.767 98.0075C169.963 97.9002 170.169 97.8217 170.383 97.7719C170.598 97.7196 170.815 97.6934 171.035 97.6934C171.349 97.6934 171.628 97.7261 171.871 97.7916C172.115 97.857 172.328 97.9447 172.511 98.0546C172.694 98.1645 172.85 98.2901 172.978 98.4315C173.109 98.5728 173.215 98.7194 173.296 98.8712C173.38 99.0203 173.442 99.1708 173.481 99.3226C173.523 99.4718 173.549 99.6092 173.559 99.7348H172.354C172.338 99.6799 172.319 99.6171 172.295 99.5464C172.272 99.4731 172.239 99.3998 172.197 99.3266C172.158 99.2533 172.107 99.1813 172.044 99.1106C171.984 99.04 171.908 98.9772 171.816 98.9222C171.725 98.8672 171.615 98.8227 171.487 98.7887C171.358 98.7547 171.208 98.7377 171.035 98.7377C170.962 98.7377 170.875 98.7468 170.776 98.7652C170.676 98.7835 170.574 98.8188 170.47 98.8712C170.365 98.9209 170.262 98.9916 170.16 99.0832C170.058 99.1748 169.966 99.2952 169.885 99.4443C169.806 99.5909 169.742 99.7689 169.692 99.9782C169.643 100.188 169.618 100.436 169.618 100.724C169.618 101.036 169.651 101.314 169.716 101.56C169.781 101.806 169.876 102.014 169.999 102.185C170.122 102.355 170.271 102.484 170.446 102.573ZM173.968 97.8387H178.694V98.8319H176.932V103.61H175.726V98.8319H173.968V97.8387ZM182.875 103.61V99.7034H182.86L180.579 103.61H179.354V97.8387H180.512V101.768H180.528L182.812 97.8387H184.033V103.61H182.875Z" fill="white"/>
<path d="M12.7365 123.49C12.7601 123.054 12.8494 122.676 13.0047 122.353C13.1622 122.031 13.468 121.738 13.9219 121.475L14.5993 121.083C14.9027 120.907 15.1156 120.756 15.2379 120.632C15.4308 120.437 15.5272 120.213 15.5272 119.961C15.5272 119.667 15.439 119.435 15.2626 119.263C15.0862 119.089 14.851 119.002 14.557 119.002C14.1219 119.002 13.8208 119.167 13.6538 119.496C13.5644 119.672 13.5151 119.917 13.5056 120.23H12.86C12.8671 119.79 12.9482 119.431 13.1034 119.154C13.3786 118.664 13.8643 118.42 14.5605 118.42C15.1391 118.42 15.5613 118.576 15.8271 118.889C16.0952 119.202 16.2293 119.55 16.2293 119.933C16.2293 120.338 16.087 120.684 15.8024 120.97C15.6377 121.137 15.3426 121.34 14.9168 121.577L14.4335 121.845C14.203 121.972 14.0219 122.094 13.8902 122.209C13.655 122.413 13.5068 122.64 13.4457 122.89H16.2046V123.49H12.7365ZM17.4253 122.202C17.4676 122.564 17.6358 122.814 17.9298 122.953C18.0803 123.024 18.2543 123.059 18.4519 123.059C18.8282 123.059 19.107 122.939 19.2881 122.699C19.4692 122.459 19.5597 122.194 19.5597 121.902C19.5597 121.549 19.4515 121.276 19.2351 121.083C19.0211 120.891 18.7636 120.794 18.4625 120.794C18.2438 120.794 18.0556 120.836 17.898 120.921C17.7428 121.006 17.6099 121.123 17.4994 121.274L16.949 121.242L17.3335 118.522H19.9584V119.136H17.8098L17.5946 120.54C17.7122 120.451 17.8239 120.384 17.9298 120.339C18.1179 120.261 18.3355 120.223 18.5825 120.223C19.0458 120.223 19.4386 120.372 19.7608 120.671C20.083 120.969 20.2441 121.348 20.2441 121.807C20.2441 122.284 20.096 122.705 19.7996 123.07C19.5056 123.434 19.0352 123.617 18.3884 123.617C17.9768 123.617 17.6123 123.501 17.2947 123.271C16.9796 123.038 16.8032 122.682 16.7655 122.202H17.4253ZM27.1908 123.49H26.4958V121.284H25.2045C25.0611 121.284 24.9399 121.287 24.8412 121.292C24.7447 121.294 24.6612 121.301 24.5907 121.313C24.5225 121.322 24.4637 121.336 24.4143 121.355C24.3672 121.372 24.3214 121.394 24.2767 121.422C24.2226 121.457 24.1755 121.497 24.1355 121.542C24.0956 121.584 24.0603 121.638 24.0297 121.704C24.0015 121.77 23.978 121.851 23.9591 121.948C23.9403 122.044 23.9262 122.163 23.9168 122.304L23.8815 122.869C23.8768 122.937 23.8709 122.999 23.8639 123.056C23.8568 123.11 23.8474 123.16 23.8357 123.207C23.8239 123.254 23.8098 123.301 23.7933 123.348C23.7792 123.393 23.7604 123.44 23.7369 123.49H22.9396C22.9678 123.459 22.9948 123.425 23.0207 123.387C23.0466 123.35 23.0701 123.305 23.0913 123.253C23.1124 123.199 23.1312 123.136 23.1477 123.063C23.1642 122.99 23.1771 122.903 23.1865 122.802L23.2465 122.096C23.2559 121.978 23.27 121.865 23.2888 121.757C23.3076 121.649 23.3417 121.548 23.3911 121.454C23.4405 121.36 23.5123 121.275 23.6063 121.2C23.7028 121.125 23.8333 121.062 23.998 121.013C23.9227 120.985 23.8345 120.947 23.7334 120.9C23.6322 120.853 23.5346 120.784 23.4405 120.692C23.3488 120.6 23.27 120.48 23.2042 120.332C23.1406 120.181 23.1089 119.991 23.1089 119.76C23.1089 119.596 23.1277 119.446 23.1653 119.312C23.203 119.178 23.2524 119.059 23.3135 118.956C23.3747 118.85 23.4441 118.761 23.5217 118.688C23.6016 118.613 23.6828 118.551 23.7651 118.504C23.8521 118.455 23.9521 118.416 24.065 118.388C24.1802 118.36 24.2967 118.34 24.4143 118.328C24.5319 118.316 24.6448 118.309 24.753 118.307C24.8635 118.304 24.9599 118.303 25.0422 118.303H27.1908V123.49ZM26.4958 118.917H24.9082C24.847 118.917 24.7847 118.918 24.7212 118.921C24.6577 118.921 24.5942 118.924 24.5307 118.931C24.4672 118.938 24.406 118.95 24.3472 118.967C24.2884 118.981 24.2343 119.002 24.1849 119.03C24.1144 119.07 24.0544 119.119 24.005 119.178C23.9556 119.237 23.9145 119.302 23.8815 119.372C23.851 119.443 23.8286 119.516 23.8145 119.591C23.8004 119.666 23.7933 119.74 23.7933 119.813C23.7933 119.863 23.7969 119.918 23.8039 119.979C23.811 120.038 23.8263 120.1 23.8498 120.166C23.8733 120.23 23.9062 120.293 23.9486 120.357C23.9909 120.418 24.0473 120.474 24.1179 120.526C24.1791 120.573 24.2402 120.609 24.3014 120.635C24.3649 120.659 24.4319 120.676 24.5025 120.688C24.573 120.698 24.6483 120.702 24.7283 120.702C24.8106 120.702 24.9011 120.701 24.9999 120.699H26.4958V118.917ZM28.2669 118.303H28.9583V120.441H31.7173V118.303H32.4123V123.49H31.7173V121.048H28.9583V123.49H28.2669V118.303ZM33.4883 118.303H35.344C35.5487 118.303 35.7274 118.309 35.8803 118.321C36.0332 118.33 36.1767 118.353 36.3107 118.388C36.4377 118.423 36.5565 118.475 36.6671 118.543C36.78 118.609 36.8787 118.694 36.9634 118.797C37.0481 118.898 37.1139 119.017 37.161 119.154C37.2104 119.288 37.2351 119.439 37.2351 119.609C37.2351 119.698 37.2233 119.794 37.1998 119.898C37.1763 120.001 37.1375 120.104 37.0834 120.205C37.0293 120.304 36.9575 120.397 36.8682 120.484C36.7811 120.568 36.6729 120.638 36.5436 120.692C36.6494 120.727 36.7576 120.776 36.8682 120.84C36.9787 120.903 37.0787 120.986 37.168 121.087C37.2598 121.186 37.335 121.307 37.3938 121.45C37.4526 121.591 37.482 121.761 37.482 121.958C37.482 122.071 37.4679 122.189 37.4397 122.311C37.4138 122.431 37.3703 122.548 37.3092 122.66C37.2504 122.773 37.1739 122.88 37.0798 122.981C36.9858 123.083 36.8717 123.171 36.7376 123.246C36.6035 123.321 36.4483 123.381 36.2719 123.426C36.0979 123.468 35.8991 123.49 35.6757 123.49H33.4883V118.303ZM35.5734 122.883C35.7992 122.883 35.9885 122.862 36.1414 122.819C36.2966 122.774 36.4213 122.713 36.5153 122.636C36.6118 122.556 36.6812 122.46 36.7235 122.35C36.7658 122.239 36.787 122.116 36.787 121.98C36.787 121.843 36.7658 121.72 36.7235 121.609C36.6812 121.499 36.6118 121.404 36.5153 121.327C36.4213 121.247 36.2966 121.186 36.1414 121.143C35.9885 121.099 35.7992 121.076 35.5734 121.076H34.1798V122.883H35.5734ZM35.4746 120.512C35.7027 120.512 35.8862 120.491 36.025 120.448C36.1661 120.404 36.2743 120.345 36.3495 120.272C36.4271 120.197 36.4789 120.108 36.5048 120.007C36.5306 119.906 36.5436 119.798 36.5436 119.683C36.5436 119.56 36.5248 119.452 36.4871 119.358C36.4518 119.262 36.3919 119.181 36.3072 119.115C36.2225 119.049 36.112 118.998 35.9756 118.963C35.8391 118.928 35.6722 118.91 35.4746 118.91H34.1798V120.512H35.4746ZM41.0524 121.352L40.2621 119.044L39.3872 121.352H41.0524ZM37.8983 123.49L39.8423 118.222H40.6855L42.5659 123.49H41.7968L41.2499 121.902H39.2108L38.6322 123.49H37.8983ZM45.3213 120.731C45.6882 120.731 45.9528 120.653 46.1151 120.498C46.2774 120.343 46.3585 120.117 46.3585 119.82C46.3585 119.524 46.2774 119.298 46.1151 119.143C45.9528 118.988 45.6882 118.91 45.3213 118.91H43.903V120.731H45.3213ZM43.2115 118.303H45.3918C45.6764 118.303 45.9222 118.34 46.1292 118.413C46.3385 118.486 46.5114 118.589 46.6478 118.723C46.7842 118.855 46.8854 119.014 46.9512 119.199C47.0194 119.385 47.0535 119.592 47.0535 119.82C47.0535 120.049 47.0194 120.255 46.9512 120.441C46.8854 120.627 46.7842 120.787 46.6478 120.921C46.5114 121.053 46.3385 121.155 46.1292 121.228C45.9222 121.301 45.6764 121.337 45.3918 121.337H43.903V123.49H43.2115V118.303ZM52.1198 123.49H51.4247V121.284H50.1335C49.99 121.284 49.8689 121.287 49.7701 121.292C49.6737 121.294 49.5902 121.301 49.5196 121.313C49.4514 121.322 49.3926 121.336 49.3432 121.355C49.2962 121.372 49.2503 121.394 49.2056 121.422C49.1515 121.457 49.1045 121.497 49.0645 121.542C49.0245 121.584 48.9892 121.638 48.9587 121.704C48.9304 121.77 48.9069 121.851 48.8881 121.948C48.8693 122.044 48.8552 122.163 48.8458 122.304L48.8105 122.869C48.8058 122.937 48.7999 122.999 48.7928 123.056C48.7858 123.11 48.7764 123.16 48.7646 123.207C48.7529 123.254 48.7387 123.301 48.7223 123.348C48.7082 123.393 48.6894 123.44 48.6658 123.49H47.8685C47.8967 123.459 47.9238 123.425 47.9496 123.387C47.9755 123.35 47.999 123.305 48.0202 123.253C48.0414 123.199 48.0602 123.136 48.0767 123.063C48.0931 122.99 48.1061 122.903 48.1155 122.802L48.1754 122.096C48.1848 121.978 48.199 121.865 48.2178 121.757C48.2366 121.649 48.2707 121.548 48.3201 121.454C48.3695 121.36 48.4412 121.275 48.5353 121.2C48.6317 121.125 48.7623 121.062 48.9269 121.013C48.8516 120.985 48.7634 120.947 48.6623 120.9C48.5612 120.853 48.4636 120.784 48.3695 120.692C48.2777 120.6 48.199 120.48 48.1331 120.332C48.0696 120.181 48.0378 119.991 48.0378 119.76C48.0378 119.596 48.0567 119.446 48.0943 119.312C48.1319 119.178 48.1813 119.059 48.2425 118.956C48.3036 118.85 48.373 118.761 48.4506 118.688C48.5306 118.613 48.6117 118.551 48.6941 118.504C48.7811 118.455 48.881 118.416 48.9939 118.388C49.1092 118.36 49.2256 118.34 49.3432 118.328C49.4608 118.316 49.5737 118.309 49.6819 118.307C49.7924 118.304 49.8889 118.303 49.9712 118.303H52.1198V123.49ZM51.4247 118.917H49.8371C49.776 118.917 49.7137 118.918 49.6501 118.921C49.5866 118.921 49.5231 118.924 49.4596 118.931C49.3961 118.938 49.335 118.95 49.2762 118.967C49.2174 118.981 49.1633 119.002 49.1139 119.03C49.0433 119.07 48.9834 119.119 48.934 119.178C48.8846 119.237 48.8434 119.302 48.8105 119.372C48.7799 119.443 48.7576 119.516 48.7434 119.591C48.7293 119.666 48.7223 119.74 48.7223 119.813C48.7223 119.863 48.7258 119.918 48.7329 119.979C48.7399 120.038 48.7552 120.1 48.7787 120.166C48.8022 120.23 48.8352 120.293 48.8775 120.357C48.9198 120.418 48.9763 120.474 49.0469 120.526C49.108 120.573 49.1692 120.609 49.2303 120.635C49.2938 120.659 49.3608 120.676 49.4314 120.688C49.502 120.698 49.5772 120.702 49.6572 120.702C49.7395 120.702 49.8301 120.701 49.9289 120.699H51.4247V118.917ZM55.362 119.912V119.425C55.8206 119.381 56.1405 119.306 56.3216 119.203C56.5027 119.097 56.638 118.849 56.7273 118.459H57.2283V123.49H56.5509V119.912H55.362ZM60.6575 120.554C60.9374 120.554 61.1562 120.477 61.3138 120.321C61.4713 120.164 61.5501 119.977 61.5501 119.76C61.5501 119.572 61.4749 119.399 61.3243 119.242C61.1738 119.084 60.9445 119.005 60.6364 119.005C60.3306 119.005 60.1095 119.084 59.9731 119.242C59.8367 119.399 59.7685 119.584 59.7685 119.796C59.7685 120.033 59.8567 120.219 60.0331 120.353C60.2095 120.487 60.4176 120.554 60.6575 120.554ZM60.6964 123.056C60.9904 123.056 61.2338 122.977 61.4267 122.819C61.6219 122.659 61.7195 122.422 61.7195 122.107C61.7195 121.78 61.6195 121.531 61.4196 121.362C61.2197 121.193 60.9633 121.108 60.6505 121.108C60.3471 121.108 60.0989 121.195 59.9061 121.369C59.7156 121.541 59.6203 121.78 59.6203 122.085C59.6203 122.349 59.7073 122.577 59.8814 122.77C60.0578 122.96 60.3294 123.056 60.6964 123.056ZM59.7932 120.798C59.6168 120.722 59.4792 120.634 59.3804 120.533C59.1946 120.345 59.1017 120.1 59.1017 119.799C59.1017 119.423 59.2381 119.099 59.5109 118.829C59.7838 118.559 60.1707 118.423 60.6717 118.423C61.1562 118.423 61.536 118.551 61.8112 118.808C62.0864 119.062 62.224 119.359 62.224 119.7C62.224 120.016 62.144 120.271 61.9841 120.466C61.8947 120.577 61.7559 120.685 61.5678 120.791C61.7771 120.887 61.9417 120.998 62.0617 121.122C62.2851 121.357 62.3969 121.663 62.3969 122.039C62.3969 122.484 62.2475 122.862 61.9488 123.172C61.6501 123.48 61.2279 123.634 60.6822 123.634C60.1907 123.634 59.7744 123.501 59.4333 123.235C59.0946 122.967 58.9253 122.579 58.9253 122.071C58.9253 121.773 58.9982 121.515 59.144 121.299C59.2899 121.08 59.5062 120.913 59.7932 120.798ZM63.5152 119.76H64.2526V120.529H63.5152V119.76ZM63.5152 122.72H64.2526V123.49H63.5152V122.72ZM66.6799 118.437C67.3337 118.437 67.8065 118.707 68.0981 119.245C68.3239 119.662 68.4368 120.232 68.4368 120.956C68.4368 121.643 68.3345 122.211 68.1299 122.66C67.8335 123.305 67.349 123.627 66.6763 123.627C66.0695 123.627 65.6179 123.364 65.3216 122.837C65.0746 122.397 64.9511 121.807 64.9511 121.066C64.9511 120.492 65.0252 119.999 65.1734 119.588C65.4509 118.821 65.9531 118.437 66.6799 118.437ZM66.6728 123.049C67.0021 123.049 67.2643 122.903 67.4596 122.611C67.6548 122.319 67.7524 121.776 67.7524 120.981C67.7524 120.407 67.6818 119.936 67.5407 119.566C67.3996 119.195 67.1256 119.009 66.7187 119.009C66.3447 119.009 66.0707 119.185 65.8967 119.538C65.725 119.889 65.6391 120.406 65.6391 121.09C65.6391 121.606 65.6944 122.019 65.8049 122.332C65.9743 122.81 66.2636 123.049 66.6728 123.049ZM70.7018 118.437C71.3557 118.437 71.8284 118.707 72.1201 119.245C72.3459 119.662 72.4588 120.232 72.4588 120.956C72.4588 121.643 72.3564 122.211 72.1518 122.66C71.8555 123.305 71.371 123.627 70.6983 123.627C70.0915 123.627 69.6399 123.364 69.3435 122.837C69.0966 122.397 68.9731 121.807 68.9731 121.066C68.9731 120.492 69.0472 119.999 69.1953 119.588C69.4729 118.821 69.975 118.437 70.7018 118.437ZM70.6947 123.049C71.024 123.049 71.2863 122.903 71.4815 122.611C71.6767 122.319 71.7743 121.776 71.7743 120.981C71.7743 120.407 71.7038 119.936 71.5626 119.566C71.4215 119.195 71.1475 119.009 70.7406 119.009C70.3666 119.009 70.0926 119.185 69.9186 119.538C69.7469 119.889 69.661 120.406 69.661 121.09C69.661 121.606 69.7163 122.019 69.8269 122.332C69.9962 122.81 70.2855 123.049 70.6947 123.049Z" fill="white"/>
<path d="M13.5656 132.778C13.5915 132.799 13.6256 132.821 13.6679 132.845C13.7103 132.866 13.7561 132.886 13.8055 132.905C13.8549 132.921 13.9055 132.935 13.9572 132.947C14.0113 132.956 14.0631 132.961 14.1125 132.961C14.2183 132.961 14.3089 132.947 14.3841 132.919C14.4617 132.888 14.5276 132.849 14.5817 132.802C14.6381 132.753 14.684 132.698 14.7193 132.637C14.7546 132.573 14.7828 132.507 14.804 132.439L12.6766 128.286H13.4845L15.1991 131.723L16.4974 128.286H17.2806L15.6507 132.164C15.5378 132.422 15.4319 132.644 15.3332 132.827C15.2367 133.008 15.1309 133.156 15.0156 133.272C14.9027 133.387 14.7734 133.47 14.6276 133.522C14.4841 133.576 14.31 133.603 14.1054 133.603C13.9996 133.603 13.8961 133.589 13.7949 133.561C13.6938 133.533 13.6162 133.496 13.5621 133.451L13.5656 132.778ZM21.0591 128.893H19.2069C19.2069 129.295 19.2022 129.691 19.1928 130.079C19.1834 130.467 19.1634 130.835 19.1328 131.183C19.1022 131.529 19.0564 131.847 18.9952 132.139C18.9341 132.431 18.8506 132.684 18.7447 132.898C18.6389 133.109 18.5072 133.275 18.3496 133.395C18.1944 133.513 18.005 133.571 17.7816 133.571C17.7134 133.571 17.6558 133.566 17.6087 133.554C17.564 133.542 17.5146 133.529 17.4605 133.515V132.873C17.4864 132.885 17.5182 132.895 17.5558 132.905C17.5958 132.912 17.6522 132.915 17.7251 132.915C17.8333 132.915 17.9262 132.876 18.0039 132.799C18.0838 132.719 18.152 132.608 18.2085 132.467C18.2649 132.326 18.3108 132.159 18.3461 131.966C18.3837 131.771 18.4131 131.559 18.4343 131.331C18.4578 131.103 18.4743 130.862 18.4837 130.608C18.4954 130.354 18.5037 130.096 18.5084 129.835C18.5154 129.572 18.519 129.31 18.519 129.049C18.5213 128.785 18.5248 128.531 18.5295 128.286H21.7541V133.473H21.0591V128.893ZM22.9078 132.704H23.6452V133.473H22.9078V132.704ZM24.4037 128.286H28.6232V128.893H26.8592V133.473H26.1642V128.893H24.4037V128.286ZM29.2547 128.286H33.0403V128.893H29.9462V130.495H32.8004V131.102H29.9462V132.866H33.0896V133.473H29.2547V128.286ZM34.074 128.286H34.7655V130.424H37.5244V128.286H38.2194V133.473H37.5244V131.031H34.7655V133.473H34.074V128.286ZM39.2954 128.286H43.081V128.893H39.9869V130.495H42.8411V131.102H39.9869V132.866H43.1304V133.473H39.2954V128.286ZM44.1147 128.286H45.9704C46.1751 128.286 46.3538 128.292 46.5067 128.304C46.6596 128.314 46.803 128.336 46.9371 128.371C47.0641 128.406 47.1829 128.458 47.2934 128.526C47.4063 128.592 47.5051 128.677 47.5898 128.78C47.6745 128.882 47.7403 129 47.7874 129.137C47.8367 129.271 47.8614 129.422 47.8614 129.592C47.8614 129.681 47.8497 129.778 47.8262 129.881C47.8026 129.985 47.7638 130.087 47.7097 130.188C47.6556 130.287 47.5839 130.38 47.4945 130.467C47.4075 130.551 47.2993 130.621 47.17 130.675C47.2758 130.71 47.384 130.76 47.4945 130.823C47.6051 130.887 47.705 130.969 47.7944 131.07C47.8861 131.169 47.9614 131.29 48.0202 131.433C48.079 131.575 48.1084 131.744 48.1084 131.941C48.1084 132.054 48.0943 132.172 48.0661 132.294C48.0402 132.414 47.9967 132.531 47.9355 132.644C47.8767 132.756 47.8003 132.863 47.7062 132.965C47.6121 133.066 47.4981 133.154 47.364 133.229C47.2299 133.304 47.0747 133.364 46.8983 133.409C46.7242 133.451 46.5255 133.473 46.3021 133.473H44.1147V128.286ZM46.1997 132.866C46.4255 132.866 46.6149 132.845 46.7678 132.802C46.923 132.758 47.0476 132.696 47.1417 132.619C47.2382 132.539 47.3075 132.444 47.3499 132.333C47.3922 132.223 47.4134 132.099 47.4134 131.963C47.4134 131.826 47.3922 131.703 47.3499 131.592C47.3075 131.482 47.2382 131.388 47.1417 131.31C47.0476 131.23 46.923 131.169 46.7678 131.127C46.6149 131.082 46.4255 131.059 46.1997 131.059H44.8062V132.866H46.1997ZM46.101 130.495C46.3291 130.495 46.5126 130.474 46.6513 130.432C46.7925 130.387 46.9006 130.328 46.9759 130.255C47.0535 130.18 47.1053 130.092 47.1311 129.991C47.157 129.889 47.17 129.781 47.17 129.666C47.17 129.544 47.1511 129.435 47.1135 129.341C47.0782 129.245 47.0182 129.164 46.9336 129.098C46.8489 129.032 46.7384 128.981 46.6019 128.946C46.4655 128.911 46.2985 128.893 46.101 128.893H44.8062V130.495H46.101ZM51.6788 131.335L50.8885 129.027L50.0135 131.335H51.6788ZM48.5247 133.473L50.4686 128.205H51.3118L53.1923 133.473H52.4232L51.8763 131.885H49.8371L49.2585 133.473H48.5247ZM57.9269 133.473H57.2318V131.268H55.9406C55.7971 131.268 55.676 131.27 55.5772 131.275C55.4808 131.277 55.3973 131.284 55.3267 131.296C55.2585 131.305 55.1997 131.319 55.1503 131.338C55.1033 131.355 55.0574 131.377 55.0127 131.405C54.9586 131.441 54.9116 131.481 54.8716 131.525C54.8316 131.568 54.7963 131.622 54.7658 131.687C54.7375 131.753 54.714 131.834 54.6952 131.931C54.6764 132.027 54.6623 132.146 54.6529 132.287L54.6176 132.852C54.6129 132.92 54.607 132.982 54.5999 133.039C54.5929 133.093 54.5835 133.143 54.5717 133.19C54.56 133.237 54.5459 133.284 54.5294 133.332C54.5153 133.376 54.4965 133.423 54.4729 133.473H53.6756C53.7038 133.442 53.7309 133.408 53.7568 133.37C53.7826 133.333 53.8061 133.288 53.8273 133.236C53.8485 133.182 53.8673 133.119 53.8838 133.046C53.9002 132.973 53.9132 132.886 53.9226 132.785L53.9825 132.079C53.992 131.961 54.0061 131.849 54.0249 131.74C54.0437 131.632 54.0778 131.531 54.1272 131.437C54.1766 131.343 54.2483 131.258 54.3424 131.183C54.4388 131.108 54.5694 131.045 54.734 130.996C54.6587 130.968 54.5705 130.93 54.4694 130.883C54.3683 130.836 54.2707 130.767 54.1766 130.675C54.0849 130.583 54.0061 130.463 53.9402 130.315C53.8767 130.165 53.845 129.974 53.845 129.744C53.845 129.579 53.8638 129.43 53.9014 129.295C53.939 129.161 53.9884 129.043 54.0496 128.939C54.1107 128.833 54.1801 128.744 54.2577 128.671C54.3377 128.596 54.4188 128.535 54.5012 128.488C54.5882 128.438 54.6881 128.399 54.801 128.371C54.9163 128.343 55.0327 128.323 55.1503 128.311C55.2679 128.299 55.3808 128.292 55.489 128.29C55.5996 128.288 55.696 128.286 55.7783 128.286H57.9269V133.473ZM57.2318 128.9H55.6442C55.5831 128.9 55.5208 128.902 55.4573 128.904C55.3938 128.904 55.3302 128.907 55.2667 128.914C55.2032 128.922 55.1421 128.933 55.0833 128.95C55.0245 128.964 54.9704 128.985 54.921 129.013C54.8504 129.053 54.7905 129.103 54.7411 129.161C54.6917 129.22 54.6505 129.285 54.6176 129.355C54.587 129.426 54.5647 129.499 54.5506 129.574C54.5364 129.649 54.5294 129.724 54.5294 129.796C54.5294 129.846 54.5329 129.901 54.54 129.962C54.547 130.021 54.5623 130.083 54.5858 130.149C54.6094 130.213 54.6423 130.276 54.6846 130.34C54.727 130.401 54.7834 130.457 54.854 130.509C54.9151 130.556 54.9763 130.593 55.0374 130.618C55.1009 130.642 55.168 130.66 55.2385 130.671C55.3091 130.681 55.3843 130.686 55.4643 130.686C55.5466 130.686 55.6372 130.684 55.736 130.682H57.2318V128.9ZM59.0664 134.21C59.2287 134.182 59.3428 134.068 59.4086 133.868C59.4439 133.762 59.4616 133.66 59.4616 133.561C59.4616 133.544 59.4604 133.529 59.458 133.515C59.458 133.503 59.4557 133.489 59.451 133.473H59.0664V132.704H59.8214V133.416C59.8214 133.696 59.765 133.942 59.6521 134.154C59.5392 134.365 59.344 134.496 59.0664 134.545V134.21ZM66.2671 128.505V129.059C66.1048 129.217 65.8884 129.491 65.6179 129.881C65.3498 130.272 65.1123 130.693 64.9053 131.144C64.7007 131.584 64.5454 131.985 64.4396 132.347C64.3714 132.58 64.2832 132.955 64.175 133.473H63.4729C63.6328 132.508 63.9856 131.549 64.5313 130.594C64.8535 130.034 65.1922 129.551 65.5474 129.144H62.7532V128.505H66.2671Z" fill="white"/>
</g>
<defs>
<clipPath id="clip0_205_1071">
<rect width="333.479" height="500.218" fill="white"/>
</clipPath>
</defs>
</svg>
