<svg width="334" height="500" viewBox="0 0 334 500" fill="none" xmlns="http://www.w3.org/2000/svg">
<g clip-path="url(#clip0_205_1038)">
<rect width="333.235" height="499.853" transform="translate(0.614746)" fill="#0DA100"/>
<path d="M120.025 429.756C127.303 414.652 164.43 403.783 182.15 399.933L257.948 399.63L295.846 399.478L333.745 399.327C362.777 417.75 385.909 463.656 356.877 487.098C327.844 510.539 309.642 510.83 289.889 507.709C272.197 504.914 206.41 504.96 170.047 502.165C136.399 496.997 122.679 486.95 120.025 482.573C109.873 465.091 110.928 448.636 120.025 429.756Z" fill="#1F2EB2" stroke="#F15B2C" stroke-width="2.06116"/>
<path d="M187.255 454.308C196.871 460.666 218.643 473.553 228.811 474.234C238.978 474.915 251.411 472.814 256.357 471.679C268.655 476.214 293.928 485.365 296.635 485.687C300.02 486.091 334.381 482.706 336.913 477.193C338.94 472.782 337.758 436.922 336.913 419.544L298.505 427.327C292.783 429.146 279.439 436.421 266.546 439.47C250.43 443.28 247.292 444.181 243.351 438.485C240.527 434.403 239.163 427.342 230.183 429.146C219.557 431.282 217.783 443.684 212.695 442.428C208.624 441.424 196.878 440.038 191.514 439.47L187.255 454.308Z" fill="black" stroke="#F15B2C" stroke-width="2.06116"/>
<path d="M156.771 465.728C156.771 465.728 132.142 460.112 133.856 443.921C135.57 427.731 149.01 429.592 156.771 428.627C163.981 427.731 176.967 431.483 181.874 433.03C182.31 433.168 182.683 433.288 182.981 433.386C183.056 433.411 183.127 433.434 183.192 433.455C183.291 433.488 183.379 433.518 183.456 433.543C183.755 433.644 183.88 433.689 183.799 433.664C183.799 433.664 183.992 433.741 184.326 433.895C184.399 433.929 184.478 433.966 184.563 434.006C184.646 434.045 184.734 434.088 184.827 434.134C187.192 435.296 192.929 438.602 194.425 443.921C196.324 450.671 193.761 460.918 180.239 465.728C166.717 470.538 156.771 465.728 156.771 465.728Z" fill="black"/>
<path d="M181.874 433.03C176.967 431.483 163.981 427.731 156.771 428.627C149.01 429.592 135.57 427.731 133.856 443.921C132.142 460.112 156.771 465.728 156.771 465.728C156.771 465.728 166.717 470.538 180.239 465.728C193.761 460.918 196.324 450.671 194.425 443.921C192.929 438.602 187.192 435.296 184.827 434.134M181.874 433.03C182.31 433.168 182.683 433.288 182.981 433.386M181.874 433.03C182.534 433.262 183.737 433.686 184.168 433.838M184.326 433.895C183.992 433.741 183.799 433.664 183.799 433.664C183.88 433.689 183.755 433.644 183.456 433.543M184.326 433.895C184.322 433.893 184.265 433.873 184.168 433.838M184.326 433.895C184.399 433.929 184.478 433.966 184.563 434.006M182.981 433.386L184.168 433.838M182.981 433.386C183.056 433.411 183.127 433.434 183.192 433.455M183.456 433.543L184.563 434.006M183.456 433.543C183.379 433.518 183.291 433.488 183.192 433.455M184.563 434.006C184.646 434.045 184.734 434.088 184.827 434.134M183.192 433.455L184.827 434.134" stroke="#0B8400" stroke-width="1.9513"/>
<path d="M156.666 465.766C156.666 465.766 132.037 460.15 133.752 443.959C135.466 427.769 148.906 429.63 156.666 428.665C163.876 427.769 176.862 431.521 181.769 433.069C182.206 433.206 182.578 433.326 182.877 433.424C182.952 433.449 183.022 433.472 183.088 433.494C183.187 433.527 183.275 433.556 183.351 433.582C183.651 433.682 183.775 433.727 183.694 433.702C183.694 433.702 183.887 433.779 184.222 433.933C184.294 433.967 184.374 434.004 184.459 434.045C184.541 434.084 184.629 434.126 184.723 434.172C187.088 435.334 192.825 438.64 194.321 443.959C196.219 450.71 193.656 460.957 180.134 465.766C166.612 470.576 156.666 465.766 156.666 465.766Z" fill="black"/>
<path d="M181.769 433.069C176.862 431.521 163.876 427.769 156.666 428.665C148.906 429.63 135.466 427.769 133.752 443.959C132.037 460.15 156.666 465.766 156.666 465.766C156.666 465.766 166.612 470.576 180.134 465.766C193.656 460.957 196.219 450.71 194.321 443.959C192.825 438.64 187.088 435.334 184.723 434.172M181.769 433.069C182.206 433.206 182.578 433.326 182.877 433.424M181.769 433.069C182.43 433.301 183.633 433.724 184.063 433.877M184.222 433.933C183.887 433.779 183.694 433.702 183.694 433.702C183.775 433.727 183.651 433.682 183.351 433.582M184.222 433.933C184.218 433.932 184.16 433.911 184.063 433.877M184.222 433.933C184.294 433.967 184.374 434.004 184.459 434.045M182.877 433.424L184.063 433.877M182.877 433.424C182.952 433.449 183.022 433.472 183.088 433.494M183.351 433.582L184.459 434.045M183.351 433.582C183.275 433.556 183.187 433.527 183.088 433.494M184.459 434.045C184.541 434.084 184.629 434.126 184.723 434.172M183.088 433.494L184.723 434.172" stroke="#F15B2C" stroke-width="2.06116"/>
<path d="M158.638 444.788L166.745 443.487L174.788 441.747L175.871 445.652H177.752H179.054V441.747V445.117M179.054 448.488V445.117M179.054 445.117L181.233 446.67L182.393 447.469C183.14 447.057 184.679 446.32 184.854 446.67C185.074 447.109 187.033 448.423 186.814 449.648" stroke="#F15B2C" stroke-width="0.953803"/>
<path d="M154.507 449.792C153.994 451.251 154.138 453.712 154.507 456.121C155.613 456.483 157.966 456.99 158.532 456.121C158.787 454.375 158.81 452.467 158.712 450.706C158.711 450.69 158.71 450.674 158.709 450.658C158.603 449.356 155.875 449.536 154.507 449.792Z" fill="#F15B2C"/>
<path d="M154.507 449.792C155.475 447.039 157.402 446.494 158.244 446.566C158.44 447.669 158.621 449.105 158.709 450.658M154.507 449.792C153.994 451.251 154.138 453.712 154.507 456.121M154.507 449.792C155.875 449.536 158.603 449.356 158.709 450.658M154.507 456.121C154.834 458.257 155.338 460.353 155.717 461.675C157.339 460.745 158.169 458.597 158.532 456.121M154.507 456.121C155.613 456.483 157.966 456.99 158.532 456.121M158.532 456.121C158.787 454.375 158.81 452.467 158.712 450.706M158.712 450.706C158.711 450.69 158.71 450.674 158.709 450.658M158.712 450.706C158.712 450.69 158.711 450.674 158.709 450.658" stroke="#F15B2C" stroke-width="0.687052"/>
<path d="M154.442 440.563C153.853 439.133 153.868 436.669 154.11 434.243C155.196 433.824 157.519 433.195 158.129 434.033C158.476 435.762 158.598 437.667 158.593 439.431C158.593 439.447 158.593 439.463 158.593 439.479C158.555 440.785 155.821 440.748 154.442 440.563Z" fill="#F15B2C"/>
<path d="M154.442 440.563C155.552 443.262 157.505 443.705 158.342 443.59C158.481 442.478 158.586 441.035 158.593 439.479M154.442 440.563C153.853 439.133 153.868 436.669 154.11 434.243M154.442 440.563C155.821 440.748 158.555 440.785 158.593 439.479M154.11 434.243C154.325 432.093 154.719 429.974 155.028 428.633C156.696 429.478 157.638 431.579 158.129 434.033M154.11 434.243C155.196 433.824 157.519 433.195 158.129 434.033M158.129 434.033C158.476 435.762 158.598 437.667 158.593 439.431M158.593 439.431C158.593 439.447 158.593 439.463 158.593 439.479M158.593 439.431C158.593 439.447 158.593 439.463 158.593 439.479" stroke="#F15B2C" stroke-width="0.687052"/>
<path d="M182.78 342.392C192.414 336.042 214.229 323.172 224.415 322.492C234.602 321.811 247.059 323.91 252.015 325.044C264.336 320.514 289.657 311.375 292.37 311.053C295.761 310.65 330.188 314.03 332.725 319.537C334.756 323.942 333.571 359.756 332.725 377.112L294.244 369.339C288.511 367.522 275.14 360.256 262.223 357.212C246.077 353.406 242.932 352.506 238.983 358.195C236.154 362.271 234.787 369.324 225.791 367.522C215.144 365.389 213.366 353.003 208.269 354.257C204.19 355.26 192.421 356.644 187.047 357.212L182.78 342.392Z" fill="#F15B2C" stroke="black" stroke-width="2.06116"/>
<path d="M152.567 331.011C152.567 331.011 127.939 336.628 129.653 352.818C131.367 369.008 144.807 367.147 152.567 368.112C159.778 369.008 172.764 365.256 177.671 363.709C178.107 363.571 178.479 363.451 178.778 363.353C178.853 363.328 178.924 363.305 178.989 363.284C179.088 363.251 179.176 363.221 179.253 363.196C179.552 363.095 179.677 363.05 179.596 363.075C179.596 363.075 179.788 362.998 180.123 362.844C180.196 362.81 180.275 362.773 180.36 362.733C180.443 362.694 180.531 362.651 180.624 362.605C182.989 361.443 188.726 358.137 190.222 352.818C192.121 346.068 189.558 335.821 176.036 331.011C162.514 326.201 152.567 331.011 152.567 331.011Z" fill="black"/>
<path d="M177.671 363.709C172.764 365.256 159.778 369.008 152.567 368.112C144.807 367.147 131.367 369.008 129.653 352.818C127.939 336.628 152.567 331.011 152.567 331.011C152.567 331.011 162.514 326.201 176.036 331.011C189.558 335.821 192.121 346.068 190.222 352.818C188.726 358.137 182.989 361.443 180.624 362.605M177.671 363.709C178.107 363.571 178.479 363.451 178.778 363.353M177.671 363.709C178.331 363.477 179.534 363.053 179.965 362.901M180.123 362.844C179.788 362.998 179.596 363.075 179.596 363.075C179.677 363.05 179.552 363.095 179.253 363.196M180.123 362.844C180.119 362.846 180.061 362.866 179.965 362.901M180.123 362.844C180.196 362.81 180.275 362.773 180.36 362.733M178.778 363.353L179.965 362.901M178.778 363.353C178.853 363.328 178.924 363.305 178.989 363.284M179.253 363.196L180.36 362.733M179.253 363.196C179.176 363.221 179.088 363.251 178.989 363.284M180.36 362.733C180.443 362.694 180.531 362.651 180.624 362.605M178.989 363.284L180.624 362.605" stroke="#0B8400" stroke-width="1.9513"/>
<path d="M152.463 330.968C152.463 330.968 127.835 336.585 129.549 352.775C131.263 368.966 144.703 367.105 152.463 368.069C159.674 368.965 172.66 365.213 177.567 363.666C178.003 363.528 178.375 363.408 178.674 363.31C178.749 363.286 178.82 363.263 178.885 363.241C178.984 363.208 179.072 363.179 179.149 363.153C179.448 363.052 179.573 363.007 179.492 363.033C179.492 363.033 179.684 362.955 180.019 362.801C180.092 362.768 180.171 362.731 180.256 362.69C180.339 362.651 180.427 362.608 180.52 362.563C182.885 361.4 188.622 358.095 190.118 352.775C192.017 346.025 189.454 335.778 175.932 330.968C162.41 326.159 152.463 330.968 152.463 330.968Z" fill="#F15B2C"/>
<path d="M177.567 363.666C172.66 365.213 159.674 368.965 152.463 368.069C144.703 367.105 131.263 368.966 129.549 352.775C127.835 336.585 152.463 330.968 152.463 330.968C152.463 330.968 162.41 326.159 175.932 330.968C189.454 335.778 192.017 346.025 190.118 352.775C188.622 358.095 182.885 361.4 180.52 362.563M177.567 363.666C178.003 363.528 178.375 363.408 178.674 363.31M177.567 363.666C178.227 363.434 179.43 363.011 179.861 362.858M180.019 362.801C179.684 362.955 179.492 363.033 179.492 363.033C179.573 363.007 179.448 363.052 179.149 363.153M180.019 362.801C180.015 362.803 179.957 362.824 179.861 362.858M180.019 362.801C180.092 362.768 180.171 362.731 180.256 362.69M178.674 363.31L179.861 362.858M178.674 363.31C178.749 363.286 178.82 363.263 178.885 363.241M179.149 363.153L180.256 362.69M179.149 363.153C179.072 363.179 178.984 363.208 178.885 363.241M180.256 362.69C180.339 362.651 180.427 362.608 180.52 362.563M178.885 363.241L180.52 362.563" stroke="black" stroke-width="2.06116"/>
<path d="M154.437 351.95L162.544 353.251L170.587 354.991L171.67 351.086H173.552H174.854V354.991V351.621M174.854 348.25V351.621M174.854 351.621L177.032 350.068L178.192 349.269C178.939 349.681 180.478 350.418 180.654 350.068C180.873 349.63 182.832 348.315 182.613 347.09" stroke="black" stroke-width="0.953803"/>
<path d="M150.304 346.95C149.791 345.491 149.935 343.031 150.304 340.622C151.41 340.26 153.763 339.753 154.329 340.622C154.584 342.367 154.607 344.276 154.509 346.036C154.508 346.052 154.507 346.068 154.506 346.084C154.4 347.387 151.672 347.207 150.304 346.95Z" fill="black"/>
<path d="M150.304 346.95C151.272 349.703 153.199 350.248 154.041 350.177C154.237 349.074 154.418 347.638 154.506 346.084M150.304 346.95C149.791 345.491 149.935 343.031 150.304 340.622M150.304 346.95C151.672 347.207 154.4 347.387 154.506 346.084M150.304 340.622C150.631 338.486 151.135 336.39 151.514 335.067C153.135 335.998 153.966 338.146 154.329 340.622M150.304 340.622C151.41 340.26 153.763 339.753 154.329 340.622M154.329 340.622C154.584 342.367 154.607 344.276 154.509 346.036M154.509 346.036C154.508 346.052 154.507 346.068 154.506 346.084M154.509 346.036C154.509 346.053 154.508 346.069 154.506 346.084" stroke="black" stroke-width="0.687052"/>
<path d="M150.239 356.177C149.65 357.607 149.666 360.071 149.908 362.497C150.993 362.916 153.316 363.545 153.927 362.707C154.273 360.977 154.396 359.073 154.39 357.309C154.39 357.293 154.39 357.277 154.39 357.261C154.352 355.955 151.618 355.992 150.239 356.177Z" fill="black"/>
<path d="M150.239 356.177C151.35 353.478 153.302 353.035 154.14 353.15C154.278 354.262 154.384 355.705 154.39 357.261M150.239 356.177C149.65 357.607 149.666 360.071 149.908 362.497M150.239 356.177C151.618 355.992 154.352 355.955 154.39 357.261M149.908 362.497C150.123 364.647 150.516 366.766 150.825 368.107C152.493 367.262 153.435 365.161 153.927 362.707M149.908 362.497C150.993 362.916 153.316 363.545 153.927 362.707M153.927 362.707C154.273 360.977 154.396 359.073 154.39 357.309M154.39 357.309C154.39 357.293 154.39 357.277 154.39 357.261M154.39 357.309C154.391 357.293 154.391 357.277 154.39 357.261" stroke="black" stroke-width="0.687052"/>
<path d="M187.948 68.5519C180.641 83.7156 143.368 94.6277 125.578 98.4927L49.4819 98.7971L11.4338 98.9493L-26.6142 99.1016C-55.7608 80.606 -78.9835 34.5191 -49.837 10.9847C-20.6904 -12.5496 -2.41595 -12.8416 17.4146 -9.70805C35.1759 -6.90145 101.223 -6.94853 137.729 -4.14241C171.509 1.04626 185.283 11.1324 187.948 15.5269C198.14 33.0784 197.081 49.5974 187.948 68.5519Z" fill="#1F2EB2" stroke="#F15B2C" stroke-width="2.06928"/>
<path d="M120.454 43.9068C110.801 37.5236 88.9418 24.5862 78.7347 23.9022C68.5276 23.2181 56.0448 25.3273 51.0793 26.4674C38.733 21.9144 13.3608 12.7275 10.6425 12.4035C7.24467 11.9984 -27.2515 15.3963 -29.7943 20.9319C-31.8285 25.3603 -30.6418 61.3611 -29.7943 78.808L8.76531 70.994C14.5099 69.1673 27.907 61.8637 40.8504 58.8034C57.0296 54.978 60.1804 54.0735 64.137 59.7918C66.9723 63.8897 68.3416 70.9792 77.3564 69.1673C88.0249 67.023 89.8059 54.5729 94.9139 55.833C99.0003 56.8411 110.793 58.2333 116.179 58.8034L120.454 43.9068Z" fill="black" stroke="#F15B2C" stroke-width="2.06928"/>
<path d="M151.057 32.439C151.057 32.439 175.783 38.0777 174.062 54.3321C172.341 70.5864 158.848 68.718 151.057 69.6863C143.819 70.5859 130.782 66.8191 125.855 65.2656C125.417 65.1275 125.043 65.0069 124.743 64.9086C124.668 64.8839 124.597 64.8607 124.531 64.8389C124.432 64.806 124.344 64.7765 124.267 64.7506C123.966 64.6497 123.841 64.6043 123.923 64.63C123.923 64.63 123.729 64.5522 123.393 64.3975C123.32 64.3639 123.241 64.3267 123.155 64.2859C123.072 64.2466 122.984 64.2039 122.89 64.1579C120.516 62.991 114.756 59.6725 113.254 54.3321C111.348 47.555 113.921 37.2677 127.496 32.439C141.072 27.6104 151.057 32.439 151.057 32.439Z" fill="black"/>
<path d="M125.855 65.2656C130.782 66.8191 143.819 70.5859 151.057 69.6863C158.848 68.718 172.341 70.5864 174.062 54.3321C175.783 38.0777 151.057 32.439 151.057 32.439C151.057 32.439 141.072 27.6104 127.496 32.439C113.921 37.2677 111.348 47.555 113.254 54.3321C114.756 59.6725 120.516 62.991 122.89 64.1579M125.855 65.2656C125.417 65.1275 125.043 65.0069 124.743 64.9086M125.855 65.2656C125.192 65.0326 123.984 64.6077 123.552 64.4544M123.393 64.3975C123.729 64.5522 123.923 64.63 123.923 64.63C123.841 64.6043 123.966 64.6497 124.267 64.7506M123.393 64.3975C123.397 64.3993 123.455 64.42 123.552 64.4544M123.393 64.3975C123.32 64.3639 123.241 64.3267 123.155 64.2859M124.743 64.9086L123.552 64.4544M124.743 64.9086C124.668 64.8839 124.597 64.8607 124.531 64.8389M124.267 64.7506L123.155 64.2859M124.267 64.7506C124.344 64.7765 124.432 64.806 124.531 64.8389M123.155 64.2859C123.072 64.2466 122.984 64.2039 122.89 64.1579M124.531 64.8389L122.89 64.1579" stroke="#0B8400" stroke-width="1.95899"/>
<path d="M151.163 32.4007C151.163 32.4007 175.889 38.0394 174.168 54.2937C172.447 70.548 158.954 68.6797 151.163 69.648C143.925 70.5476 130.887 66.7808 125.961 65.2273C125.523 65.0892 125.149 64.9686 124.849 64.8703C124.774 64.8456 124.703 64.8223 124.637 64.8005C124.538 64.7677 124.45 64.7382 124.373 64.7123C124.072 64.6114 123.947 64.5659 124.028 64.5916C124.028 64.5916 123.835 64.5139 123.499 64.3592C123.426 64.3256 123.347 64.2884 123.261 64.2476C123.178 64.2083 123.09 64.1656 122.996 64.1195C120.622 62.9526 114.862 59.6342 113.36 54.2937C111.454 47.5167 114.027 37.2293 127.602 32.4007C141.178 27.5721 151.163 32.4007 151.163 32.4007Z" fill="black"/>
<path d="M125.961 65.2273C130.887 66.7808 143.925 70.5476 151.163 69.648C158.954 68.6797 172.447 70.548 174.168 54.2937C175.889 38.0394 151.163 32.4007 151.163 32.4007C151.163 32.4007 141.178 27.5721 127.602 32.4007C114.027 37.2293 111.454 47.5167 113.36 54.2937C114.862 59.6342 120.622 62.9526 122.996 64.1195M125.961 65.2273C125.523 65.0892 125.149 64.9686 124.849 64.8703M125.961 65.2273C125.298 64.9943 124.09 64.5694 123.658 64.4161M123.499 64.3592C123.835 64.5139 124.028 64.5916 124.028 64.5916C123.947 64.5659 124.072 64.6114 124.373 64.7123M123.499 64.3592C123.503 64.3609 123.561 64.3817 123.658 64.4161M123.499 64.3592C123.426 64.3256 123.347 64.2884 123.261 64.2476M124.849 64.8703L123.658 64.4161M124.849 64.8703C124.774 64.8456 124.703 64.8223 124.637 64.8005M124.373 64.7123L123.261 64.2476M124.373 64.7123C124.45 64.7382 124.538 64.7677 124.637 64.8005M123.261 64.2476C123.178 64.2083 123.09 64.1656 122.996 64.1195M124.637 64.8005L122.996 64.1195" stroke="#F15B2C" stroke-width="2.06928"/>
<path d="M149.182 53.4594L141.043 54.7664L132.968 56.5133L131.881 52.5925H129.992H128.685V56.5133V53.1295M128.685 49.7457V53.1295M128.685 53.1295L126.498 51.5702L125.334 50.7679C124.583 51.182 123.038 51.9222 122.862 51.5702C122.642 51.1302 120.675 49.8104 120.895 48.5811" stroke="#F15B2C" stroke-width="0.957562"/>
<path d="M153.331 48.4403C153.846 46.9754 153.701 44.5054 153.331 42.0867C152.221 41.7232 149.858 41.2143 149.29 42.0867C149.034 43.8391 149.011 45.7552 149.109 47.5227C149.11 47.5388 149.111 47.5549 149.112 47.571C149.218 48.8786 151.958 48.6981 153.331 48.4403Z" fill="#F15B2C"/>
<path d="M153.331 48.4403C152.359 51.2042 150.425 51.7512 149.579 51.6792C149.382 50.5722 149.2 49.1308 149.112 47.571M153.331 48.4403C153.846 46.9754 153.701 44.5054 153.331 42.0867M153.331 48.4403C151.958 48.6981 149.218 48.8786 149.112 47.571M153.331 42.0867C153.002 39.9423 152.497 37.8381 152.116 36.5105C150.488 37.4447 149.654 39.6009 149.29 42.0867M153.331 42.0867C152.221 41.7232 149.858 41.2143 149.29 42.0867M149.29 42.0867C149.034 43.8391 149.011 45.7552 149.109 47.5227M149.109 47.5227C149.11 47.5388 149.111 47.5549 149.112 47.571M149.109 47.5227C149.11 47.539 149.111 47.5551 149.112 47.571" stroke="#F15B2C" stroke-width="0.68976"/>
<path d="M153.397 57.7048C153.988 59.1408 153.973 61.615 153.729 64.0498C152.64 64.4708 150.307 65.1027 149.695 64.2612C149.347 62.5247 149.224 60.6123 149.229 58.8422C149.229 58.826 149.229 58.8099 149.229 58.7938C149.267 57.4824 152.012 57.5192 153.397 57.7048Z" fill="#F15B2C"/>
<path d="M153.397 57.7048C152.282 54.9956 150.322 54.5506 149.481 54.6667C149.342 55.7826 149.236 57.2315 149.229 58.7938M153.397 57.7048C153.988 59.1408 153.973 61.615 153.729 64.0498M153.397 57.7048C152.012 57.5192 149.267 57.4824 149.229 58.7938M153.729 64.0498C153.514 66.2085 153.119 68.3362 152.808 69.6819C151.134 68.8342 150.188 66.7246 149.695 64.2612M153.729 64.0498C152.64 64.4708 150.307 65.1027 149.695 64.2612M149.695 64.2612C149.347 62.5247 149.224 60.6123 149.229 58.8422M149.229 58.8422C149.229 58.826 149.229 58.8099 149.229 58.7938M149.229 58.8422C149.229 58.8259 149.229 58.8097 149.229 58.7938" stroke="#F15B2C" stroke-width="0.68976"/>
<path d="M120.885 165.973C111.231 172.357 89.3724 185.294 79.1654 185.978C68.9583 186.662 56.4755 184.553 51.5099 183.413C39.1637 187.966 13.7915 197.153 11.0732 197.477C7.67533 197.882 -26.8208 194.484 -29.3636 188.948C-31.3978 184.52 -30.2112 148.519 -29.3636 131.072L9.19598 138.886C14.9406 140.713 28.3377 148.016 41.281 151.077C57.4602 154.902 60.611 155.807 64.5676 150.088C67.403 145.99 68.7723 138.901 77.787 140.713C88.4556 142.857 90.2365 155.307 95.3446 154.047C99.431 153.039 111.224 151.647 116.609 151.077L120.885 165.973Z" fill="#F15B2C" stroke="black" stroke-width="2.06928"/>
<path d="M151.494 177.445C151.494 177.445 176.219 171.806 174.499 155.552C172.778 139.298 159.284 141.166 151.494 140.198C144.255 139.298 131.218 143.065 126.292 144.618C125.854 144.757 125.48 144.877 125.18 144.975C125.104 145 125.034 145.023 124.968 145.045C124.869 145.078 124.78 145.108 124.703 145.133C124.403 145.234 124.278 145.28 124.359 145.254C124.359 145.254 124.165 145.332 123.83 145.487C123.757 145.52 123.677 145.557 123.591 145.598C123.509 145.637 123.42 145.68 123.327 145.726C120.952 146.893 115.193 150.212 113.691 155.552C111.785 162.329 114.358 172.616 127.933 177.445C141.508 182.274 151.494 177.445 151.494 177.445Z" fill="#F15B2C"/>
<path d="M126.292 144.618C131.218 143.065 144.255 139.298 151.494 140.198C159.284 141.166 172.778 139.298 174.499 155.552C176.219 171.806 151.494 177.445 151.494 177.445C151.494 177.445 141.508 182.274 127.933 177.445C114.358 172.616 111.785 162.329 113.691 155.552C115.193 150.212 120.952 146.893 123.327 145.726M126.292 144.618C125.854 144.757 125.48 144.877 125.18 144.975M126.292 144.618C125.629 144.851 124.421 145.276 123.988 145.43M123.83 145.487C124.165 145.332 124.359 145.254 124.359 145.254C124.278 145.28 124.403 145.234 124.703 145.133M123.83 145.487C123.833 145.485 123.891 145.464 123.988 145.43M123.83 145.487C123.757 145.52 123.677 145.557 123.591 145.598M125.18 144.975L123.988 145.43M125.18 144.975C125.104 145 125.034 145.023 124.968 145.045M124.703 145.133L123.591 145.598M124.703 145.133C124.78 145.108 124.869 145.078 124.968 145.045M123.591 145.598C123.509 145.637 123.42 145.68 123.327 145.726M124.968 145.045L123.327 145.726" stroke="black" stroke-width="1.95899"/>
<path d="M149.613 156.42L141.474 155.113L133.399 153.366L132.312 157.287H130.423H129.116V153.366V156.75M129.116 160.133V156.75M129.116 156.75L126.929 158.309L125.765 159.111C125.014 158.697 123.469 157.957 123.293 158.309C123.073 158.749 121.106 160.069 121.326 161.298" stroke="black" stroke-width="0.957562"/>
<path d="M153.761 161.443C154.276 162.908 154.131 165.378 153.761 167.796C152.651 168.16 150.289 168.669 149.721 167.796C149.464 166.044 149.442 164.128 149.539 162.36C149.54 162.344 149.541 162.328 149.542 162.312C149.649 161.004 152.388 161.185 153.761 161.443Z" fill="black"/>
<path d="M153.761 161.443C152.789 158.679 150.855 158.132 150.009 158.204C149.812 159.311 149.631 160.752 149.542 162.312M153.761 161.443C154.276 162.908 154.131 165.378 153.761 167.796M153.761 161.443C152.388 161.185 149.649 161.004 149.542 162.312M153.761 167.796C153.433 169.941 152.927 172.045 152.546 173.373C150.919 172.438 150.084 170.282 149.721 167.796M153.761 167.796C152.651 168.16 150.289 168.669 149.721 167.796M149.721 167.796C149.464 166.044 149.442 164.128 149.539 162.36M149.539 162.36C149.54 162.344 149.541 162.328 149.542 162.312M149.539 162.36C149.54 162.344 149.541 162.328 149.542 162.312" stroke="black" stroke-width="0.68976"/>
<path d="M153.829 152.176C154.42 150.74 154.405 148.265 154.162 145.831C153.072 145.41 150.74 144.778 150.127 145.619C149.779 147.356 149.657 149.268 149.662 151.038C149.662 151.054 149.662 151.07 149.662 151.087C149.7 152.398 152.445 152.361 153.829 152.176Z" fill="black"/>
<path d="M153.829 152.176C152.715 154.885 150.754 155.33 149.913 155.214C149.775 154.098 149.669 152.649 149.662 151.087M153.829 152.176C154.42 150.74 154.405 148.265 154.162 145.831M153.829 152.176C152.445 152.361 149.7 152.398 149.662 151.087M154.162 145.831C153.946 143.672 153.551 141.544 153.241 140.198C151.566 141.046 150.621 143.156 150.127 145.619M154.162 145.831C153.072 145.41 150.74 144.778 150.127 145.619M150.127 145.619C149.779 147.356 149.657 149.268 149.662 151.038M149.662 151.038C149.662 151.054 149.662 151.07 149.662 151.087M149.662 151.038C149.661 151.055 149.661 151.071 149.662 151.087" stroke="black" stroke-width="0.68976"/>
<path d="M17.3001 258.517H15.4493C15.4493 258.918 15.4446 259.313 15.4352 259.701C15.4258 260.089 15.4058 260.457 15.3752 260.805C15.3447 261.15 15.2988 261.468 15.2377 261.76C15.1766 262.051 15.0932 262.304 14.9874 262.518C14.8817 262.729 14.7501 262.895 14.5926 263.015C14.4375 263.132 14.2483 263.191 14.025 263.191C13.9568 263.191 13.8992 263.185 13.8522 263.174C13.8076 263.162 13.7582 263.149 13.7042 263.135V262.493C13.73 262.505 13.7618 262.516 13.7994 262.525C13.8393 262.532 13.8957 262.536 13.9686 262.536C14.0767 262.536 14.1695 262.497 14.2471 262.419C14.327 262.339 14.3952 262.229 14.4516 262.088C14.508 261.947 14.5538 261.78 14.5891 261.587C14.6267 261.392 14.656 261.181 14.6772 260.953C14.7007 260.725 14.7171 260.484 14.7265 260.23C14.7383 259.976 14.7465 259.719 14.7512 259.458C14.7583 259.195 14.7618 258.933 14.7618 258.672C14.7642 258.408 14.7677 258.155 14.7724 257.91H17.9946V263.093H17.3001V258.517ZM19.0664 257.91H22.8492V258.517H19.7573V260.117H22.6094V260.723H19.7573V262.486H22.8985V263.093H19.0664V257.91ZM23.8821 257.91H24.5731V260.434L27.1008 257.91H28.0668L25.9092 260.001L28.1267 263.093H27.2383L25.4122 260.48L24.5731 261.288V263.093H23.8821V257.91ZM28.6979 257.91H29.3888V262.486H32.1457V257.91H32.8402V262.486H33.3726V264.203H32.7239V263.093H28.6979V257.91ZM33.986 257.91H34.677V262.102H34.6911L37.3281 257.91H38.1284V263.093H37.4339V258.876H37.4198L34.7863 263.093H33.986V257.91ZM43.2896 263.093H42.5951V260.889H41.3048C41.1615 260.889 41.0404 260.891 40.9417 260.896C40.8453 260.899 40.7619 260.906 40.6914 260.917C40.6232 260.927 40.5645 260.941 40.5151 260.96C40.4681 260.976 40.4223 260.998 40.3776 261.027C40.3236 261.062 40.2766 261.102 40.2366 261.146C40.1967 261.189 40.1614 261.243 40.1309 261.309C40.1027 261.374 40.0791 261.456 40.0603 261.552C40.0415 261.648 40.0274 261.767 40.018 261.908L39.9828 262.472C39.9781 262.54 39.9722 262.602 39.9652 262.659C39.9581 262.713 39.9487 262.763 39.937 262.81C39.9252 262.858 39.9111 262.905 39.8946 262.952C39.8805 262.996 39.8617 263.043 39.8382 263.093H39.0415C39.0697 263.062 39.0967 263.028 39.1226 262.99C39.1484 262.953 39.1719 262.908 39.1931 262.856C39.2142 262.802 39.233 262.739 39.2495 262.666C39.2659 262.593 39.2789 262.506 39.2883 262.405L39.3482 261.7C39.3576 261.582 39.3717 261.47 39.3905 261.362C39.4093 261.253 39.4434 261.152 39.4927 261.058C39.5421 260.964 39.6138 260.88 39.7078 260.805C39.8042 260.729 39.9346 260.667 40.0991 260.618C40.0239 260.589 39.9358 260.552 39.8347 260.505C39.7337 260.458 39.6361 260.389 39.5421 260.297C39.4504 260.205 39.3717 260.085 39.3059 259.937C39.2424 259.787 39.2107 259.596 39.2107 259.366C39.2107 259.202 39.2295 259.052 39.2671 258.918C39.3047 258.784 39.3541 258.666 39.4152 258.562C39.4763 258.457 39.5456 258.367 39.6232 258.294C39.7031 258.219 39.7842 258.158 39.8664 258.111C39.9534 258.062 40.0533 258.023 40.1661 257.995C40.2813 257.967 40.3976 257.947 40.5151 257.935C40.6326 257.923 40.7455 257.916 40.8536 257.914C40.964 257.911 41.0604 257.91 41.1427 257.91H43.2896V263.093ZM42.5951 258.524H41.0087C40.9476 258.524 40.8853 258.525 40.8218 258.527C40.7584 258.527 40.6949 258.531 40.6315 258.538C40.568 258.545 40.5069 258.556 40.4481 258.573C40.3894 258.587 40.3353 258.608 40.286 258.636C40.2155 258.676 40.1555 258.726 40.1062 258.784C40.0568 258.843 40.0157 258.908 39.9828 258.978C39.9522 259.049 39.9299 259.122 39.9158 259.197C39.9017 259.272 39.8946 259.346 39.8946 259.419C39.8946 259.468 39.8982 259.524 39.9052 259.585C39.9123 259.643 39.9276 259.706 39.9511 259.772C39.9746 259.835 40.0075 259.898 40.0498 259.962C40.0921 260.023 40.1485 260.079 40.219 260.131C40.2801 260.178 40.3412 260.215 40.4023 260.24C40.4658 260.264 40.5328 260.282 40.6033 260.293C40.6738 260.303 40.749 260.307 40.8289 260.307C40.9112 260.307 41.0016 260.306 41.1003 260.304H42.5951V258.524Z" fill="#E8E7E5"/>
<path d="M15.6836 273.209C15.0866 273.209 14.653 273.045 14.3827 272.719C14.1148 272.389 13.9808 271.99 13.9808 271.52H14.6436C14.6718 271.847 14.7329 272.084 14.8269 272.232C14.9914 272.498 15.2887 272.63 15.7188 272.63C16.0526 272.63 16.3205 272.541 16.5226 272.362C16.7248 272.184 16.8258 271.953 16.8258 271.671C16.8258 271.324 16.7189 271.08 16.505 270.942C16.2935 270.803 15.9985 270.734 15.6201 270.734C15.5778 270.734 15.5343 270.735 15.4897 270.737C15.4474 270.737 15.4039 270.738 15.3593 270.741V270.18C15.4251 270.187 15.4803 270.192 15.5249 270.194C15.5696 270.197 15.6178 270.198 15.6695 270.198C15.9069 270.198 16.1019 270.16 16.2547 270.085C16.5226 269.953 16.6566 269.718 16.6566 269.38C16.6566 269.128 16.5673 268.935 16.3887 268.798C16.2101 268.662 16.0021 268.594 15.7647 268.594C15.3416 268.594 15.049 268.735 14.8868 269.017C14.7975 269.172 14.747 269.393 14.7352 269.68H14.1077C14.1077 269.304 14.1829 268.984 14.3333 268.721C14.5919 268.251 15.0467 268.016 15.6977 268.016C16.2124 268.016 16.6108 268.131 16.8928 268.361C17.1749 268.589 17.3159 268.92 17.3159 269.355C17.3159 269.665 17.2324 269.917 17.0656 270.11C16.9622 270.23 16.8282 270.324 16.6637 270.392C16.9292 270.465 17.1361 270.606 17.2841 270.815C17.4346 271.022 17.5098 271.275 17.5098 271.576C17.5098 272.058 17.3511 272.451 17.0338 272.754C16.7165 273.057 16.2665 273.209 15.6836 273.209ZM25.0965 270.48C25.0965 270.24 25.0601 270.026 24.9872 269.838C24.9144 269.648 24.8027 269.487 24.6523 269.355C24.5042 269.224 24.315 269.124 24.0847 269.056C23.8544 268.985 23.5829 268.95 23.2703 268.95V272.006C23.5829 272.006 23.8544 271.972 24.0847 271.904C24.315 271.834 24.5042 271.734 24.6523 271.604C24.8027 271.473 24.9144 271.313 24.9872 271.125C25.0601 270.935 25.0965 270.72 25.0965 270.48ZM22.5758 272.599C22.1857 272.599 21.8355 272.554 21.5252 272.465C21.215 272.373 20.9518 272.238 20.7355 272.059C20.5193 271.881 20.3536 271.66 20.2385 271.396C20.1233 271.131 20.0657 270.825 20.0657 270.48C20.0657 270.134 20.1233 269.83 20.2385 269.567C20.3536 269.301 20.5193 269.079 20.7355 268.9C20.9518 268.722 21.215 268.588 21.5252 268.499C21.8355 268.407 22.1857 268.361 22.5758 268.361V267.783H23.2703V268.361C23.6605 268.361 24.0107 268.407 24.3209 268.499C24.6312 268.588 24.8944 268.722 25.1106 268.9C25.3268 269.079 25.4925 269.301 25.6077 269.567C25.7252 269.83 25.784 270.134 25.784 270.48C25.784 270.825 25.7252 271.131 25.6077 271.396C25.4925 271.66 25.3268 271.881 25.1106 272.059C24.8944 272.238 24.6312 272.373 24.3209 272.465C24.0107 272.554 23.6605 272.599 23.2703 272.599V273.177H22.5758V272.599ZM20.7496 270.48C20.7496 270.72 20.7861 270.935 20.8589 271.125C20.9318 271.313 21.0423 271.473 21.1903 271.604C21.3407 271.734 21.5299 271.834 21.7579 271.904C21.9883 271.972 22.2609 272.006 22.5758 272.006V268.95C22.2609 268.95 21.9883 268.985 21.7579 269.056C21.5299 269.124 21.3407 269.224 21.1903 269.355C21.0423 269.487 20.9318 269.648 20.8589 269.838C20.7861 270.026 20.7496 270.24 20.7496 270.48ZM26.549 267.889H30.3318V268.495H27.24V270.096H30.0921V270.702H27.24V272.465H30.3811V273.071H26.549V267.889ZM31.3647 267.889H33.2191C33.4236 267.889 33.6022 267.895 33.755 267.906C33.9078 267.916 34.0511 267.938 34.1851 267.973C34.312 268.009 34.4307 268.06 34.5412 268.128C34.654 268.194 34.7527 268.279 34.8373 268.382C34.9219 268.483 34.9877 268.602 35.0347 268.738C35.0841 268.872 35.1088 269.024 35.1088 269.193C35.1088 269.282 35.097 269.379 35.0735 269.482C35.05 269.586 35.0112 269.688 34.9572 269.789C34.9031 269.888 34.8314 269.98 34.7421 270.067C34.6551 270.152 34.547 270.221 34.4178 270.275C34.5235 270.311 34.6316 270.36 34.7421 270.423C34.8526 270.487 34.9525 270.569 35.0418 270.67C35.1334 270.769 35.2086 270.89 35.2674 271.033C35.3262 271.174 35.3555 271.344 35.3555 271.541C35.3555 271.654 35.3414 271.771 35.3132 271.894C35.2874 272.013 35.2439 272.13 35.1828 272.243C35.124 272.355 35.0476 272.462 34.9536 272.563C34.8596 272.664 34.7456 272.753 34.6117 272.828C34.4777 272.903 34.3226 272.963 34.1463 273.008C33.9724 273.05 33.7738 273.071 33.5505 273.071H31.3647V267.889ZM33.4483 272.465C33.6739 272.465 33.8631 272.444 34.0159 272.401C34.171 272.357 34.2956 272.295 34.3896 272.218C34.4859 272.138 34.5553 272.043 34.5976 271.932C34.6399 271.822 34.661 271.698 34.661 271.562C34.661 271.426 34.6399 271.302 34.5976 271.192C34.5553 271.082 34.4859 270.988 34.3896 270.91C34.2956 270.83 34.171 270.769 34.0159 270.727C33.8631 270.682 33.6739 270.66 33.4483 270.66H32.0557V272.465H33.4483ZM33.3496 270.096C33.5775 270.096 33.7609 270.074 33.8995 270.032C34.0405 269.987 34.1487 269.929 34.2239 269.856C34.3014 269.781 34.3531 269.693 34.379 269.591C34.4048 269.49 34.4178 269.382 34.4178 269.267C34.4178 269.145 34.399 269.037 34.3614 268.943C34.3261 268.846 34.2662 268.765 34.1816 268.7C34.097 268.634 33.9865 268.583 33.8502 268.548C33.7139 268.513 33.547 268.495 33.3496 268.495H32.0557V270.096H33.3496ZM38.2887 270.314C38.6553 270.314 38.9198 270.237 39.0819 270.081C39.2441 269.926 39.3252 269.701 39.3252 269.405C39.3252 269.108 39.2441 268.883 39.0819 268.728C38.9198 268.573 38.6553 268.495 38.2887 268.495H36.8715V270.314H38.2887ZM36.1805 267.889H38.3592C38.6436 267.889 38.8892 267.925 39.096 267.998C39.3052 268.071 39.4779 268.174 39.6143 268.308C39.7506 268.44 39.8516 268.598 39.9175 268.784C39.9856 268.97 40.0197 269.177 40.0197 269.405C40.0197 269.633 39.9856 269.839 39.9175 270.025C39.8516 270.211 39.7506 270.371 39.6143 270.505C39.4779 270.636 39.3052 270.738 39.096 270.811C38.8892 270.884 38.6436 270.921 38.3592 270.921H36.8715V273.071H36.1805V267.889ZM43.739 270.935L42.9493 268.629L42.075 270.935H43.739ZM40.5873 273.071L42.5298 267.808H43.3724L45.2514 273.071H44.4829L43.9365 271.485H41.8987L41.3206 273.071H40.5873ZM49.0871 268.495H47.2363C47.2363 268.897 47.2316 269.292 47.2222 269.68C47.2128 270.067 47.1928 270.435 47.1622 270.783C47.1317 271.129 47.0858 271.447 47.0247 271.738C46.9636 272.03 46.8802 272.283 46.7744 272.496C46.6687 272.708 46.5371 272.874 46.3796 272.993C46.2245 273.111 46.0353 273.17 45.812 273.17C45.7438 273.17 45.6862 273.164 45.6392 273.152C45.5946 273.14 45.5452 273.127 45.4912 273.113V272.472C45.517 272.483 45.5488 272.494 45.5864 272.503C45.6263 272.511 45.6827 272.514 45.7556 272.514C45.8637 272.514 45.9565 272.475 46.0341 272.398C46.114 272.318 46.1822 272.207 46.2386 272.066C46.295 271.925 46.3408 271.758 46.3761 271.566C46.4137 271.371 46.443 271.159 46.4642 270.931C46.4877 270.703 46.5041 270.462 46.5135 270.208C46.5253 269.955 46.5335 269.697 46.5382 269.436C46.5453 269.173 46.5488 268.911 46.5488 268.65C46.5512 268.387 46.5547 268.133 46.5594 267.889H49.7816V273.071H49.0871V268.495ZM54.9393 273.071H54.2448V270.868H52.9545C52.8112 270.868 52.6901 270.87 52.5914 270.875C52.495 270.877 52.4116 270.884 52.3411 270.896C52.2729 270.905 52.2142 270.919 52.1648 270.938C52.1178 270.955 52.072 270.977 52.0273 271.005C51.9733 271.04 51.9263 271.08 51.8863 271.125C51.8464 271.167 51.8111 271.221 51.7806 271.287C51.7523 271.353 51.7288 271.434 51.71 271.53C51.6912 271.627 51.6771 271.745 51.6677 271.886L51.6325 272.451C51.6278 272.519 51.6219 272.581 51.6149 272.637C51.6078 272.691 51.5984 272.742 51.5867 272.789C51.5749 272.836 51.5608 272.883 51.5443 272.93C51.5302 272.975 51.5114 273.022 51.4879 273.071H50.6912C50.7194 273.04 50.7464 273.006 50.7723 272.969C50.7981 272.931 50.8216 272.887 50.8428 272.835C50.8639 272.781 50.8827 272.717 50.8992 272.644C50.9156 272.572 50.9286 272.485 50.938 272.384L50.9979 271.678C51.0073 271.561 51.0214 271.448 51.0402 271.34C51.059 271.232 51.0931 271.131 51.1424 271.037C51.1918 270.943 51.2635 270.858 51.3575 270.783C51.4539 270.708 51.5843 270.646 51.7488 270.596C51.6736 270.568 51.5855 270.53 51.4844 270.483C51.3834 270.436 51.2858 270.367 51.1918 270.275C51.1001 270.184 51.0214 270.064 50.9556 269.916C50.8921 269.765 50.8604 269.575 50.8604 269.345C50.8604 269.18 50.8792 269.031 50.9168 268.897C50.9544 268.763 51.0038 268.644 51.0649 268.541C51.126 268.435 51.1953 268.346 51.2729 268.273C51.3528 268.198 51.4339 268.137 51.5161 268.09C51.6031 268.04 51.703 268.001 51.8158 267.973C51.931 267.945 52.0473 267.925 52.1648 267.913C52.2823 267.902 52.3952 267.895 52.5033 267.892C52.6137 267.89 52.7101 267.889 52.7924 267.889H54.9393V273.071ZM54.2448 268.502H52.6584C52.5973 268.502 52.535 268.503 52.4715 268.506C52.4081 268.506 52.3446 268.509 52.2812 268.516C52.2177 268.523 52.1566 268.535 52.0978 268.551C52.0391 268.566 51.985 268.587 51.9357 268.615C51.8652 268.655 51.8052 268.704 51.7559 268.763C51.7065 268.822 51.6654 268.886 51.6325 268.957C51.6019 269.027 51.5796 269.1 51.5655 269.175C51.5514 269.251 51.5443 269.325 51.5443 269.398C51.5443 269.447 51.5479 269.502 51.5549 269.563C51.562 269.622 51.5772 269.684 51.6008 269.75C51.6243 269.814 51.6572 269.877 51.6995 269.94C51.7418 270.002 51.7982 270.058 51.8687 270.11C51.9298 270.157 51.9909 270.193 52.052 270.219C52.1155 270.242 52.1825 270.26 52.253 270.272C52.3235 270.281 52.3987 270.286 52.4786 270.286C52.5608 270.286 52.6513 270.285 52.75 270.282H54.2448V268.502ZM58.1792 269.496V269.01C58.6375 268.965 58.9572 268.891 59.1381 268.788C59.3191 268.682 59.4543 268.434 59.5436 268.044H60.0442V273.071H59.3673V269.496H58.1792ZM63.4709 270.138C63.7506 270.138 63.9692 270.06 64.1266 269.905C64.2841 269.748 64.3628 269.561 64.3628 269.345C64.3628 269.157 64.2876 268.984 64.1372 268.826C63.9868 268.669 63.7576 268.59 63.4497 268.59C63.1442 268.59 62.9233 268.669 62.787 268.826C62.6506 268.984 62.5825 269.168 62.5825 269.38C62.5825 269.617 62.6706 269.803 62.8469 269.937C63.0232 270.071 63.2312 270.138 63.4709 270.138ZM63.5097 272.637C63.8035 272.637 64.0467 272.559 64.2394 272.401C64.4345 272.241 64.5321 272.004 64.5321 271.689C64.5321 271.362 64.4322 271.114 64.2324 270.945C64.0326 270.776 63.7764 270.691 63.4639 270.691C63.1607 270.691 62.9127 270.778 62.72 270.952C62.5296 271.124 62.4344 271.362 62.4344 271.668C62.4344 271.931 62.5214 272.159 62.6953 272.352C62.8716 272.542 63.143 272.637 63.5097 272.637ZM62.6072 270.381C62.4309 270.306 62.2934 270.218 62.1947 270.117C62.009 269.929 61.9162 269.684 61.9162 269.383C61.9162 269.007 62.0525 268.684 62.3251 268.414C62.5978 268.144 62.9844 268.009 63.485 268.009C63.9692 268.009 64.3487 268.137 64.6237 268.393C64.8987 268.647 65.0362 268.944 65.0362 269.285C65.0362 269.6 64.9563 269.855 64.7965 270.05C64.7072 270.16 64.5685 270.268 64.3805 270.374C64.5896 270.47 64.7542 270.581 64.874 270.705C65.0973 270.941 65.2089 271.246 65.2089 271.622C65.2089 272.066 65.0597 272.444 64.7612 272.754C64.4627 273.062 64.0408 273.216 63.4956 273.216C63.0044 273.216 62.5884 273.083 62.2476 272.817C61.9091 272.549 61.7399 272.161 61.7399 271.654C61.7399 271.355 61.8128 271.098 61.9585 270.882C62.1042 270.663 62.3204 270.496 62.6072 270.381ZM66.3265 269.345H67.0633V270.113H66.3265V269.345ZM66.3265 272.302H67.0633V273.071H66.3265V272.302ZM69.4888 268.023C70.1422 268.023 70.6146 268.292 70.9061 268.83C71.1317 269.246 71.2445 269.816 71.2445 270.54C71.2445 271.226 71.1423 271.794 70.9378 272.243C70.6416 272.887 70.1575 273.209 69.4853 273.209C68.8789 273.209 68.4277 272.945 68.1315 272.419C67.8848 271.979 67.7614 271.389 67.7614 270.649C67.7614 270.076 67.8354 269.583 67.9835 269.172C68.2608 268.406 68.7626 268.023 69.4888 268.023ZM69.4818 272.63C69.8108 272.63 70.0729 272.485 70.2679 272.193C70.463 271.902 70.5606 271.359 70.5606 270.564C70.5606 269.991 70.49 269.52 70.349 269.151C70.208 268.779 69.9342 268.594 69.5276 268.594C69.1539 268.594 68.8801 268.77 68.7062 269.123C68.5346 269.473 68.4488 269.99 68.4488 270.674C68.4488 271.188 68.5041 271.602 68.6145 271.915C68.7837 272.392 69.0728 272.63 69.4818 272.63ZM73.5078 268.023C74.1612 268.023 74.6336 268.292 74.9251 268.83C75.1507 269.246 75.2635 269.816 75.2635 270.54C75.2635 271.226 75.1613 271.794 74.9568 272.243C74.6606 272.887 74.1765 273.209 73.5043 273.209C72.8979 273.209 72.4467 272.945 72.1505 272.419C71.9038 271.979 71.7804 271.389 71.7804 270.649C71.7804 270.076 71.8544 269.583 72.0025 269.172C72.2798 268.406 72.7816 268.023 73.5078 268.023ZM73.5008 272.63C73.8298 272.63 74.0919 272.485 74.2869 272.193C74.482 271.902 74.5796 271.359 74.5796 270.564C74.5796 269.991 74.5091 269.52 74.368 269.151C74.227 268.779 73.9532 268.594 73.5466 268.594C73.1729 268.594 72.8991 268.77 72.7252 269.123C72.5536 269.473 72.4678 269.99 72.4678 270.674C72.4678 271.188 72.5231 271.602 72.6335 271.915C72.8027 272.392 73.0918 272.63 73.5008 272.63Z" fill="#E8E7E5"/>
<path d="M14.6675 282.354C14.6933 282.375 14.7274 282.398 14.7697 282.421C14.812 282.442 14.8579 282.462 14.9072 282.481C14.9566 282.498 15.0071 282.512 15.0588 282.524C15.1129 282.533 15.1646 282.538 15.2139 282.538C15.3197 282.538 15.4102 282.524 15.4854 282.495C15.5629 282.465 15.6288 282.426 15.6828 282.379C15.7392 282.33 15.7851 282.274 15.8203 282.213C15.8556 282.15 15.8838 282.084 15.9049 282.016L13.7791 277.866H14.5864L16.2998 281.3L17.5971 277.866H18.3798L16.751 281.741C16.6382 281.999 16.5324 282.22 16.4337 282.404C16.3374 282.585 16.2316 282.733 16.1164 282.848C16.0036 282.963 15.8744 283.046 15.7286 283.098C15.5853 283.152 15.4114 283.179 15.2069 283.179C15.1011 283.179 14.9977 283.165 14.8966 283.137C14.7956 283.109 14.718 283.072 14.664 283.028L14.6675 282.354ZM22.1555 278.473H20.3047C20.3047 278.875 20.3 279.27 20.2906 279.657C20.2812 280.045 20.2612 280.413 20.2306 280.761C20.2001 281.106 20.1542 281.425 20.0931 281.716C20.032 282.008 19.9486 282.26 19.8428 282.474C19.7371 282.686 19.6054 282.851 19.448 282.971C19.2929 283.089 19.1037 283.148 18.8804 283.148C18.8122 283.148 18.7546 283.142 18.7076 283.13C18.663 283.118 18.6136 283.105 18.5596 283.091V282.45C18.5854 282.461 18.6172 282.472 18.6548 282.481C18.6947 282.488 18.7511 282.492 18.824 282.492C18.9321 282.492 19.0249 282.453 19.1025 282.375C19.1824 282.296 19.2506 282.185 19.307 282.044C19.3634 281.903 19.4092 281.736 19.4445 281.543C19.4821 281.348 19.5114 281.137 19.5326 280.909C19.5561 280.681 19.5725 280.44 19.5819 280.186C19.5937 279.932 19.6019 279.675 19.6066 279.414C19.6137 279.151 19.6172 278.889 19.6172 278.628C19.6196 278.365 19.6231 278.111 19.6278 277.866H22.85V283.049H22.1555V278.473ZM24.0028 282.28H24.7397V283.049H24.0028V282.28ZM25.4976 277.866H29.7141V278.473H27.9513V283.049H27.2568V278.473H25.4976V277.866ZM30.3451 277.866H34.1279V278.473H31.0361V280.073H33.8882V280.68H31.0361V282.442H34.1773V283.049H30.3451V277.866ZM35.1609 277.866H35.8518V280.003H38.6087V277.866H39.3032V283.049H38.6087V280.609H35.8518V283.049H35.1609V277.866ZM40.3785 277.866H44.1613V278.473H41.0695V280.073H43.9216V280.68H41.0695V282.442H44.2107V283.049H40.3785V277.866ZM45.1943 277.866H47.0486C47.2531 277.866 47.4317 277.872 47.5845 277.884C47.7373 277.893 47.8806 277.916 48.0146 277.951C48.1415 277.986 48.2602 278.038 48.3707 278.106C48.4835 278.172 48.5822 278.257 48.6668 278.36C48.7514 278.461 48.8172 278.58 48.8642 278.716C48.9136 278.85 48.9383 279.002 48.9383 279.171C48.9383 279.26 48.9265 279.357 48.903 279.46C48.8795 279.563 48.8407 279.666 48.7867 279.767C48.7326 279.865 48.6609 279.958 48.5716 280.045C48.4847 280.13 48.3765 280.199 48.2473 280.253C48.353 280.288 48.4612 280.338 48.5716 280.401C48.6821 280.465 48.782 280.547 48.8713 280.648C48.9629 280.747 49.0382 280.868 49.0969 281.011C49.1557 281.152 49.185 281.321 49.185 281.519C49.185 281.632 49.1709 281.749 49.1427 281.871C49.1169 281.991 49.0734 282.108 49.0123 282.22C48.9535 282.333 48.8772 282.44 48.7831 282.541C48.6891 282.642 48.5751 282.73 48.4412 282.806C48.3072 282.881 48.1521 282.941 47.9758 282.985C47.8019 283.028 47.6033 283.049 47.38 283.049H45.1943V277.866ZM47.2778 282.442C47.5034 282.442 47.6926 282.421 47.8454 282.379C48.0005 282.334 48.1251 282.273 48.2191 282.196C48.3154 282.116 48.3848 282.021 48.4271 281.91C48.4694 281.8 48.4905 281.676 48.4905 281.54C48.4905 281.404 48.4694 281.28 48.4271 281.17C48.3848 281.059 48.3154 280.965 48.2191 280.888C48.1251 280.808 48.0005 280.747 47.8454 280.704C47.6926 280.66 47.5034 280.637 47.2778 280.637H45.8852V282.442H47.2778ZM47.1791 280.073C47.4071 280.073 47.5904 280.052 47.729 280.01C47.8701 279.965 47.9782 279.906 48.0534 279.834C48.1309 279.758 48.1826 279.67 48.2085 279.569C48.2344 279.468 48.2473 279.36 48.2473 279.245C48.2473 279.123 48.2285 279.015 48.1909 278.921C48.1556 278.824 48.0957 278.743 48.0111 278.677C47.9265 278.611 47.816 278.561 47.6797 278.526C47.5434 278.49 47.3765 278.473 47.1791 278.473H45.8852V280.073H47.1791ZM52.7528 280.912L51.9631 278.607L51.0888 280.912H52.7528ZM49.6011 283.049L51.5436 277.785H52.3861L54.2652 283.049H53.4967L52.9502 281.462H50.9125L50.3343 283.049H49.6011ZM58.9963 283.049H58.3018V280.845H57.0115C56.8682 280.845 56.7471 280.848 56.6484 280.852C56.552 280.855 56.4686 280.862 56.3981 280.874C56.3299 280.883 56.2712 280.897 56.2218 280.916C56.1748 280.932 56.129 280.955 56.0843 280.983C56.0303 281.018 55.9833 281.058 55.9433 281.103C55.9034 281.145 55.8681 281.199 55.8375 281.265C55.8093 281.331 55.7858 281.412 55.767 281.508C55.7482 281.605 55.7341 281.723 55.7247 281.864L55.6895 282.428C55.6848 282.497 55.6789 282.559 55.6719 282.615C55.6648 282.669 55.6554 282.72 55.6437 282.767C55.6319 282.814 55.6178 282.861 55.6013 282.908C55.5872 282.952 55.5684 282.999 55.5449 283.049H54.7482C54.7764 283.018 54.8034 282.984 54.8293 282.947C54.8551 282.909 54.8786 282.864 54.8998 282.813C54.9209 282.759 54.9397 282.695 54.9562 282.622C54.9726 282.549 54.9856 282.462 54.995 282.361L55.0549 281.656C55.0643 281.539 55.0784 281.426 55.0972 281.318C55.116 281.21 55.1501 281.109 55.1994 281.015C55.2488 280.921 55.3205 280.836 55.4145 280.761C55.5109 280.686 55.6413 280.623 55.8058 280.574C55.7306 280.546 55.6425 280.508 55.5414 280.461C55.4404 280.414 55.3428 280.345 55.2488 280.253C55.1571 280.161 55.0784 280.042 55.0126 279.894C54.9491 279.743 54.9174 279.553 54.9174 279.322C54.9174 279.158 54.9362 279.009 54.9738 278.875C55.0114 278.741 55.0608 278.622 55.1219 278.519C55.183 278.413 55.2523 278.324 55.3299 278.251C55.4098 278.175 55.4909 278.114 55.5731 278.067C55.6601 278.018 55.76 277.979 55.8728 277.951C55.988 277.923 56.1043 277.903 56.2218 277.891C56.3393 277.879 56.4522 277.872 56.5603 277.87C56.6707 277.868 56.7671 277.866 56.8493 277.866H58.9963V283.049ZM58.3018 278.48H56.7154C56.6543 278.48 56.592 278.481 56.5285 278.483C56.4651 278.483 56.4016 278.487 56.3382 278.494C56.2747 278.501 56.2136 278.513 56.1548 278.529C56.0961 278.543 56.042 278.564 55.9927 278.593C55.9222 278.633 55.8622 278.682 55.8129 278.741C55.7635 278.8 55.7224 278.864 55.6895 278.935C55.6589 279.005 55.6366 279.078 55.6225 279.153C55.6084 279.228 55.6013 279.302 55.6013 279.375C55.6013 279.425 55.6049 279.48 55.6119 279.541C55.619 279.6 55.6342 279.662 55.6578 279.728C55.6813 279.791 55.7142 279.855 55.7565 279.918C55.7988 279.979 55.8552 280.036 55.9257 280.087C55.9868 280.134 56.0479 280.171 56.109 280.197C56.1725 280.22 56.2394 280.238 56.31 280.25C56.3805 280.259 56.4557 280.264 56.5356 280.264C56.6178 280.264 56.7083 280.263 56.807 280.26H58.3018V278.48ZM60.1351 283.786C60.2972 283.757 60.4112 283.643 60.477 283.444C60.5123 283.338 60.5299 283.236 60.5299 283.137C60.5299 283.121 60.5287 283.105 60.5264 283.091C60.5264 283.079 60.524 283.065 60.5193 283.049H60.1351V282.28H60.8895V282.992C60.8895 283.272 60.8331 283.518 60.7203 283.729C60.6075 283.941 60.4124 284.071 60.1351 284.121V283.786ZM67.3305 278.085V278.639C67.1683 278.796 66.9521 279.07 66.6818 279.46C66.4139 279.85 66.1765 280.271 65.9697 280.722C65.7652 281.162 65.6101 281.562 65.5043 281.924C65.4361 282.157 65.348 282.532 65.2399 283.049H64.5383C64.6982 282.085 65.0507 281.126 65.596 280.172C65.918 279.613 66.2564 279.13 66.6113 278.723H63.8191V278.085H67.3305Z" fill="#E8E7E5"/>
<path d="M14.1373 247.442H18.8605V248.435H17.0991V253.209H15.8948V248.435H14.1373V247.442ZM23.6033 250.71H20.7749V252.166H23.9878V253.209H19.6176V247.442H23.8505V248.435H20.7749V249.714H23.6033V250.71ZM28.3501 253.209V250.632H26.0866V253.209H24.8783V247.442H26.0866V249.635H28.3501V247.442H29.5544V253.209H28.3501ZM34.768 250.71H31.9396V252.166H35.1525V253.209H30.7823V247.442H35.0152V248.435H31.9396V249.714H34.768V250.71ZM39.5933 247.509C39.7711 247.554 39.9254 247.614 40.0562 247.69C40.1869 247.765 40.2968 247.853 40.3857 247.952C40.4746 248.052 40.5452 248.156 40.5975 248.266C40.6498 248.374 40.6865 248.483 40.7074 248.596C40.7309 248.708 40.7427 248.816 40.7427 248.918C40.7427 249.064 40.7296 249.196 40.7035 249.314C40.6773 249.429 40.6355 249.535 40.5779 249.632C40.523 249.726 40.4498 249.812 40.3582 249.89C40.2693 249.966 40.1621 250.036 40.0366 250.098C40.2301 250.172 40.3857 250.262 40.5034 250.369C40.6211 250.476 40.7113 250.593 40.7741 250.718C40.8368 250.841 40.8787 250.969 40.8996 251.103C40.9205 251.233 40.931 251.36 40.931 251.483C40.931 251.763 40.88 252.01 40.778 252.225C40.676 252.439 40.5322 252.619 40.3465 252.766C40.1608 252.91 39.9346 253.02 39.6678 253.095C39.4037 253.171 39.1094 253.209 38.7851 253.209H36.1411V247.442H38.9695C39.2049 247.442 39.4128 247.465 39.5933 247.509ZM39.1186 250.687C39.0035 250.671 38.8871 250.663 38.7694 250.663H37.2983V252.213H38.8008C38.9342 252.213 39.0571 252.197 39.1696 252.166C39.282 252.134 39.3788 252.087 39.4599 252.024C39.5436 251.959 39.6077 251.878 39.6521 251.781C39.6992 251.682 39.7227 251.566 39.7227 251.432C39.7227 251.265 39.6953 251.131 39.6403 251.032C39.5854 250.93 39.5122 250.852 39.4207 250.797C39.3317 250.742 39.231 250.705 39.1186 250.687ZM39.3461 249.561C39.4193 249.509 39.4782 249.441 39.5227 249.357C39.5671 249.273 39.5893 249.173 39.5893 249.055C39.5893 248.932 39.5684 248.831 39.5266 248.753C39.4873 248.672 39.4324 248.608 39.3618 248.561C39.2912 248.513 39.2088 248.481 39.1147 248.462C39.0205 248.444 38.9211 248.435 38.8165 248.435H37.2983V249.714H38.7851C38.8898 249.714 38.9904 249.702 39.0872 249.679C39.184 249.655 39.2703 249.616 39.3461 249.561ZM43.1514 249.714H44.3008C44.3871 249.714 44.4969 249.716 44.6303 249.722C44.7663 249.727 44.9115 249.747 45.0658 249.781C45.2201 249.812 45.3744 249.863 45.5287 249.934C45.683 250.004 45.8229 250.105 45.9484 250.236C46.074 250.364 46.176 250.529 46.2544 250.73C46.3329 250.929 46.3721 251.175 46.3721 251.467C46.3721 251.758 46.3329 252.002 46.2544 252.201C46.176 252.4 46.0753 252.565 45.9524 252.695C45.8321 252.823 45.6974 252.923 45.5483 252.993C45.4018 253.061 45.258 253.112 45.1168 253.146C44.9782 253.178 44.85 253.196 44.7323 253.201C44.6173 253.207 44.5323 253.209 44.4773 253.209H41.947V247.442H43.1514V249.714ZM48.3571 247.442V253.209H47.1528V247.442H48.3571ZM43.1514 250.663V252.213H44.1713C44.2812 252.213 44.3936 252.205 44.5087 252.189C44.6264 252.174 44.7336 252.14 44.8304 252.087C44.9298 252.035 45.0109 251.958 45.0736 251.856C45.1364 251.751 45.1678 251.613 45.1678 251.44C45.1678 251.26 45.1364 251.118 45.0736 251.016C45.0135 250.912 44.9337 250.833 44.8343 250.781C44.7349 250.729 44.6225 250.696 44.4969 250.683C44.374 250.67 44.2498 250.663 44.1243 250.663H43.1514ZM53.5197 250.71H50.6913V252.166H53.9042V253.209H49.534V247.442H53.7669V248.435H50.6913V249.714H53.5197V250.71ZM57.1288 247.442H61.0086V248.435H58.3332V253.209H57.1288V247.442ZM65.0963 251.001C64.861 251.092 64.5942 251.138 64.2961 251.138H62.9779V253.209H61.7736V247.442H64.3941C64.7001 247.442 64.9656 247.484 65.1905 247.568C65.418 247.652 65.6063 247.773 65.7554 247.933C65.9045 248.092 66.0156 248.286 66.0888 248.513C66.1621 248.741 66.1987 249 66.1987 249.29C66.1987 249.56 66.1555 249.808 66.0692 250.036C65.9829 250.26 65.8574 250.455 65.6926 250.62C65.5305 250.782 65.3317 250.909 65.0963 251.001ZM62.9779 250.141H64.1195C64.3915 250.141 64.6047 250.075 64.759 249.941C64.9159 249.808 64.9943 249.591 64.9943 249.29C64.9943 249.139 64.9734 249.009 64.9316 248.902C64.8923 248.795 64.8348 248.707 64.759 248.639C64.6857 248.568 64.5942 248.517 64.4844 248.486C64.3771 248.452 64.2555 248.435 64.1195 248.435H62.9779V250.141ZM72.1145 253.209H70.8042L70.4355 252.021H68.3053L67.9052 253.209H66.6341L68.6976 247.442H70.0745L72.1145 253.209ZM70.0981 251.024L69.3802 248.741H69.3645L68.627 251.024H70.0981ZM76.312 253.209V250.632H74.0485V253.209H72.8402V247.442H74.0485V249.635H76.312V247.442H77.5164V253.209H76.312ZM82.1651 253.209V249.306H82.1494L79.8701 253.209H78.6462V247.442H79.8035V251.369H79.8191L82.1023 247.442H83.3223V253.209H82.1651ZM85.9899 252.04V253.209H84.8013V252.04H85.9899ZM84.8013 250.271V249.102H85.9899V250.271H84.8013ZM90.6465 253.209V249.306H90.6308L88.3516 253.209H87.1276V247.442H88.2849V251.369H88.3006L90.5837 247.442H91.8037V253.209H90.6465ZM94.7577 252.174C94.9303 252.265 95.1265 252.311 95.3462 252.311C95.5999 252.311 95.8065 252.272 95.966 252.193C96.1255 252.115 96.2524 252.019 96.3465 251.907C96.4433 251.794 96.5152 251.677 96.5623 251.554C96.6094 251.431 96.646 251.324 96.6721 251.232H97.8686C97.8032 251.593 97.6947 251.907 97.543 252.174C97.3913 252.438 97.207 252.657 96.9899 252.833C96.7728 253.008 96.5283 253.139 96.2563 253.225C95.9869 253.311 95.6992 253.354 95.3932 253.354C94.9643 253.354 94.5838 253.284 94.2517 253.143C93.9221 252.999 93.6436 252.795 93.4161 252.531C93.1912 252.266 93.0199 251.949 92.9022 251.577C92.7845 251.203 92.7256 250.786 92.7256 250.326C92.7256 249.97 92.7596 249.649 92.8276 249.361C92.8956 249.073 92.9898 248.818 93.1101 248.596C93.233 248.371 93.3768 248.177 93.5416 248.015C93.7064 247.85 93.8855 247.716 94.0791 247.611C94.2752 247.504 94.4805 247.425 94.695 247.376C94.9094 247.324 95.1265 247.297 95.3462 247.297C95.66 247.297 95.9385 247.33 96.1818 247.395C96.425 247.461 96.6381 247.548 96.8212 247.658C97.0043 247.768 97.1599 247.894 97.288 248.035C97.4188 248.176 97.5247 248.323 97.6058 248.474C97.6895 248.623 97.7509 248.774 97.7902 248.925C97.832 249.074 97.8582 249.212 97.8686 249.337H96.6643C96.6486 249.282 96.629 249.22 96.6054 249.149C96.5819 249.076 96.5492 249.003 96.5074 248.929C96.4681 248.856 96.4171 248.784 96.3544 248.714C96.2942 248.643 96.2184 248.58 96.1268 248.525C96.0353 248.47 95.9255 248.426 95.7973 248.392C95.6692 248.358 95.5188 248.341 95.3462 248.341C95.2729 248.341 95.1866 248.35 95.0873 248.368C94.9879 248.387 94.8859 248.422 94.7813 248.474C94.6767 248.524 94.5733 248.595 94.4713 248.686C94.3694 248.778 94.2778 248.898 94.1967 249.047C94.1183 249.193 94.0542 249.371 94.0045 249.581C93.9548 249.79 93.93 250.038 93.93 250.326C93.93 250.637 93.9627 250.916 94.0281 251.161C94.0934 251.407 94.1876 251.615 94.3105 251.785C94.4334 251.955 94.5825 252.085 94.7577 252.174ZM100.564 252.174C100.736 252.265 100.932 252.311 101.152 252.311C101.406 252.311 101.612 252.272 101.772 252.193C101.931 252.115 102.058 252.019 102.152 251.907C102.249 251.794 102.321 251.677 102.368 251.554C102.415 251.431 102.452 251.324 102.478 251.232H103.675C103.609 251.593 103.501 251.907 103.349 252.174C103.197 252.438 103.013 252.657 102.796 252.833C102.579 253.008 102.334 253.139 102.062 253.225C101.793 253.311 101.505 253.354 101.199 253.354C100.77 253.354 100.39 253.284 100.058 253.143C99.7281 252.999 99.4496 252.795 99.222 252.531C98.9971 252.266 98.8258 251.949 98.7081 251.577C98.5904 251.203 98.5316 250.786 98.5316 250.326C98.5316 249.97 98.5656 249.649 98.6336 249.361C98.7016 249.073 98.7957 248.818 98.916 248.596C99.039 248.371 99.1828 248.177 99.3476 248.015C99.5123 247.85 99.6915 247.716 99.885 247.611C100.081 247.504 100.286 247.425 100.501 247.376C100.715 247.324 100.932 247.297 101.152 247.297C101.466 247.297 101.744 247.33 101.988 247.395C102.231 247.461 102.444 247.548 102.627 247.658C102.81 247.768 102.966 247.894 103.094 248.035C103.225 248.176 103.331 248.323 103.412 248.474C103.495 248.623 103.557 248.774 103.596 248.925C103.638 249.074 103.664 249.212 103.675 249.337H102.47C102.455 249.282 102.435 249.22 102.411 249.149C102.388 249.076 102.355 249.003 102.313 248.929C102.274 248.856 102.223 248.784 102.16 248.714C102.1 248.643 102.024 248.58 101.933 248.525C101.841 248.47 101.731 248.426 101.603 248.392C101.475 248.358 101.325 248.341 101.152 248.341C101.079 248.341 100.993 248.35 100.893 248.368C100.794 248.387 100.692 248.422 100.587 248.474C100.483 248.524 100.379 248.595 100.277 248.686C100.175 248.778 100.084 248.898 100.003 249.047C99.9242 249.193 99.8602 249.371 99.8105 249.581C99.7608 249.79 99.7359 250.038 99.7359 250.326C99.7359 250.637 99.7686 250.916 99.834 251.161C99.8994 251.407 99.9936 251.615 100.116 251.785C100.239 251.955 100.388 252.085 100.564 252.174ZM105.283 247.442H109.308V253.209H108.104V248.435H106.413L106.417 249.306C106.419 249.832 106.408 250.296 106.381 250.699C106.358 251.099 106.319 251.448 106.264 251.746C106.211 252.041 106.143 252.29 106.06 252.491C105.979 252.693 105.882 252.855 105.769 252.978C105.657 253.098 105.529 253.184 105.385 253.237C105.241 253.289 105.083 253.315 104.91 253.315C104.769 253.315 104.644 253.306 104.534 253.288C104.426 253.272 104.319 253.242 104.212 253.197L104.208 252.095C104.245 252.113 104.283 252.129 104.322 252.142C104.364 252.153 104.404 252.162 104.443 252.17C104.483 252.175 104.518 252.179 104.549 252.181C104.583 252.184 104.61 252.185 104.628 252.185C104.698 252.185 104.764 252.176 104.824 252.158C104.887 252.137 104.942 252.094 104.989 252.028C105.038 251.963 105.082 251.869 105.118 251.746C105.155 251.623 105.185 251.46 105.208 251.256C105.235 251.052 105.253 250.799 105.263 250.498C105.276 250.198 105.283 249.838 105.283 249.42V247.442ZM114.42 250.71H111.591V252.166H114.804V253.209H110.434V247.442H114.667V248.435H111.591V249.714H114.42V250.71ZM119.912 253.209H116.275V254.445H115.232V252.213H115.738C115.798 252.051 115.857 251.885 115.914 251.715C115.974 251.545 116.031 251.36 116.083 251.161C116.135 250.963 116.182 250.744 116.224 250.506C116.269 250.268 116.308 250 116.342 249.702C116.376 249.401 116.403 249.067 116.424 248.698C116.445 248.326 116.459 247.908 116.467 247.442H120.394V252.213H120.955V254.445H119.912V253.209ZM117.177 251.479C117.112 251.73 117.034 251.975 116.942 252.213H119.19V248.435H117.526C117.524 248.54 117.52 248.673 117.515 248.835C117.512 248.997 117.504 249.179 117.491 249.38C117.478 249.579 117.458 249.795 117.432 250.028C117.409 250.258 117.376 250.496 117.334 250.742C117.292 250.985 117.24 251.231 117.177 251.479ZM122.968 253.123C122.62 252.969 122.331 252.757 122.101 252.487C121.871 252.215 121.698 251.895 121.583 251.526C121.468 251.155 121.41 250.755 121.41 250.326C121.41 249.894 121.468 249.494 121.583 249.125C121.698 248.757 121.871 248.438 122.101 248.168C122.331 247.896 122.62 247.683 122.968 247.529C123.315 247.375 123.721 247.297 124.184 247.297C124.61 247.297 124.994 247.375 125.337 247.529C125.68 247.683 125.97 247.896 126.208 248.168C126.449 248.438 126.633 248.757 126.761 249.125C126.889 249.494 126.953 249.894 126.953 250.326C126.953 250.755 126.889 251.155 126.761 251.526C126.633 251.895 126.449 252.215 126.208 252.487C125.97 252.757 125.68 252.969 125.337 253.123C124.994 253.277 124.61 253.354 124.184 253.354C123.721 253.354 123.315 253.277 122.968 253.123ZM122.615 250.326C122.615 250.614 122.651 250.878 122.724 251.118C122.795 251.362 122.897 251.572 123.03 251.75C123.166 251.925 123.331 252.062 123.525 252.162C123.718 252.261 123.938 252.311 124.184 252.311C124.43 252.311 124.649 252.261 124.843 252.162C125.036 252.062 125.2 251.925 125.333 251.75C125.469 251.572 125.572 251.363 125.643 251.122C125.714 250.879 125.749 250.614 125.749 250.326C125.749 250.038 125.714 249.774 125.643 249.533C125.572 249.29 125.469 249.081 125.333 248.906C125.2 248.728 125.036 248.589 124.843 248.49C124.649 248.391 124.43 248.341 124.184 248.341C123.938 248.341 123.718 248.391 123.525 248.49C123.331 248.589 123.166 248.728 123.03 248.906C122.897 249.081 122.794 249.29 122.72 249.533C122.65 249.774 122.615 250.038 122.615 250.326ZM131.422 247.509C131.599 247.554 131.754 247.614 131.884 247.69C132.015 247.765 132.125 247.853 132.214 247.952C132.303 248.052 132.374 248.156 132.426 248.266C132.478 248.374 132.515 248.483 132.536 248.596C132.559 248.708 132.571 248.816 132.571 248.918C132.571 249.064 132.558 249.196 132.532 249.314C132.506 249.429 132.464 249.535 132.406 249.632C132.351 249.726 132.278 249.812 132.187 249.89C132.098 249.966 131.99 250.036 131.865 250.098C132.058 250.172 132.214 250.262 132.332 250.369C132.449 250.476 132.54 250.593 132.602 250.718C132.665 250.841 132.707 250.969 132.728 251.103C132.749 251.233 132.759 251.36 132.759 251.483C132.759 251.763 132.708 252.01 132.606 252.225C132.504 252.439 132.36 252.619 132.175 252.766C131.989 252.91 131.763 253.02 131.496 253.095C131.232 253.171 130.938 253.209 130.613 253.209H127.969V247.442H130.798C131.033 247.442 131.241 247.465 131.422 247.509ZM130.947 250.687C130.832 250.671 130.715 250.663 130.598 250.663H129.127V252.213H130.629C130.763 252.213 130.885 252.197 130.998 252.166C131.11 252.134 131.207 252.087 131.288 252.024C131.372 251.959 131.436 251.878 131.48 251.781C131.527 251.682 131.551 251.566 131.551 251.432C131.551 251.265 131.524 251.131 131.469 251.032C131.414 250.93 131.34 250.852 131.249 250.797C131.16 250.742 131.059 250.705 130.947 250.687ZM131.174 249.561C131.248 249.509 131.306 249.441 131.351 249.357C131.395 249.273 131.418 249.173 131.418 249.055C131.418 248.932 131.397 248.831 131.355 248.753C131.316 248.672 131.261 248.608 131.19 248.561C131.12 248.513 131.037 248.481 130.943 248.462C130.849 248.444 130.749 248.435 130.645 248.435H129.127V249.714H130.613C130.718 249.714 130.819 249.702 130.916 249.679C131.012 249.655 131.099 249.616 131.174 249.561ZM138.757 253.209H137.447L137.078 252.021H134.948L134.548 253.209H133.277L135.341 247.442H136.718L138.757 253.209ZM136.741 251.024L136.023 248.741H136.007L135.27 251.024H136.741ZM142.955 253.209V250.632H140.691V253.209H139.483V247.442H140.691V249.635H142.955V247.442H144.159V253.209H142.955ZM148.808 253.209V249.306H148.792L146.513 253.209H145.289V247.442H146.446V251.369H146.462L148.745 247.442H149.965V253.209H148.808ZM155.179 250.71H152.35V252.166H155.563V253.209H151.193V247.442H155.426V248.435H152.35V249.714H155.179V250.71ZM160.514 252.174C160.687 252.265 160.883 252.311 161.103 252.311C161.356 252.311 161.563 252.272 161.722 252.193C161.882 252.115 162.009 252.019 162.103 251.907C162.2 251.794 162.272 251.677 162.319 251.554C162.366 251.431 162.402 251.324 162.429 251.232H163.625C163.56 251.593 163.451 251.907 163.299 252.174C163.148 252.438 162.963 252.657 162.746 252.833C162.529 253.008 162.285 253.139 162.013 253.225C161.743 253.311 161.456 253.354 161.15 253.354C160.721 253.354 160.34 253.284 160.008 253.143C159.679 252.999 159.4 252.795 159.172 252.531C158.948 252.266 158.776 251.949 158.659 251.577C158.541 251.203 158.482 250.786 158.482 250.326C158.482 249.97 158.516 249.649 158.584 249.361C158.652 249.073 158.746 248.818 158.866 248.596C158.989 248.371 159.133 248.177 159.298 248.015C159.463 247.85 159.642 247.716 159.835 247.611C160.032 247.504 160.237 247.425 160.451 247.376C160.666 247.324 160.883 247.297 161.103 247.297C161.416 247.297 161.695 247.33 161.938 247.395C162.181 247.461 162.395 247.548 162.578 247.658C162.761 247.768 162.916 247.894 163.044 248.035C163.175 248.176 163.281 248.323 163.362 248.474C163.446 248.623 163.507 248.774 163.547 248.925C163.588 249.074 163.615 249.212 163.625 249.337H162.421C162.405 249.282 162.385 249.22 162.362 249.149C162.338 249.076 162.306 249.003 162.264 248.929C162.225 248.856 162.174 248.784 162.111 248.714C162.051 248.643 161.975 248.58 161.883 248.525C161.792 248.47 161.682 248.426 161.554 248.392C161.426 248.358 161.275 248.341 161.103 248.341C161.029 248.341 160.943 248.35 160.844 248.368C160.744 248.387 160.642 248.422 160.538 248.474C160.433 248.524 160.33 248.595 160.228 248.686C160.126 248.778 160.034 248.898 159.953 249.047C159.875 249.193 159.811 249.371 159.761 249.581C159.711 249.79 159.686 250.038 159.686 250.326C159.686 250.637 159.719 250.916 159.784 251.161C159.85 251.407 159.944 251.615 160.067 251.785C160.19 251.955 160.339 252.085 160.514 252.174ZM169.576 253.209H168.266L167.897 252.021H165.767L165.367 253.209H164.096L166.159 247.442H167.536L169.576 253.209ZM167.56 251.024L166.842 248.741H166.826L166.089 251.024H167.56ZM174.103 247.442H175.872V253.209H174.762V248.388H174.747L173.652 253.209H172.479L171.428 248.388H171.412V253.209H170.302V247.442H172.063L173.075 251.93H173.091L174.103 247.442ZM178.344 253.123C177.996 252.969 177.707 252.757 177.477 252.487C177.247 252.215 177.074 251.895 176.959 251.526C176.844 251.155 176.787 250.755 176.787 250.326C176.787 249.894 176.844 249.494 176.959 249.125C177.074 248.757 177.247 248.438 177.477 248.168C177.707 247.896 177.996 247.683 178.344 247.529C178.692 247.375 179.097 247.297 179.56 247.297C179.986 247.297 180.371 247.375 180.713 247.529C181.056 247.683 181.346 247.896 181.584 248.168C181.825 248.438 182.009 248.757 182.137 249.125C182.266 249.494 182.33 249.894 182.33 250.326C182.33 250.755 182.266 251.155 182.137 251.526C182.009 251.895 181.825 252.215 181.584 252.487C181.346 252.757 181.056 252.969 180.713 253.123C180.371 253.277 179.986 253.354 179.56 253.354C179.097 253.354 178.692 253.277 178.344 253.123ZM177.991 250.326C177.991 250.614 178.027 250.878 178.101 251.118C178.171 251.362 178.273 251.572 178.407 251.75C178.543 251.925 178.707 252.062 178.901 252.162C179.095 252.261 179.314 252.311 179.56 252.311C179.806 252.311 180.026 252.261 180.219 252.162C180.413 252.062 180.576 251.925 180.709 251.75C180.845 251.572 180.949 251.363 181.019 251.122C181.09 250.879 181.125 250.614 181.125 250.326C181.125 250.038 181.09 249.774 181.019 249.533C180.949 249.29 180.845 249.081 180.709 248.906C180.576 248.728 180.413 248.589 180.219 248.49C180.026 248.391 179.806 248.341 179.56 248.341C179.314 248.341 179.095 248.391 178.901 248.49C178.707 248.589 178.543 248.728 178.407 248.906C178.273 249.081 178.17 249.29 178.097 249.533C178.026 249.774 177.991 250.038 177.991 250.326ZM183.346 247.442H187.225V248.435H184.55V253.209H183.346V247.442ZM189.242 253.123C188.894 252.969 188.605 252.757 188.375 252.487C188.145 252.215 187.972 251.895 187.857 251.526C187.742 251.155 187.684 250.755 187.684 250.326C187.684 249.894 187.742 249.494 187.857 249.125C187.972 248.757 188.145 248.438 188.375 248.168C188.605 247.896 188.894 247.683 189.242 247.529C189.59 247.375 189.995 247.297 190.458 247.297C190.884 247.297 191.269 247.375 191.611 247.529C191.954 247.683 192.244 247.896 192.482 248.168C192.723 248.438 192.907 248.757 193.035 249.125C193.164 249.494 193.228 249.894 193.228 250.326C193.228 250.755 193.164 251.155 193.035 251.526C192.907 251.895 192.723 252.215 192.482 252.487C192.244 252.757 191.954 252.969 191.611 253.123C191.269 253.277 190.884 253.354 190.458 253.354C189.995 253.354 189.59 253.277 189.242 253.123ZM188.889 250.326C188.889 250.614 188.925 250.878 188.999 251.118C189.069 251.362 189.171 251.572 189.305 251.75C189.441 251.925 189.605 252.062 189.799 252.162C189.992 252.261 190.212 252.311 190.458 252.311C190.704 252.311 190.924 252.261 191.117 252.162C191.311 252.062 191.474 251.925 191.607 251.75C191.743 251.572 191.847 251.363 191.917 251.122C191.988 250.879 192.023 250.614 192.023 250.326C192.023 250.038 191.988 249.774 191.917 249.533C191.847 249.29 191.743 249.081 191.607 248.906C191.474 248.728 191.311 248.589 191.117 248.49C190.924 248.391 190.704 248.341 190.458 248.341C190.212 248.341 189.992 248.391 189.799 248.49C189.605 248.589 189.441 248.728 189.305 248.906C189.171 249.081 189.068 249.29 188.995 249.533C188.924 249.774 188.889 250.038 188.889 250.326ZM198.206 252.174C198.378 252.265 198.575 252.311 198.794 252.311C199.048 252.311 199.255 252.272 199.414 252.193C199.574 252.115 199.7 252.019 199.795 251.907C199.891 251.794 199.963 251.677 200.01 251.554C200.057 251.431 200.094 251.324 200.12 251.232H201.317C201.251 251.593 201.143 251.907 200.991 252.174C200.839 252.438 200.655 252.657 200.438 252.833C200.221 253.008 199.976 253.139 199.704 253.225C199.435 253.311 199.147 253.354 198.841 253.354C198.412 253.354 198.032 253.284 197.7 253.143C197.37 252.999 197.092 252.795 196.864 252.531C196.639 252.266 196.468 251.949 196.35 251.577C196.233 251.203 196.174 250.786 196.174 250.326C196.174 249.97 196.208 249.649 196.276 249.361C196.344 249.073 196.438 248.818 196.558 248.596C196.681 248.371 196.825 248.177 196.99 248.015C197.154 247.85 197.334 247.716 197.527 247.611C197.723 247.504 197.929 247.425 198.143 247.376C198.357 247.324 198.575 247.297 198.794 247.297C199.108 247.297 199.387 247.33 199.63 247.395C199.873 247.461 200.086 247.548 200.269 247.658C200.452 247.768 200.608 247.894 200.736 248.035C200.867 248.176 200.973 248.323 201.054 248.474C201.138 248.623 201.199 248.774 201.238 248.925C201.28 249.074 201.306 249.212 201.317 249.337H200.112C200.097 249.282 200.077 249.22 200.054 249.149C200.03 249.076 199.997 249.003 199.955 248.929C199.916 248.856 199.865 248.784 199.802 248.714C199.742 248.643 199.666 248.58 199.575 248.525C199.483 248.47 199.374 248.426 199.245 248.392C199.117 248.358 198.967 248.341 198.794 248.341C198.721 248.341 198.635 248.35 198.535 248.368C198.436 248.387 198.334 248.422 198.229 248.474C198.125 248.524 198.021 248.595 197.919 248.686C197.817 248.778 197.726 248.898 197.645 249.047C197.566 249.193 197.502 249.371 197.453 249.581C197.403 249.79 197.378 250.038 197.378 250.326C197.378 250.637 197.411 250.916 197.476 251.161C197.542 251.407 197.636 251.615 197.759 251.785C197.882 251.955 198.031 252.085 198.206 252.174ZM206.271 250.71H203.443V252.166H206.656V253.209H202.286V247.442H206.519V248.435H203.443V249.714H206.271V250.71ZM210.614 249.722C210.75 249.727 210.894 249.747 211.046 249.781C211.2 249.812 211.354 249.863 211.509 249.934C211.665 250.004 211.807 250.105 211.932 250.236C212.058 250.364 212.16 250.529 212.238 250.73C212.317 250.929 212.356 251.175 212.356 251.467C212.356 251.758 212.317 252.002 212.238 252.201C212.16 252.4 212.059 252.565 211.936 252.695C211.816 252.823 211.681 252.923 211.532 252.993C211.383 253.061 211.238 253.112 211.097 253.146C210.958 253.178 210.83 253.196 210.712 253.201C210.597 253.207 210.512 253.209 210.457 253.209H207.644V247.442H211.842V248.435H208.849V249.714H210.281C210.367 249.714 210.478 249.716 210.614 249.722ZM208.849 252.213H210.151C210.261 252.213 210.373 252.205 210.489 252.189C210.606 252.174 210.713 252.14 210.81 252.087C210.91 252.035 210.991 251.958 211.053 251.856C211.116 251.751 211.148 251.613 211.148 251.44C211.148 251.26 211.116 251.118 211.053 251.016C210.993 250.912 210.914 250.833 210.814 250.781C210.715 250.729 210.602 250.696 210.477 250.683C210.354 250.67 210.23 250.663 210.104 250.663H208.849V252.213ZM214.6 251.338C214.529 251.469 214.483 251.653 214.462 251.891L214.423 252.436C214.413 252.562 214.401 252.668 214.388 252.754C214.377 252.838 214.366 252.908 214.353 252.966C214.34 253.021 214.326 253.068 214.313 253.107C214.3 253.144 214.289 253.178 214.278 253.209H213.027C213.066 253.136 213.096 253.073 213.117 253.021C213.14 252.969 213.159 252.914 213.172 252.856C213.188 252.799 213.199 252.732 213.207 252.656C213.218 252.58 213.229 252.481 213.242 252.358L213.297 251.813C213.316 251.645 213.338 251.494 213.364 251.358C213.393 251.219 213.436 251.096 213.494 250.989C213.554 250.882 213.636 250.789 213.741 250.71C213.845 250.632 213.984 250.565 214.156 250.51C214.081 250.484 213.998 250.45 213.909 250.408C213.823 250.366 213.732 250.296 213.635 250.196C213.509 250.071 213.41 249.918 213.337 249.737C213.263 249.554 213.227 249.354 213.227 249.137C213.227 249.001 213.241 248.872 213.27 248.749C213.299 248.623 213.339 248.506 213.392 248.396C213.444 248.286 213.505 248.185 213.576 248.094C213.649 248.002 213.728 247.921 213.811 247.85C213.932 247.748 214.062 247.67 214.204 247.615C214.347 247.56 214.495 247.52 214.647 247.493C214.801 247.467 214.958 247.453 215.118 247.45C215.28 247.445 215.439 247.442 215.596 247.442H218.005V253.209H216.84V250.934H215.765C215.582 250.934 215.414 250.939 215.263 250.95C215.114 250.96 214.983 250.995 214.87 251.056C214.758 251.113 214.668 251.207 214.6 251.338ZM214.474 248.949C214.445 249.03 214.431 249.127 214.431 249.239C214.431 249.365 214.448 249.471 214.482 249.557C214.519 249.641 214.566 249.711 214.623 249.769C214.683 249.824 214.75 249.867 214.823 249.898C214.899 249.927 214.975 249.948 215.051 249.961C215.129 249.974 215.205 249.982 215.278 249.985C215.354 249.987 215.422 249.988 215.482 249.988H216.84V248.455H215.482C215.467 248.455 215.435 248.456 215.388 248.459C215.341 248.459 215.288 248.461 215.227 248.466C215.17 248.469 215.111 248.474 215.051 248.482C214.991 248.49 214.94 248.502 214.898 248.517C214.846 248.538 214.792 248.567 214.737 248.604C214.682 248.638 214.631 248.683 214.584 248.741C214.54 248.799 214.503 248.868 214.474 248.949Z" fill="#E8E7E5"/>
</g>
<defs>
<clipPath id="clip0_205_1038">
<rect width="333.235" height="499.853" fill="white" transform="translate(0.614746)"/>
</clipPath>
</defs>
</svg>
