<svg width="335" height="502" viewBox="0 0 335 502" fill="none" xmlns="http://www.w3.org/2000/svg">
<g clip-path="url(#clip0_205_1089)">
<rect width="334.014" height="501.021" transform="translate(0.986328)" fill="#F15B2C"/>
<path d="M66.1951 248.99C66.9733 278.199 71.8715 342.142 85.2381 364.243C98.6048 386.344 121.044 409.106 130.593 417.725C139.056 449.852 156.798 515.631 160.065 521.722C164.148 529.336 221.131 595.759 236.262 593.002C248.366 590.796 321.104 536.207 355.96 509.188L283.959 440.756C271.862 431.52 237.356 414.39 212.283 392.052C180.941 364.131 174.507 358.924 180.604 342.46C184.973 330.662 197.653 317.563 180.851 301.543C160.966 282.583 132.638 296.93 127.847 284.541C124.014 274.629 109.816 248.224 103.195 236.26L66.1951 248.99Z" fill="#1F2EB2" stroke="#E8E7E5" stroke-width="5.22448"/>
<path d="M11.3095 193.935C11.3095 193.935 -12.8353 134.632 23.2736 114.652C59.3824 94.6726 75.0588 125.285 88.3435 139.995C100.687 153.663 111.776 186.081 115.697 198.52C116.046 199.626 116.338 200.573 116.569 201.336C116.627 201.528 116.681 201.708 116.732 201.875C116.808 202.128 116.875 202.354 116.933 202.551C117.159 203.318 117.246 203.643 117.181 203.437C117.181 203.437 117.301 203.95 117.467 204.869C117.503 205.068 117.542 205.287 117.582 205.523C117.62 205.751 117.66 205.996 117.7 206.256C118.725 212.856 120.203 229.574 111.333 240.414C100.077 254.171 75.0748 263.746 45.4292 242.663C15.7837 221.58 11.3095 193.935 11.3095 193.935Z" fill="#1F2EB2"/>
<path d="M115.697 198.52C111.776 186.081 100.687 153.663 88.3435 139.995C75.0588 125.285 59.3824 94.6726 23.2736 114.652C-12.8353 134.632 11.3095 193.935 11.3095 193.935C11.3095 193.935 15.7837 221.58 45.4292 242.663C75.0748 263.746 100.077 254.171 111.333 240.414C120.203 229.574 118.725 212.856 117.7 206.256M115.697 198.52C116.046 199.626 116.338 200.573 116.569 201.336M115.697 198.52C116.176 200.228 117.046 203.342 117.355 204.458M117.467 204.869C117.301 203.95 117.181 203.437 117.181 203.437C117.246 203.643 117.159 203.318 116.933 202.551M117.467 204.869C117.465 204.858 117.424 204.708 117.355 204.458M117.467 204.869C117.503 205.068 117.542 205.287 117.582 205.523M116.569 201.336L117.355 204.458M116.569 201.336C116.627 201.528 116.681 201.708 116.732 201.875M116.933 202.551L117.582 205.523M116.933 202.551C116.875 202.354 116.808 202.128 116.732 201.875M117.582 205.523C117.62 205.751 117.66 205.996 117.7 206.256M116.732 201.875L117.7 206.256" stroke="#E8E7E5" stroke-width="5.22448"/>
<path d="M57.7408 167.527L72.2307 182.468L87.5368 196.638L81.002 204.564L83.7379 208.471L85.6305 211.174L93.7395 205.496L86.7412 210.396M79.7428 215.297L86.7412 210.396M86.7412 210.396L86.6832 217.177L86.7105 220.748C88.6538 221.7 92.422 223.824 91.9489 224.697C91.3576 225.789 91.4762 231.769 88.6152 233.094" stroke="#E8E7E5" stroke-width="2.41763"/>
<path d="M41.3489 166.214C37.5733 167.27 32.6745 171.146 28.2085 175.415C29.0643 178.237 31.4327 183.86 34.0595 183.771C38.0551 181.764 42.0509 179.036 45.5645 176.274C45.5965 176.249 45.6285 176.224 45.6604 176.198C48.2107 174.084 43.8702 168.68 41.3489 166.214Z" fill="#E8E7E5"/>
<path d="M41.3489 166.214C48.4722 164.221 52.4047 167.429 53.4806 169.283C51.4762 171.293 48.7584 173.757 45.6604 176.198M41.3489 166.214C37.5733 167.27 32.6745 171.146 28.2085 175.415M41.3489 166.214C43.8702 168.68 48.2107 174.084 45.6604 176.198M28.2085 175.415C24.2488 179.2 20.6295 183.293 18.4348 186.002C22.7243 188.016 28.3916 186.619 34.0595 183.771M28.2085 175.415C29.0643 178.237 31.4327 183.86 34.0595 183.771M34.0595 183.771C38.0551 181.764 42.0509 179.036 45.5645 176.274M45.5645 176.274C45.5965 176.249 45.6285 176.224 45.6604 176.198M45.5645 176.274C45.5975 176.249 45.6295 176.224 45.6604 176.198" stroke="#E8E7E5" stroke-width="1.74149"/>
<path d="M60.4113 152.666C62.5254 149.364 67.6645 145.812 73.0523 142.789C75.501 144.433 80.1854 148.342 79.3326 150.828C76.2448 154.062 72.4676 157.086 68.7992 159.638C68.7657 159.661 68.7323 159.685 68.6989 159.708C65.9317 161.529 62.0324 155.798 60.4113 152.666Z" fill="#E8E7E5"/>
<path d="M60.4113 152.666C56.4229 158.895 58.3414 163.594 59.7991 165.164C62.3078 163.835 65.458 161.956 68.6989 159.708M60.4113 152.666C62.5254 149.364 67.6645 145.812 73.0523 142.789M60.4113 152.666C62.0324 155.798 65.9317 161.529 68.6989 159.708M73.0523 142.789C77.8291 140.109 82.8015 137.845 86.0344 136.538C86.7062 141.229 83.713 146.24 79.3326 150.828M73.0523 142.789C75.501 144.433 80.1854 148.342 79.3326 150.828M79.3326 150.828C76.2448 154.062 72.4677 157.086 68.7992 159.638M68.7992 159.638C68.7657 159.661 68.7323 159.685 68.6989 159.708M68.7992 159.638C68.7659 159.662 68.7325 159.686 68.6989 159.708" stroke="#E8E7E5" stroke-width="1.74149"/>
<path d="M113.593 35.6948C93.7746 69.6463 121.326 156.07 137.077 195.564L235.871 343.304L285.268 417.174L334.666 491.044C408.544 523.324 528.111 508.099 535.613 420.927C543.116 333.754 519.814 297.988 487.848 263.684C459.216 232.958 373.048 105.012 319.936 37.9911C265.772 -20.6402 228.253 -34.1378 216.264 -33.5576C168.968 -30.3694 138.366 -6.74466 113.593 35.6948Z" fill="black" stroke="#E8E7E5" stroke-width="4.83294"/>
<path d="M230.797 112.064C255.765 122.419 309.363 147.847 324.019 166.717C338.674 185.588 350.893 212.512 355.17 223.616C380.111 241.576 431.036 278.705 435.214 283.545C440.436 289.595 478.91 360.827 471.512 372.98C465.594 382.702 394.337 427.423 359.448 448.568L324.218 363.701C320.252 350.192 316.897 314.713 305.918 285.654C292.195 249.33 289.831 242.048 273.591 241.856C261.954 241.718 246.438 248.325 238.173 228.504C228.391 205.046 250.172 185.338 241.061 177.093C233.772 170.497 215.675 149.481 207.537 139.798L230.797 112.064Z" fill="#0DA100" stroke="#E8E7E5" stroke-width="4.83294"/>
<path d="M213.032 37.8238C213.032 37.8238 169.821 -2.68762 140.596 21.873C111.371 46.4337 132.611 70.1204 140.911 86.4699C148.623 101.661 172.944 121.985 182.386 129.495C183.225 130.162 183.947 130.729 184.529 131.181C184.675 131.295 184.813 131.401 184.941 131.5C185.134 131.65 185.307 131.782 185.457 131.898C186.045 132.347 186.297 132.531 186.141 132.406C186.141 132.406 186.544 132.68 187.282 133.128C187.442 133.225 187.618 133.331 187.809 133.444C187.994 133.552 188.192 133.668 188.403 133.789C193.764 136.862 207.711 143.681 220.014 139.614C235.625 134.454 252.184 116.036 243.803 83.444C235.423 50.8522 213.032 37.8238 213.032 37.8238Z" fill="black"/>
<path d="M182.386 129.495C172.944 121.985 148.623 101.661 140.911 86.4699C132.611 70.1204 111.371 46.4337 140.596 21.873C169.821 -2.68761 213.032 37.8238 213.032 37.8238C213.032 37.8238 235.423 50.8522 243.803 83.444C252.184 116.036 235.625 134.454 220.013 139.614C207.711 143.681 193.764 136.862 188.403 133.789M182.386 129.495C183.225 130.162 183.947 130.729 184.529 131.181M182.386 129.495C183.703 130.474 186.103 132.258 186.965 132.895M187.282 133.128C186.544 132.68 186.141 132.406 186.141 132.406C186.297 132.531 186.045 132.347 185.457 131.898M187.282 133.128C187.274 133.123 187.158 133.038 186.965 132.895M187.282 133.128C187.442 133.225 187.618 133.331 187.809 133.444M184.529 131.181L186.965 132.895M184.529 131.181C184.675 131.295 184.813 131.401 184.941 131.5M185.457 131.898L187.809 133.444M185.457 131.898C185.307 131.782 185.134 131.65 184.941 131.5M187.809 133.444C187.994 133.552 188.192 133.668 188.403 133.789M184.941 131.5L188.403 133.789" stroke="#0B8400" stroke-width="4.57535"/>
<path d="M212.975 37.5701C212.975 37.5701 169.765 -2.94128 140.54 21.6194C111.314 46.18 132.555 69.8667 140.855 86.2162C148.567 101.407 172.887 121.731 182.329 129.241C183.169 129.909 183.89 130.475 184.473 130.928C184.619 131.041 184.756 131.148 184.884 131.247C185.078 131.396 185.25 131.529 185.401 131.644C185.988 132.094 186.24 132.277 186.084 132.153C186.084 132.153 186.487 132.426 187.226 132.874C187.386 132.972 187.562 133.077 187.753 133.19C187.937 133.299 188.135 133.414 188.346 133.535C193.707 136.609 207.655 143.427 219.957 139.36C235.568 134.2 252.127 115.782 243.747 83.1903C235.367 50.5985 212.975 37.5701 212.975 37.5701Z" fill="#0DA100"/>
<path d="M182.329 129.241C172.887 121.731 148.567 101.407 140.855 86.2162C132.555 69.8667 111.314 46.18 140.54 21.6194C169.765 -2.94128 212.975 37.5701 212.975 37.5701C212.975 37.5701 235.367 50.5985 243.747 83.1903C252.127 115.782 235.568 134.2 219.957 139.36C207.655 143.427 193.707 136.609 188.346 133.535M182.329 129.241C183.169 129.909 183.89 130.475 184.473 130.928M182.329 129.241C183.646 130.22 186.047 132.004 186.908 132.641M187.226 132.874C186.487 132.426 186.084 132.153 186.084 132.153C186.24 132.277 185.988 132.094 185.401 131.644M187.226 132.874C187.217 132.869 187.101 132.784 186.908 132.641M187.226 132.874C187.386 132.972 187.562 133.077 187.753 133.19M184.473 130.928L186.908 132.641M184.473 130.928C184.619 131.041 184.756 131.148 184.884 131.247M185.401 131.644L187.753 133.19M185.401 131.644C185.25 131.529 185.078 131.396 184.884 131.247M187.753 133.19C187.937 133.299 188.135 133.414 188.346 133.535M184.884 131.247L188.346 133.535" stroke="#E8E7E5" stroke-width="4.83294"/>
<path d="M174.782 68.9124L182.881 86.3791L190.044 104.295L199.056 101.279L201.523 104.937L203.23 107.468L195.638 112.589L202.19 108.169M208.742 103.75L202.19 108.169M202.19 108.169L208.066 110.367L211.14 111.574C211.318 113.568 211.903 117.527 212.815 117.408C213.954 117.259 219.078 119.344 221.171 117.312" stroke="#E8E7E5" stroke-width="2.23645"/>
<path d="M179.077 54.326C181.241 51.4155 186.213 48.4698 191.38 46.028C193.533 47.7027 197.604 51.612 196.656 53.8512C193.598 56.6363 189.918 59.1828 186.368 61.3016C186.335 61.3209 186.303 61.3402 186.271 61.3594C183.6 62.8611 180.371 57.3209 179.077 54.326Z" fill="#E8E7E5"/>
<path d="M179.077 54.326C174.995 59.8171 176.462 64.2769 177.706 65.8204C180.107 64.7559 183.135 63.2254 186.271 61.3594M179.077 54.326C181.241 51.4155 186.213 48.4698 191.38 46.028M179.077 54.326C180.371 57.3209 183.6 62.8611 186.271 61.3594M191.38 46.028C195.961 43.863 200.695 42.0941 203.763 41.097C204.08 45.4691 200.995 49.9003 196.656 53.8512M191.38 46.028C193.533 47.7027 197.604 51.612 196.656 53.8512M196.656 53.8512C193.598 56.6363 189.918 59.1828 186.368 61.3016M186.368 61.3016C186.335 61.3209 186.303 61.3402 186.271 61.3594M186.368 61.3016C186.335 61.3219 186.303 61.3412 186.271 61.3594" stroke="#E8E7E5" stroke-width="1.61098"/>
<path d="M161.058 66.2949C157.505 67.026 152.735 70.2869 148.338 73.9377C148.946 76.5974 150.768 81.9387 153.198 82.0264C157.015 80.4318 160.878 78.1722 164.299 75.8502C164.33 75.829 164.361 75.8079 164.392 75.7867C166.882 74.0006 163.225 68.7332 161.058 66.2949Z" fill="#E8E7E5"/>
<path d="M161.058 66.2949C167.76 64.9155 171.182 68.13 172.055 69.9097C170.075 71.6355 167.408 73.7333 164.392 75.7867M161.058 66.2949C157.505 67.026 152.735 70.2869 148.338 73.9377M161.058 66.2949C163.225 68.7332 166.882 74.0006 164.392 75.7867M148.338 73.9377C144.44 77.1746 140.836 80.7181 138.635 83.0769C142.464 85.2122 147.784 84.2884 153.198 82.0264M148.338 73.9377C148.946 76.5974 150.768 81.9387 153.198 82.0264M153.198 82.0264C157.015 80.4318 160.878 78.1722 164.299 75.8502M164.299 75.8502C164.33 75.829 164.361 75.8079 164.392 75.7867M164.299 75.8502C164.331 75.8296 164.362 75.8084 164.392 75.7867" stroke="#E8E7E5" stroke-width="1.61098"/>
<path d="M17.7107 455.238H15.8555C15.8555 455.64 15.8508 456.036 15.8414 456.425C15.8319 456.814 15.8119 457.182 15.7813 457.531C15.7507 457.877 15.7047 458.196 15.6435 458.488C15.5822 458.781 15.4986 459.034 15.3926 459.248C15.2866 459.46 15.1547 459.626 14.9968 459.746C14.8413 459.864 14.6517 459.923 14.4279 459.923C14.3596 459.923 14.3019 459.917 14.2547 459.905C14.21 459.894 14.1605 459.881 14.1063 459.867V459.223C14.1322 459.235 14.164 459.246 14.2017 459.255C14.2418 459.262 14.2983 459.266 14.3714 459.266C14.4797 459.266 14.5728 459.227 14.6505 459.149C14.7306 459.069 14.7989 458.958 14.8555 458.817C14.912 458.676 14.9579 458.509 14.9933 458.315C15.031 458.12 15.0604 457.908 15.0816 457.679C15.1052 457.451 15.1217 457.209 15.1311 456.955C15.1429 456.7 15.1511 456.442 15.1558 456.181C15.1629 455.917 15.1664 455.654 15.1664 455.393C15.1688 455.129 15.1723 454.875 15.177 454.63H18.4068V459.824H17.7107V455.238ZM19.4811 454.63H23.2727V455.238H20.1737V456.842H23.0324V457.45H20.1737V459.216H23.3222V459.824H19.4811V454.63ZM24.3081 454.63H25.0007V457.16L27.5343 454.63H28.5025L26.3399 456.725L28.5626 459.824H27.6721L25.8417 457.206L25.0007 458.015V459.824H24.3081V454.63ZM29.1351 454.63H29.8277V459.216H32.591V454.63H33.2871V459.216H33.8207V460.937H33.1705V459.824H29.1351V454.63ZM34.4356 454.63H35.1282V458.831H35.1423L37.7855 454.63H38.5876V459.824H37.8915V455.598H37.8774L35.2377 459.824H34.4356V454.63ZM43.7609 459.824H43.0648V457.616H41.7715C41.6278 457.616 41.5064 457.618 41.4075 457.623C41.3109 457.625 41.2273 457.632 41.1566 457.644C41.0883 457.653 41.0294 457.667 40.9799 457.686C40.9328 457.703 40.8869 457.725 40.8421 457.753C40.7879 457.789 40.7408 457.829 40.7008 457.874C40.6607 457.916 40.6254 457.97 40.5948 458.036C40.5665 458.102 40.5429 458.183 40.5241 458.28C40.5052 458.377 40.4911 458.496 40.4817 458.637L40.4463 459.202C40.4416 459.271 40.4357 459.333 40.4287 459.39C40.4216 459.444 40.4122 459.494 40.4004 459.542C40.3886 459.589 40.3745 459.636 40.358 459.683C40.3439 459.728 40.325 459.775 40.3015 459.824H39.5029C39.5311 459.794 39.5582 459.759 39.5841 459.722C39.61 459.684 39.6336 459.639 39.6548 459.587C39.676 459.533 39.6948 459.47 39.7113 459.397C39.7278 459.324 39.7408 459.236 39.7502 459.135L39.8103 458.428C39.8197 458.311 39.8338 458.198 39.8527 458.089C39.8715 457.981 39.9057 457.88 39.9552 457.785C40.0046 457.691 40.0765 457.606 40.1707 457.531C40.2673 457.455 40.398 457.393 40.563 457.344C40.4876 457.315 40.3992 457.278 40.2979 457.231C40.1966 457.183 40.0989 457.114 40.0046 457.022C39.9128 456.93 39.8338 456.81 39.7679 456.662C39.7043 456.511 39.6725 456.32 39.6725 456.089C39.6725 455.924 39.6913 455.775 39.729 455.64C39.7667 455.506 39.8162 455.387 39.8774 455.283C39.9387 455.177 40.0082 455.088 40.0859 455.015C40.166 454.94 40.2473 454.878 40.3297 454.831C40.4169 454.782 40.517 454.743 40.6301 454.715C40.7455 454.686 40.8621 454.666 40.9799 454.654C41.0977 454.643 41.2108 454.636 41.3192 454.633C41.4299 454.631 41.5265 454.63 41.6089 454.63H43.7609V459.824ZM43.0648 455.245H41.4746C41.4134 455.245 41.351 455.246 41.2874 455.248C41.2238 455.248 41.1601 455.252 41.0965 455.259C41.0329 455.266 40.9717 455.278 40.9128 455.294C40.8539 455.308 40.7997 455.329 40.7502 455.358C40.6796 455.398 40.6195 455.447 40.57 455.506C40.5206 455.565 40.4793 455.63 40.4463 455.7C40.4157 455.771 40.3933 455.844 40.3792 455.92C40.3651 455.995 40.358 456.069 40.358 456.142C40.358 456.192 40.3615 456.247 40.3686 456.308C40.3757 456.367 40.391 456.43 40.4145 456.495C40.4381 456.559 40.4711 456.623 40.5135 456.686C40.5559 456.748 40.6124 456.804 40.6831 456.856C40.7443 456.903 40.8056 456.94 40.8669 456.965C40.9305 456.989 40.9976 457.007 41.0683 457.018C41.1389 457.028 41.2143 457.033 41.2944 457.033C41.3769 457.033 41.4676 457.031 41.5665 457.029H43.0648V455.245Z" fill="black"/>
<path d="M14.0809 466.242V465.754C14.5403 465.709 14.8607 465.635 15.0421 465.532C15.2234 465.426 15.3589 465.177 15.4484 464.786H15.9502V469.825H15.2717V466.242H14.0809ZM21.2012 464.85V465.404C21.0387 465.562 20.822 465.837 20.551 466.228C20.2825 466.619 20.0446 467.04 19.8372 467.493C19.6323 467.933 19.4768 468.335 19.3708 468.698C19.3025 468.931 19.2141 469.307 19.1058 469.825H18.4026C18.5628 468.859 18.9161 467.898 19.4627 466.941C19.7854 466.381 20.1247 465.897 20.4804 465.489H17.6817V464.85H21.2012ZM28.7315 467.228C28.7315 466.987 28.695 466.773 28.622 466.585C28.5489 466.394 28.437 466.232 28.2863 466.1C28.1378 465.969 27.9482 465.868 27.7173 465.8C27.4865 465.729 27.2144 465.694 26.9011 465.694V468.758C27.2144 468.758 27.4865 468.724 27.7173 468.655C27.9482 468.585 28.1378 468.485 28.2863 468.355C28.437 468.223 28.5489 468.063 28.622 467.874C28.695 467.684 28.7315 467.468 28.7315 467.228ZM26.2049 469.351C25.8139 469.351 25.4629 469.307 25.1519 469.217C24.8409 469.125 24.5771 468.99 24.3603 468.811C24.1436 468.632 23.9775 468.41 23.8621 468.146C23.7467 467.88 23.689 467.574 23.689 467.228C23.689 466.881 23.7467 466.576 23.8621 466.312C23.9775 466.046 24.1436 465.824 24.3603 465.645C24.5771 465.466 24.8409 465.331 25.1519 465.242C25.4629 465.15 25.8139 465.104 26.2049 465.104V464.524H26.9011V465.104C27.2921 465.104 27.6431 465.15 27.9541 465.242C28.2651 465.331 28.5289 465.466 28.7456 465.645C28.9624 465.824 29.1285 466.046 29.2439 466.312C29.3617 466.576 29.4206 466.881 29.4206 467.228C29.4206 467.574 29.3617 467.88 29.2439 468.146C29.1285 468.41 28.9624 468.632 28.7456 468.811C28.5289 468.99 28.2651 469.125 27.9541 469.217C27.6431 469.307 27.2921 469.351 26.9011 469.351V469.931H26.2049V469.351ZM24.3745 467.228C24.3745 467.468 24.411 467.684 24.484 467.874C24.5571 468.063 24.6678 468.223 24.8162 468.355C24.967 468.485 25.1566 468.585 25.3851 468.655C25.616 468.724 25.8893 468.758 26.2049 468.758V465.694C25.8893 465.694 25.616 465.729 25.3851 465.8C25.1566 465.868 24.967 465.969 24.8162 466.1C24.6678 466.232 24.5571 466.394 24.484 466.585C24.411 466.773 24.3745 466.987 24.3745 467.228ZM30.1874 464.63H33.979V465.238H30.88V466.843H33.7387V467.45H30.88V469.217H34.0285V469.825H30.1874V464.63ZM35.0144 464.63H36.8731C37.078 464.63 37.2571 464.636 37.4102 464.648C37.5633 464.658 37.707 464.68 37.8413 464.715C37.9685 464.751 38.0875 464.802 38.1982 464.871C38.3113 464.937 38.4102 465.022 38.495 465.125C38.5799 465.226 38.6458 465.345 38.6929 465.482C38.7424 465.616 38.7671 465.768 38.7671 465.938C38.7671 466.027 38.7554 466.124 38.7318 466.228C38.7082 466.331 38.6694 466.434 38.6152 466.535C38.561 466.634 38.4892 466.727 38.3996 466.814C38.3125 466.899 38.2041 466.969 38.0745 467.023C38.1806 467.058 38.2889 467.108 38.3996 467.171C38.5104 467.235 38.6105 467.317 38.7 467.419C38.7919 467.517 38.8673 467.639 38.9262 467.782C38.9851 467.924 39.0145 468.093 39.0145 468.291C39.0145 468.404 39.0004 468.522 38.9721 468.645C38.9462 468.765 38.9026 468.881 38.8413 468.995C38.7825 469.108 38.7059 469.215 38.6117 469.316C38.5174 469.417 38.4032 469.506 38.2689 469.581C38.1346 469.657 37.9791 469.717 37.8024 469.761C37.6281 469.804 37.4291 469.825 37.2053 469.825H35.0144V464.63ZM37.1028 469.217C37.3289 469.217 37.5186 469.196 37.6717 469.154C37.8272 469.109 37.952 469.048 38.0463 468.97C38.1429 468.89 38.2124 468.794 38.2548 468.684C38.2972 468.573 38.3184 468.449 38.3184 468.313C38.3184 468.176 38.2972 468.052 38.2548 467.942C38.2124 467.831 38.1429 467.737 38.0463 467.659C37.952 467.579 37.8272 467.517 37.6717 467.475C37.5186 467.43 37.3289 467.408 37.1028 467.408H35.707V469.217H37.1028ZM37.0038 466.843C37.2323 466.843 37.4161 466.821 37.5551 466.779C37.6964 466.734 37.8048 466.675 37.8802 466.602C37.9579 466.527 38.0098 466.439 38.0357 466.337C38.0616 466.236 38.0745 466.128 38.0745 466.012C38.0745 465.89 38.0557 465.781 38.018 465.687C37.9827 465.59 37.9226 465.509 37.8378 465.443C37.753 465.377 37.6423 465.327 37.5056 465.291C37.369 465.256 37.2017 465.238 37.0038 465.238H35.707V466.843H37.0038ZM41.9545 467.062C42.322 467.062 42.587 466.984 42.7496 466.828C42.9121 466.673 42.9934 466.447 42.9934 466.15C42.9934 465.853 42.9121 465.627 42.7496 465.471C42.587 465.316 42.322 465.238 41.9545 465.238H40.534V467.062H41.9545ZM39.8414 464.63H42.0252C42.3102 464.63 42.5564 464.667 42.7637 464.74C42.9734 464.813 43.1465 464.917 43.2832 465.051C43.4198 465.183 43.5211 465.342 43.5871 465.528C43.6554 465.714 43.6896 465.921 43.6896 466.15C43.6896 466.378 43.6554 466.586 43.5871 466.772C43.5211 466.958 43.4198 467.118 43.2832 467.252C43.1465 467.384 42.9734 467.487 42.7637 467.56C42.5564 467.633 42.3102 467.669 42.0252 467.669H40.534V469.825H39.8414V464.63ZM47.4176 467.684L46.626 465.373L45.7497 467.684H47.4176ZM44.2585 469.825L46.2055 464.549H47.0501L48.9335 469.825H48.1632L47.6155 468.235H45.573L44.9935 469.825H44.2585ZM52.7782 465.238H50.923C50.923 465.641 50.9183 466.037 50.9088 466.426C50.8994 466.814 50.8794 467.183 50.8488 467.532C50.8182 467.878 50.7722 468.197 50.711 468.489C50.6497 468.781 50.5661 469.035 50.4601 469.249C50.3541 469.461 50.2221 469.627 50.0643 469.747C49.9088 469.865 49.7192 469.924 49.4954 469.924C49.4271 469.924 49.3693 469.918 49.3222 469.906C49.2775 469.894 49.228 469.881 49.1738 469.867V469.224C49.1997 469.236 49.2315 469.247 49.2692 469.256C49.3093 469.263 49.3658 469.267 49.4388 469.267C49.5472 469.267 49.6403 469.228 49.718 469.15C49.7981 469.07 49.8664 468.959 49.923 468.818C49.9795 468.677 50.0254 468.509 50.0608 468.316C50.0985 468.121 50.1279 467.909 50.1491 467.68C50.1727 467.451 50.1892 467.21 50.1986 466.956C50.2104 466.701 50.2186 466.443 50.2233 466.182C50.2304 465.918 50.2339 465.655 50.2339 465.394C50.2363 465.13 50.2398 464.875 50.2445 464.63H53.4743V469.825H52.7782V465.238ZM58.6441 469.825H57.9479V467.616H56.6546C56.5109 467.616 56.3896 467.619 56.2906 467.623C56.194 467.626 56.1104 467.633 56.0397 467.645C55.9714 467.654 55.9125 467.668 55.8631 467.687C55.8159 467.704 55.77 467.726 55.7252 467.754C55.6711 467.79 55.6239 467.83 55.5839 467.874C55.5439 467.917 55.5085 467.971 55.4779 468.037C55.4496 468.103 55.4261 468.184 55.4072 468.281C55.3884 468.377 55.3742 468.496 55.3648 468.638L55.3295 469.203C55.3248 469.271 55.3189 469.334 55.3118 469.39C55.3047 469.444 55.2953 469.495 55.2835 469.542C55.2718 469.589 55.2576 469.636 55.2411 469.684C55.227 469.728 55.2082 469.775 55.1846 469.825H54.386C54.4143 469.794 54.4413 469.76 54.4673 469.722C54.4932 469.685 54.5167 469.64 54.5379 469.588C54.5591 469.534 54.578 469.47 54.5945 469.397C54.611 469.324 54.6239 469.237 54.6333 469.136L54.6934 468.429C54.7028 468.311 54.717 468.198 54.7358 468.09C54.7547 467.982 54.7888 467.88 54.8383 467.786C54.8878 467.692 54.9596 467.607 55.0538 467.532C55.1504 467.456 55.2812 467.394 55.4461 467.344C55.3707 467.316 55.2824 467.278 55.1811 467.231C55.0798 467.184 54.982 467.115 54.8878 467.023C54.7959 466.931 54.717 466.811 54.651 466.662C54.5874 466.512 54.5556 466.321 54.5556 466.09C54.5556 465.925 54.5744 465.775 54.6121 465.641C54.6498 465.507 54.6993 465.388 54.7606 465.284C54.8218 465.178 54.8913 465.089 54.969 465.016C55.0491 464.94 55.1304 464.879 55.2129 464.832C55.3 464.782 55.4001 464.744 55.5132 464.715C55.6287 464.687 55.7453 464.667 55.8631 464.655C55.9808 464.643 56.0939 464.636 56.2023 464.634C56.313 464.632 56.4096 464.63 56.4921 464.63H58.6441V469.825ZM57.9479 465.245H56.3578C56.2965 465.245 56.2341 465.246 56.1705 465.249C56.1069 465.249 56.0433 465.252 55.9797 465.259C55.9161 465.267 55.8548 465.278 55.7959 465.295C55.737 465.309 55.6828 465.33 55.6334 465.358C55.5627 465.398 55.5026 465.448 55.4532 465.507C55.4037 465.566 55.3625 465.63 55.3295 465.701C55.2988 465.772 55.2765 465.845 55.2623 465.92C55.2482 465.996 55.2411 466.07 55.2411 466.143C55.2411 466.192 55.2447 466.248 55.2517 466.309C55.2588 466.368 55.2741 466.43 55.2977 466.496C55.3212 466.56 55.3542 466.623 55.3966 466.687C55.439 466.748 55.4956 466.805 55.5662 466.857C55.6275 466.904 55.6887 466.94 55.75 466.966C55.8136 466.99 55.8807 467.007 55.9514 467.019C56.0221 467.029 56.0975 467.033 56.1776 467.033C56.26 467.033 56.3507 467.032 56.4496 467.03H57.9479V465.245ZM61.8915 466.242V465.754C62.3509 465.709 62.6713 465.635 62.8527 465.532C63.0341 465.426 63.1695 465.177 63.259 464.786H63.7608V469.825H63.0824V466.242H61.8915ZM67.1956 466.885C67.4759 466.885 67.695 466.807 67.8528 466.652C68.0107 466.494 68.0896 466.307 68.0896 466.09C68.0896 465.901 68.0142 465.728 67.8634 465.57C67.7126 465.413 67.483 465.334 67.1744 465.334C66.8681 465.334 66.6467 465.413 66.51 465.57C66.3734 465.728 66.3051 465.913 66.3051 466.125C66.3051 466.363 66.3934 466.549 66.5701 466.684C66.7468 466.818 66.9553 466.885 67.1956 466.885ZM67.2344 469.39C67.5289 469.39 67.7727 469.311 67.9659 469.154C68.1614 468.993 68.2592 468.755 68.2592 468.44C68.2592 468.112 68.1591 467.864 67.9588 467.694C67.7586 467.525 67.5018 467.44 67.1885 467.44C66.8846 467.44 66.6361 467.527 66.4429 467.701C66.2521 467.873 66.1567 468.112 66.1567 468.419C66.1567 468.682 66.2438 468.911 66.4181 469.104C66.5948 469.295 66.8669 469.39 67.2344 469.39ZM66.3298 467.129C66.1531 467.053 66.0153 466.965 65.9164 466.864C65.7303 466.675 65.6372 466.43 65.6372 466.129C65.6372 465.752 65.7738 465.428 66.0471 465.157C66.3204 464.886 66.7079 464.751 67.2097 464.751C67.695 464.751 68.0754 464.879 68.3511 465.136C68.6267 465.39 68.7645 465.688 68.7645 466.03C68.7645 466.345 68.6844 466.601 68.5242 466.797C68.4347 466.907 68.2957 467.016 68.1072 467.122C68.3169 467.218 68.4818 467.329 68.602 467.454C68.8258 467.689 68.9377 467.996 68.9377 468.373C68.9377 468.818 68.7881 469.196 68.4889 469.507C68.1897 469.816 67.7668 469.97 67.2203 469.97C66.7279 469.97 66.311 469.837 65.9694 469.571C65.6301 469.302 65.4605 468.913 65.4605 468.404C65.4605 468.105 65.5336 467.847 65.6796 467.631C65.8257 467.411 66.0424 467.244 66.3298 467.129ZM70.0578 466.09H70.7964V466.86H70.0578V466.09ZM70.0578 469.055H70.7964V469.825H70.0578V469.055ZM73.2275 464.765C73.8824 464.765 74.356 465.034 74.6481 465.574C74.8742 465.991 74.9873 466.562 74.9873 467.288C74.9873 467.976 74.8848 468.545 74.6799 468.995C74.383 469.64 73.8978 469.963 73.224 469.963C72.6162 469.963 72.1639 469.699 71.8671 469.171C71.6197 468.731 71.496 468.139 71.496 467.397C71.496 466.823 71.5702 466.329 71.7187 465.917C71.9966 465.149 72.4996 464.765 73.2275 464.765ZM73.2205 469.383C73.5503 469.383 73.813 469.237 74.0085 468.945C74.204 468.653 74.3018 468.109 74.3018 467.313C74.3018 466.738 74.2311 466.265 74.0898 465.896C73.9484 465.523 73.674 465.337 73.2664 465.337C72.8918 465.337 72.6174 465.514 72.4431 465.867C72.2711 466.218 72.1851 466.737 72.1851 467.422C72.1851 467.938 72.2405 468.353 72.3512 468.666C72.5208 469.144 72.8106 469.383 73.2205 469.383ZM77.2559 464.765C77.9108 464.765 78.3843 465.034 78.6765 465.574C78.9026 465.991 79.0157 466.562 79.0157 467.288C79.0157 467.976 78.9132 468.545 78.7083 468.995C78.4114 469.64 77.9261 469.963 77.2524 469.963C76.6446 469.963 76.1923 469.699 75.8955 469.171C75.6481 468.731 75.5244 468.139 75.5244 467.397C75.5244 466.823 75.5986 466.329 75.747 465.917C76.025 465.149 76.528 464.765 77.2559 464.765ZM77.2489 469.383C77.5787 469.383 77.8413 469.237 78.0369 468.945C78.2324 468.653 78.3302 468.109 78.3302 467.313C78.3302 466.738 78.2595 466.265 78.1181 465.896C77.9768 465.523 77.7023 465.337 77.2948 465.337C76.9202 465.337 76.6458 465.514 76.4715 465.867C76.2995 466.218 76.2135 466.737 76.2135 467.422C76.2135 467.938 76.2689 468.353 76.3796 468.666C76.5492 469.144 76.839 469.383 77.2489 469.383Z" fill="black"/>
<path d="M15.8149 479.13C15.8408 479.151 15.8749 479.173 15.9173 479.197C15.9598 479.218 16.0057 479.238 16.0552 479.257C16.1046 479.273 16.1553 479.288 16.2071 479.299C16.2613 479.309 16.3131 479.314 16.3626 479.314C16.4686 479.314 16.5593 479.299 16.6347 479.271C16.7124 479.241 16.7784 479.202 16.8326 479.155C16.8891 479.105 16.935 479.05 16.9704 478.988C17.0057 478.925 17.034 478.859 17.0552 478.791L14.9244 474.631H15.7336L17.451 478.073L18.7514 474.631H19.5358L17.9033 478.515C17.7902 478.774 17.6842 478.996 17.5852 479.179C17.4887 479.361 17.3826 479.509 17.2672 479.625C17.1541 479.74 17.0246 479.824 16.8785 479.875C16.7348 479.93 16.5605 479.957 16.3555 479.957C16.2495 479.957 16.1459 479.943 16.0446 479.914C15.9433 479.886 15.8655 479.849 15.8113 479.805L15.8149 479.13ZM23.3204 475.239H21.4652C21.4652 475.642 21.4605 476.038 21.4511 476.427C21.4417 476.815 21.4216 477.184 21.391 477.533C21.3604 477.879 21.3144 478.198 21.2532 478.49C21.1919 478.782 21.1083 479.036 21.0023 479.25C20.8963 479.462 20.7644 479.628 20.6065 479.748C20.4511 479.866 20.2614 479.925 20.0376 479.925C19.9693 479.925 19.9116 479.919 19.8645 479.907C19.8197 479.895 19.7702 479.882 19.716 479.868V479.225C19.742 479.237 19.7738 479.248 19.8115 479.257C19.8515 479.264 19.908 479.268 19.9811 479.268C20.0894 479.268 20.1825 479.229 20.2602 479.151C20.3403 479.071 20.4086 478.96 20.4652 478.819C20.5217 478.677 20.5677 478.51 20.603 478.317C20.6407 478.122 20.6701 477.909 20.6913 477.681C20.7149 477.452 20.7314 477.211 20.7408 476.957C20.7526 476.702 20.7608 476.444 20.7655 476.183C20.7726 475.919 20.7761 475.656 20.7761 475.395C20.7785 475.131 20.782 474.876 20.7867 474.631H24.0165V479.826H23.3204V475.239ZM25.172 479.056H25.9106V479.826H25.172V479.056ZM26.6703 474.631H30.8966V475.239H29.1298V479.826H28.4336V475.239H26.6703V474.631ZM31.5291 474.631H35.3208V475.239H32.2217V476.844H35.0805V477.451H32.2217V479.218H35.3702V479.826H31.5291V474.631ZM36.3561 474.631H37.0487V476.773H39.8121V474.631H40.5082V479.826H39.8121V477.381H37.0487V479.826H36.3561V474.631ZM41.586 474.631H45.3776V475.239H42.2786V476.844H45.1373V477.451H42.2786V479.218H45.4271V479.826H41.586V474.631ZM46.413 474.631H48.2717C48.4766 474.631 48.6557 474.637 48.8088 474.649C48.9619 474.659 49.1056 474.681 49.2399 474.716C49.3671 474.752 49.4861 474.803 49.5968 474.872C49.7099 474.938 49.8088 475.022 49.8936 475.126C49.9784 475.227 50.0444 475.346 50.0915 475.483C50.141 475.617 50.1657 475.769 50.1657 475.939C50.1657 476.028 50.1539 476.125 50.1304 476.229C50.1068 476.332 50.068 476.435 50.0138 476.536C49.9596 476.635 49.8877 476.728 49.7982 476.815C49.7111 476.9 49.6027 476.97 49.4731 477.024C49.5791 477.059 49.6875 477.109 49.7982 477.172C49.9089 477.236 50.0091 477.318 50.0986 477.419C50.1905 477.518 50.2658 477.64 50.3247 477.783C50.3836 477.925 50.4131 478.094 50.4131 478.292C50.4131 478.405 50.3989 478.523 50.3707 478.646C50.3448 478.766 50.3012 478.882 50.2399 478.996C50.181 479.109 50.1045 479.216 50.0102 479.317C49.916 479.418 49.8018 479.507 49.6675 479.582C49.5332 479.657 49.3777 479.718 49.201 479.762C49.0267 479.805 48.8276 479.826 48.6038 479.826H46.413V474.631ZM48.5014 479.218C48.7275 479.218 48.9172 479.197 49.0703 479.155C49.2258 479.11 49.3506 479.049 49.4449 478.971C49.5414 478.891 49.6109 478.795 49.6533 478.685C49.6957 478.574 49.7169 478.45 49.7169 478.314C49.7169 478.177 49.6957 478.053 49.6533 477.942C49.6109 477.832 49.5414 477.738 49.4449 477.66C49.3506 477.58 49.2258 477.518 49.0703 477.476C48.9172 477.431 48.7275 477.409 48.5014 477.409H47.1056V479.218H48.5014ZM48.4024 476.844C48.6309 476.844 48.8147 476.822 48.9537 476.78C49.095 476.735 49.2034 476.676 49.2788 476.603C49.3565 476.528 49.4083 476.439 49.4342 476.338C49.4602 476.237 49.4731 476.129 49.4731 476.013C49.4731 475.891 49.4543 475.782 49.4166 475.688C49.3812 475.591 49.3212 475.51 49.2364 475.444C49.1516 475.378 49.0408 475.328 48.9042 475.292C48.7676 475.257 48.6003 475.239 48.4024 475.239H47.1056V476.844H48.4024ZM53.9892 477.685L53.1976 475.373L52.3213 477.685H53.9892ZM50.8301 479.826L52.7771 474.55H53.6217L55.5051 479.826H54.7348L54.187 478.236H52.1446L51.5651 479.826H50.8301ZM60.2473 479.826H59.5512V477.617H58.2578C58.1141 477.617 57.9928 477.62 57.8939 477.624C57.7973 477.627 57.7136 477.634 57.643 477.646C57.5747 477.655 57.5158 477.669 57.4663 477.688C57.4192 477.705 57.3732 477.727 57.3285 477.755C57.2743 477.791 57.2272 477.831 57.1871 477.875C57.1471 477.918 57.1117 477.972 57.0811 478.038C57.0529 478.104 57.0293 478.185 57.0104 478.282C56.9916 478.378 56.9775 478.497 56.968 478.639L56.9327 479.204C56.928 479.272 56.9221 479.335 56.915 479.391C56.908 479.445 56.8985 479.496 56.8868 479.543C56.875 479.59 56.8609 479.637 56.8444 479.685C56.8302 479.729 56.8114 479.776 56.7878 479.826H55.9892C56.0175 479.795 56.0446 479.761 56.0705 479.723C56.0964 479.686 56.12 479.641 56.1412 479.589C56.1624 479.535 56.1812 479.471 56.1977 479.398C56.2142 479.325 56.2272 479.238 56.2366 479.137L56.2966 478.43C56.3061 478.312 56.3202 478.199 56.3391 478.091C56.3579 477.983 56.3921 477.881 56.4415 477.787C56.491 477.693 56.5628 477.608 56.6571 477.533C56.7537 477.457 56.8844 477.395 57.0493 477.345C56.9739 477.317 56.8856 477.279 56.7843 477.232C56.683 477.185 56.5852 477.116 56.491 477.024C56.3991 476.932 56.3202 476.812 56.2542 476.663C56.1906 476.513 56.1588 476.322 56.1588 476.091C56.1588 475.926 56.1777 475.776 56.2154 475.642C56.2531 475.508 56.3025 475.389 56.3638 475.285C56.425 475.179 56.4945 475.09 56.5723 475.017C56.6524 474.941 56.7336 474.88 56.8161 474.833C56.9033 474.783 57.0034 474.745 57.1165 474.716C57.2319 474.688 57.3485 474.668 57.4663 474.656C57.5841 474.644 57.6972 474.637 57.8055 474.635C57.9162 474.633 58.0128 474.631 58.0953 474.631H60.2473V479.826ZM59.5512 475.246H57.961C57.8998 475.246 57.8373 475.247 57.7737 475.25C57.7101 475.25 57.6465 475.253 57.5829 475.26C57.5193 475.267 57.458 475.279 57.3992 475.296C57.3403 475.31 57.2861 475.331 57.2366 475.359C57.1659 475.399 57.1059 475.449 57.0564 475.508C57.0069 475.567 56.9657 475.631 56.9327 475.702C56.9021 475.773 56.8797 475.846 56.8656 475.921C56.8514 475.997 56.8444 476.071 56.8444 476.144C56.8444 476.193 56.8479 476.249 56.855 476.31C56.862 476.369 56.8773 476.431 56.9009 476.497C56.9245 476.561 56.9574 476.624 56.9998 476.688C57.0423 476.749 57.0988 476.806 57.1695 476.858C57.2307 476.905 57.292 476.941 57.3532 476.967C57.4168 476.991 57.484 477.008 57.5546 477.02C57.6253 477.03 57.7007 477.034 57.7808 477.034C57.8632 477.034 57.9539 477.033 58.0529 477.031H59.5512V475.246ZM61.3887 480.564C61.5512 480.536 61.6655 480.422 61.7314 480.222C61.7668 480.116 61.7844 480.013 61.7844 479.914C61.7844 479.898 61.7833 479.882 61.7809 479.868C61.7809 479.857 61.7786 479.842 61.7738 479.826H61.3887V479.056H62.1449V479.769C62.1449 480.05 62.0883 480.296 61.9753 480.508C61.8622 480.72 61.6667 480.851 61.3887 480.9V480.564ZM68.6009 474.851V475.405C68.4384 475.563 68.2216 475.838 67.9507 476.229C67.6821 476.62 67.4442 477.041 67.2369 477.494C67.032 477.934 66.8765 478.336 66.7705 478.699C66.7021 478.932 66.6138 479.308 66.5054 479.826H65.8022C65.9624 478.86 66.3158 477.899 66.8623 476.942C67.1851 476.382 67.5243 475.898 67.88 475.49H65.0814V474.851H68.6009Z" fill="black"/>
<path d="M17.4475 444.199C17.6258 444.244 17.7804 444.304 17.9115 444.38C18.0426 444.456 18.1527 444.544 18.2418 444.644C18.3309 444.743 18.4017 444.848 18.4541 444.958C18.5066 445.066 18.5433 445.176 18.5642 445.288C18.5878 445.401 18.5996 445.509 18.5996 445.611C18.5996 445.758 18.5865 445.89 18.5603 446.008C18.5341 446.123 18.4921 446.23 18.4345 446.327C18.3794 446.421 18.306 446.507 18.2143 446.586C18.1251 446.662 18.0177 446.732 17.8918 446.794C18.0858 446.868 18.2418 446.958 18.3598 447.066C18.4777 447.173 18.5682 447.29 18.6311 447.416C18.694 447.539 18.7359 447.667 18.7569 447.801C18.7779 447.932 18.7884 448.059 18.7884 448.182C18.7884 448.463 18.7372 448.711 18.635 448.926C18.5328 449.141 18.3886 449.321 18.2025 449.468C18.0164 449.612 17.7896 449.723 17.5222 449.799C17.2575 449.875 16.9626 449.913 16.6375 449.913H13.9873V444.132H16.8223C17.0582 444.132 17.2666 444.155 17.4475 444.199ZM16.9717 447.384C16.8564 447.369 16.7397 447.361 16.6218 447.361H15.1472V448.914H16.6532C16.7869 448.914 16.9101 448.898 17.0228 448.867C17.1356 448.835 17.2326 448.788 17.3138 448.725C17.3977 448.66 17.4619 448.578 17.5065 448.481C17.5537 448.382 17.5773 448.265 17.5773 448.131C17.5773 447.964 17.5497 447.83 17.4947 447.73C17.4396 447.628 17.3662 447.549 17.2745 447.494C17.1854 447.439 17.0844 447.403 16.9717 447.384ZM17.1998 446.256C17.2732 446.203 17.3322 446.135 17.3767 446.051C17.4213 445.967 17.4436 445.866 17.4436 445.748C17.4436 445.625 17.4226 445.524 17.3807 445.446C17.3413 445.364 17.2863 445.3 17.2155 445.253C17.1447 445.206 17.0622 445.173 16.9678 445.155C16.8734 445.136 16.7738 445.127 16.669 445.127H15.1472V446.409H16.6375C16.7424 446.409 16.8433 446.397 16.9403 446.374C17.0373 446.35 17.1238 446.311 17.1998 446.256ZM21.5369 448.875C21.7099 448.966 21.9065 449.012 22.1267 449.012C22.381 449.012 22.5881 448.973 22.748 448.894C22.9079 448.816 23.035 448.72 23.1294 448.607C23.2264 448.494 23.2985 448.376 23.3457 448.253C23.3929 448.13 23.4296 448.023 23.4558 447.931H24.6551C24.5895 448.293 24.4807 448.607 24.3287 448.875C24.1767 449.139 23.9919 449.359 23.7743 449.535C23.5567 449.711 23.3116 449.842 23.039 449.928C22.769 450.015 22.4806 450.058 22.1739 450.058C21.744 450.058 21.3626 449.987 21.0297 449.846C20.6994 449.702 20.4202 449.497 20.1921 449.232C19.9667 448.968 19.795 448.649 19.677 448.277C19.5591 447.902 19.5001 447.484 19.5001 447.022C19.5001 446.666 19.5342 446.344 19.6023 446.055C19.6705 445.767 19.7648 445.511 19.8854 445.288C20.0086 445.063 20.1528 444.869 20.318 444.706C20.4831 444.541 20.6627 444.406 20.8567 444.301C21.0533 444.194 21.259 444.115 21.474 444.066C21.689 444.013 21.9065 443.987 22.1267 443.987C22.4413 443.987 22.7205 444.02 22.9643 444.085C23.2081 444.151 23.4217 444.239 23.6052 444.349C23.7887 444.459 23.9447 444.585 24.0731 444.726C24.2042 444.868 24.3104 445.014 24.3916 445.167C24.4755 445.316 24.5371 445.467 24.5764 445.619C24.6184 445.768 24.6446 445.906 24.6551 446.032H23.4479C23.4322 445.977 23.4125 445.914 23.3889 445.843C23.3653 445.769 23.3326 445.696 23.2906 445.623C23.2513 445.549 23.2002 445.477 23.1373 445.406C23.077 445.336 23.001 445.273 22.9092 445.218C22.8175 445.163 22.7074 445.118 22.5789 445.084C22.4505 445.05 22.2997 445.033 22.1267 445.033C22.0533 445.033 21.9668 445.042 21.8672 445.06C21.7676 445.079 21.6654 445.114 21.5605 445.167C21.4556 445.216 21.3521 445.287 21.2499 445.379C21.1476 445.471 21.0559 445.591 20.9746 445.741C20.896 445.887 20.8318 446.066 20.7819 446.275C20.7321 446.485 20.7072 446.734 20.7072 447.022C20.7072 447.334 20.74 447.614 20.8055 447.86C20.8711 448.106 20.9654 448.315 21.0886 448.485C21.2119 448.656 21.3613 448.785 21.5369 448.875ZM25.064 444.132H29.7983V445.127H28.0328V449.913H26.8256V445.127H25.064V444.132ZM33.8877 447.699C33.6517 447.791 33.3844 447.836 33.0855 447.836H31.7643V449.913H30.5572V444.132H33.1838C33.4905 444.132 33.7566 444.174 33.982 444.258C34.2101 444.342 34.3988 444.464 34.5483 444.624C34.6977 444.784 34.8091 444.978 34.8825 445.206C34.9559 445.434 34.9926 445.693 34.9926 445.984C34.9926 446.254 34.9493 446.503 34.8628 446.732C34.7763 446.957 34.6505 447.152 34.4854 447.317C34.3228 447.48 34.1236 447.607 33.8877 447.699ZM31.7643 446.838H32.9086C33.1812 446.838 33.3948 446.771 33.5495 446.637C33.7068 446.503 33.7854 446.286 33.7854 445.984C33.7854 445.832 33.7645 445.703 33.7225 445.595C33.6832 445.488 33.6255 445.4 33.5495 445.332C33.4761 445.261 33.3844 445.21 33.2743 445.178C33.1668 445.144 33.0449 445.127 32.9086 445.127H31.7643V446.838ZM39.9235 447.408H37.0884V448.867H40.3088V449.913H35.9284V444.132H40.1712V445.127H37.0884V446.409H39.9235V447.408ZM42.9551 447.777C42.866 447.783 42.8031 447.785 42.7664 447.785C42.4806 447.785 42.2382 447.762 42.0389 447.715C41.8397 447.667 41.6746 447.604 41.5435 447.526C41.4124 447.447 41.3102 447.355 41.2368 447.251C41.1634 447.146 41.1083 447.037 41.0716 446.924C41.0349 446.811 41.0127 446.697 41.0048 446.582C40.9969 446.467 40.993 446.358 40.993 446.256V444.132H42.153V445.965C42.153 446.153 42.1713 446.308 42.208 446.429C42.2447 446.547 42.3037 446.64 42.385 446.708C42.4662 446.776 42.5711 446.823 42.6995 446.849C42.8306 446.873 42.9892 446.885 43.1753 446.885C43.2513 446.885 43.3378 446.882 43.4348 446.877C43.5344 446.869 43.6341 446.859 43.7337 446.846C43.8359 446.832 43.9342 446.817 44.0286 446.798C44.1256 446.777 44.2121 446.755 44.2881 446.732V444.132H45.4953V449.913H44.2881V447.601C44.0863 447.642 43.9001 447.677 43.7297 447.703C43.5594 447.726 43.4086 447.745 43.2776 447.758C43.1491 447.768 43.0416 447.775 42.9551 447.777ZM51.6647 449.913H50.3514L49.9818 448.721H47.8467L47.4456 449.913H46.1716L48.2399 444.132H49.62L51.6647 449.913ZM49.6436 447.722L48.9241 445.434H48.9083L48.1691 447.722H49.6436ZM56.4619 448.875C56.6349 448.966 56.8315 449.012 57.0517 449.012C57.306 449.012 57.5131 448.973 57.673 448.894C57.8329 448.816 57.9601 448.72 58.0544 448.607C58.1514 448.494 58.2235 448.376 58.2707 448.253C58.3179 448.13 58.3546 448.023 58.3808 447.931H59.5801C59.5146 448.293 59.4058 448.607 59.2537 448.875C59.1017 449.139 58.9169 449.359 58.6993 449.535C58.4817 449.711 58.2366 449.842 57.964 449.928C57.694 450.015 57.4056 450.058 57.0989 450.058C56.669 450.058 56.2876 449.987 55.9547 449.846C55.6244 449.702 55.3452 449.497 55.1171 449.232C54.8917 448.968 54.72 448.649 54.602 448.277C54.4841 447.902 54.4251 447.484 54.4251 447.022C54.4251 446.666 54.4592 446.344 54.5273 446.055C54.5955 445.767 54.6898 445.511 54.8104 445.288C54.9336 445.063 55.0778 444.869 55.243 444.706C55.4081 444.541 55.5877 444.406 55.7817 444.301C55.9783 444.194 56.1841 444.115 56.399 444.066C56.614 444.013 56.8315 443.987 57.0517 443.987C57.3663 443.987 57.6455 444.02 57.8893 444.085C58.1331 444.151 58.3467 444.239 58.5302 444.349C58.7137 444.459 58.8697 444.585 58.9981 444.726C59.1292 444.868 59.2354 445.014 59.3166 445.167C59.4005 445.316 59.4621 445.467 59.5014 445.619C59.5434 445.768 59.5696 445.906 59.5801 446.032H58.3729C58.3572 445.977 58.3375 445.914 58.3139 445.843C58.2904 445.769 58.2576 445.696 58.2156 445.623C58.1763 445.549 58.1252 445.477 58.0623 445.406C58.002 445.336 57.926 445.273 57.8342 445.218C57.7425 445.163 57.6324 445.118 57.5039 445.084C57.3755 445.05 57.2248 445.033 57.0517 445.033C56.9783 445.033 56.8918 445.042 56.7922 445.06C56.6926 445.079 56.5904 445.114 56.4855 445.167C56.3807 445.216 56.2771 445.287 56.1749 445.379C56.0726 445.471 55.9809 445.591 55.8996 445.741C55.821 445.887 55.7568 446.066 55.707 446.275C55.6571 446.485 55.6322 446.734 55.6322 447.022C55.6322 447.334 55.665 447.614 55.7305 447.86C55.7961 448.106 55.8905 448.315 56.0137 448.485C56.1369 448.656 56.2863 448.785 56.4619 448.875ZM66.2214 449.913V446H66.2057L63.9211 449.913H62.6943V444.132H63.8543V448.068H63.87L66.1585 444.132H67.3814V449.913H66.2214ZM70.3423 448.875C70.5153 448.966 70.7119 449.012 70.9321 449.012C71.1864 449.012 71.3935 448.973 71.5534 448.894C71.7133 448.816 71.8404 448.72 71.9348 448.607C72.0318 448.494 72.1039 448.376 72.151 448.253C72.1982 448.13 72.2349 448.023 72.2611 447.931H73.4604C73.3949 448.293 73.2861 448.607 73.1341 448.875C72.982 449.139 72.7972 449.359 72.5796 449.535C72.3621 449.711 72.117 449.842 71.8443 449.928C71.5743 450.015 71.286 450.058 70.9793 450.058C70.5494 450.058 70.1679 449.987 69.835 449.846C69.5047 449.702 69.2256 449.497 68.9975 449.232C68.7721 448.968 68.6003 448.649 68.4824 448.277C68.3644 447.902 68.3054 447.484 68.3054 447.022C68.3054 446.666 68.3395 446.344 68.4077 446.055C68.4758 445.767 68.5702 445.511 68.6908 445.288C68.814 445.063 68.9582 444.869 69.1233 444.706C69.2885 444.541 69.468 444.406 69.662 444.301C69.8586 444.194 70.0644 444.115 70.2794 444.066C70.4943 444.013 70.7119 443.987 70.9321 443.987C71.2467 443.987 71.5258 444.02 71.7696 444.085C72.0134 444.151 72.2271 444.239 72.4106 444.349C72.5941 444.459 72.75 444.585 72.8785 444.726C73.0096 444.868 73.1157 445.014 73.197 445.167C73.2809 445.316 73.3425 445.467 73.3818 445.619C73.4237 445.768 73.45 445.906 73.4604 446.032H72.2533C72.2376 445.977 72.2179 445.914 72.1943 445.843C72.1707 445.769 72.1379 445.696 72.096 445.623C72.0567 445.549 72.0056 445.477 71.9426 445.406C71.8824 445.336 71.8063 445.273 71.7146 445.218C71.6228 445.163 71.5127 445.118 71.3843 445.084C71.2558 445.05 71.1051 445.033 70.9321 445.033C70.8587 445.033 70.7722 445.042 70.6726 445.06C70.573 445.079 70.4707 445.114 70.3659 445.167C70.261 445.216 70.1575 445.287 70.0552 445.379C69.953 445.471 69.8612 445.591 69.78 445.741C69.7013 445.887 69.6371 446.066 69.5873 446.275C69.5375 446.485 69.5126 446.734 69.5126 447.022C69.5126 447.334 69.5454 447.614 69.6109 447.86C69.6764 448.106 69.7708 448.315 69.894 448.485C70.0172 448.656 70.1666 448.785 70.3423 448.875ZM73.8694 444.132H78.6036V445.127H76.8381V449.913H75.631V445.127H73.8694V444.132ZM82.7913 449.913V446H82.7756L80.4911 449.913H79.2642V444.132H80.4242V448.068H80.4399L82.7284 444.132H83.9513V449.913H82.7913ZM88.5637 449.913V447.329H86.2949V449.913H85.0838V444.132H86.2949V446.33H88.5637V444.132H89.7708V449.913H88.5637ZM94.3832 449.913V447.329H92.1144V449.913H90.9033V444.132H92.1144V446.33H94.3832V444.132H95.5904V449.913H94.3832ZM98.0283 446.409H99.1804C99.2669 446.409 99.377 446.412 99.5107 446.417C99.647 446.422 99.7925 446.442 99.9471 446.476C100.102 446.507 100.256 446.559 100.411 446.629C100.566 446.7 100.706 446.801 100.832 446.932C100.958 447.061 101.06 447.226 101.139 447.428C101.217 447.627 101.257 447.873 101.257 448.167C101.257 448.458 101.217 448.703 101.139 448.902C101.06 449.101 100.959 449.266 100.836 449.397C100.715 449.526 100.58 449.626 100.431 449.696C100.284 449.764 100.14 449.816 99.9983 449.85C99.8593 449.881 99.7309 449.899 99.6129 449.905C99.4976 449.91 99.4124 449.913 99.3573 449.913H96.8211V444.132H98.0283V446.409ZM103.246 444.132V449.913H102.039V444.132H103.246ZM98.0283 447.361V448.914H99.0506C99.1607 448.914 99.2734 448.906 99.3888 448.89C99.5067 448.875 99.6142 448.84 99.7112 448.788C99.8108 448.736 99.8921 448.658 99.955 448.556C100.018 448.451 100.049 448.312 100.049 448.139C100.049 447.958 100.018 447.817 99.955 447.715C99.8947 447.61 99.8148 447.531 99.7151 447.479C99.6155 447.426 99.5028 447.393 99.377 447.38C99.2538 447.367 99.1293 447.361 99.0034 447.361H98.0283ZM108.138 444.132H109.911V449.913H108.798V445.08H108.783L107.686 449.913H106.51L105.456 445.08H105.44V449.913H104.328V444.132H106.093L107.108 448.631H107.123L108.138 444.132ZM114.567 448.037C114.496 448.168 114.45 448.353 114.429 448.591L114.39 449.138C114.379 449.264 114.368 449.37 114.354 449.456C114.344 449.54 114.332 449.611 114.319 449.669C114.306 449.724 114.293 449.771 114.28 449.81C114.267 449.847 114.255 449.881 114.244 449.913H112.99C113.029 449.839 113.059 449.776 113.08 449.724C113.104 449.671 113.122 449.616 113.135 449.559C113.151 449.501 113.163 449.434 113.171 449.358C113.181 449.282 113.193 449.183 113.206 449.059L113.261 448.513C113.28 448.345 113.302 448.193 113.328 448.057C113.357 447.918 113.4 447.795 113.458 447.687C113.518 447.58 113.601 447.486 113.706 447.408C113.81 447.329 113.949 447.262 114.122 447.207C114.046 447.181 113.964 447.147 113.875 447.105C113.788 447.063 113.696 446.992 113.599 446.893C113.474 446.767 113.374 446.614 113.301 446.433C113.227 446.249 113.19 446.049 113.19 445.831C113.19 445.695 113.205 445.565 113.234 445.442C113.263 445.316 113.303 445.198 113.356 445.088C113.408 444.978 113.47 444.877 113.54 444.785C113.614 444.693 113.692 444.612 113.776 444.541C113.897 444.439 114.028 444.36 114.17 444.305C114.314 444.25 114.462 444.21 114.614 444.184C114.769 444.157 114.926 444.143 115.086 444.14C115.248 444.135 115.408 444.132 115.565 444.132H117.98V449.913H116.812V447.632H115.735C115.551 447.632 115.383 447.637 115.231 447.648C115.082 447.658 114.951 447.694 114.838 447.754C114.725 447.812 114.635 447.906 114.567 448.037ZM114.441 445.642C114.412 445.724 114.398 445.821 114.398 445.933C114.398 446.059 114.415 446.165 114.449 446.252C114.485 446.336 114.533 446.406 114.59 446.464C114.651 446.519 114.717 446.562 114.791 446.594C114.867 446.623 114.943 446.644 115.019 446.657C115.098 446.67 115.174 446.678 115.247 446.68C115.323 446.683 115.391 446.684 115.451 446.684H116.812V445.147H115.451C115.436 445.147 115.404 445.148 115.357 445.151C115.31 445.151 115.256 445.153 115.196 445.159C115.138 445.161 115.079 445.167 115.019 445.174C114.959 445.182 114.908 445.194 114.866 445.21C114.813 445.231 114.759 445.26 114.704 445.296C114.649 445.33 114.598 445.376 114.551 445.434C114.506 445.492 114.47 445.561 114.441 445.642Z" fill="black"/>
</g>
<defs>
<clipPath id="clip0_205_1089">
<rect width="334.014" height="501.021" fill="white" transform="translate(0.986328)"/>
</clipPath>
</defs>
</svg>
