<svg width="813" height="209" viewBox="0 0 813 209" fill="none" xmlns="http://www.w3.org/2000/svg">
<g filter="url(#filter0_f_182_130)">
<path d="M17.4286 47.5275V17.989H192.813V47.5275H121.604V191H88.6374V47.5275H17.4286ZM369.36 17.989V47.5275H251.733V89.4616H364.085V119H251.733V161.462H369.36V191H218.766V17.989H369.36ZM442.324 17.989V89.7253H547.555V17.989H580.522V191H547.555V119.264H442.324V191H409.357V17.989H442.324ZM658.413 17.989V81.022H730.676C750.72 81.022 766.457 85.7692 777.885 95.2638C789.314 104.758 795.028 117.769 795.028 134.297V137.725C795.028 154.429 789.314 167.527 777.885 177.022C766.457 186.341 750.72 191 730.676 191H625.446V17.989H658.413ZM729.885 161.462C739.907 161.462 747.643 159.352 753.094 155.132C758.72 150.912 761.533 144.934 761.533 137.198V134.56C761.533 127 758.72 121.11 753.094 116.89C747.468 112.67 739.731 110.56 729.885 110.56H658.413V161.462H729.885Z" fill="#474646"/>
</g>
<defs>
<filter id="filter0_f_182_130" x="0.0965576" y="0.65686" width="812.263" height="207.675" filterUnits="userSpaceOnUse" color-interpolation-filters="sRGB">
<feFlood flood-opacity="0" result="BackgroundImageFix"/>
<feBlend mode="normal" in="SourceGraphic" in2="BackgroundImageFix" result="shape"/>
<feGaussianBlur stdDeviation="8.66608" result="effect1_foregroundBlur_182_130"/>
</filter>
</defs>
</svg>
